<svg width="125" height="125" viewBox="0 0 125 125" fill="none" xmlns="http://www.w3.org/2000/svg">
<path d="M62.5 0C28.038 0 0 28.038 0 62.5C0 96.962 28.038 125 62.5 125C96.962 125 125 96.962 125 62.5C125 28.038 96.962 0 62.5 0ZM62.5 119.565C31.0326 119.565 5.43478 93.9674 5.43478 62.5C5.43478 31.0326 31.0326 5.43478 62.5 5.43478C93.9674 5.43478 119.565 31.0326 119.565 62.5C119.565 93.9674 93.9674 119.565 62.5 119.565Z" fill="#979797"/>
<path d="M48.9127 51.6302C48.9127 47.1356 45.2551 43.478 40.7606 43.478C36.266 43.478 32.6084 47.1356 32.6084 51.6302C32.6084 56.1248 36.266 59.7824 40.7606 59.7824C45.2551 59.7824 48.9127 56.1248 48.9127 51.6302ZM38.0432 51.6302C38.0432 50.1329 39.2633 48.9128 40.7606 48.9128C42.2579 48.9128 43.478 50.1329 43.478 51.6302C43.478 53.1275 42.2579 54.3476 40.7606 54.3476C39.2633 54.3476 38.0432 53.1275 38.0432 51.6302Z" fill="#979797"/>
<path d="M84.2391 43.478C79.7445 43.478 76.0869 47.1356 76.0869 51.6302C76.0869 56.1248 79.7445 59.7824 84.2391 59.7824C88.7337 59.7824 92.3913 56.1248 92.3913 51.6302C92.3913 47.1356 88.7337 43.478 84.2391 43.478ZM84.2391 54.3476C82.7418 54.3476 81.5217 53.1275 81.5217 51.6302C81.5217 50.1329 82.7418 48.9128 84.2391 48.9128C85.7364 48.9128 86.9565 50.1329 86.9565 51.6302C86.9565 53.1275 85.7364 54.3476 84.2391 54.3476Z" fill="#979797"/>
<path d="M88.7691 76.78C87.6496 75.7773 85.9295 75.8751 84.9322 76.992C79.2637 83.3262 71.0898 86.9566 62.5001 86.9566C53.9131 86.9566 45.7365 83.3262 40.068 76.992C39.0653 75.8751 37.3506 75.7773 36.2311 76.78C35.1115 77.78 35.0191 79.4974 36.0191 80.617C42.7175 88.1007 52.3697 92.3914 62.5001 92.3914C72.6333 92.3914 82.2854 88.0979 88.9811 80.617C89.9811 79.4974 89.886 77.78 88.7691 76.78Z" fill="#979797"/>
</svg>
