<?xml version="1.0" encoding="utf-8"?>
<!-- Generator: Adobe Illustrator 19.1.0, SVG Export Plug-In . SVG Version: 6.00 Build 0)  -->
<svg version="1.1" xmlns="http://www.w3.org/2000/svg" xmlns:xlink="http://www.w3.org/1999/xlink" x="0px" y="0px"
	 viewBox="0 0 228.1 156.7" style="enable-background:new 0 0 228.1 156.7;" xml:space="preserve">
<style type="text/css">
	.st0{display:none;}
	.st1{display:inline;fill:#F6B221;}
	.st2{display:inline;fill:#7A232E;}
	.st3{fill:#FFFFFF;}
	.st4{fill:#F6B221;}
</style>
<g id="Layer_1" class="st0">
	<path class="st1" d="M65.6,314.7c1.5-0.1,2.9-0.2,4.4-0.4c1.4-0.2,2.9-0.5,4.3-0.8c2.8-0.6,5.6-1.5,8.3-2.6
		c2.7-1.1,5.3-2.3,7.8-3.8c1.3-0.7,2.5-1.5,3.7-2.3c1.2-0.8,2.3-1.7,3.4-2.6c1.1-0.9,2.1-1.9,3-3c0.9-1.1,1.8-2.2,2.4-3.4
		c0.3-0.6,0.6-1.2,0.7-1.9c0.1-0.3,0.2-0.6,0.2-1c0-0.3,0.1-0.7,0.1-1.1l0.4-4.4l1.7-17.5l0,0c0-0.1,0-0.2,0.1-0.2l1.3-1.9l0.1-0.1
		c0,0,0,0,0.1-0.1c0.1-0.1,0.1-0.1,0.2-0.2c0.1-0.1,0.2-0.2,0.4-0.2c0.3-0.1,0.6-0.1,0.9,0l0.1,0l0.1,0l0.1,0.1l0.3,0.1l0.5,0.2l0,0
		c0.1,0.1,0.2,0.2,0.2,0.4l0,1.1c0,0,0,0.1,0,0c0,0,0,0.1,0,0.1c0,0,0,0,0,0c0,0,0,0.1,0.1,0.1c0,0.1,0.1,0.1,0.2,0.1l-0.1,0
		l1.4-0.2l0,0c0,0,0,0,0,0c0.1,0,0.2-0.1,0.3-0.2c0,0,0-0.1,0-0.1c0,0,0,0,0-0.1l0-0.4l0-1.4v0c0-0.1,0-0.1,0.1-0.2l1-1.1l0.5-0.6
		c0.1-0.1,0.2-0.2,0.3-0.3c0.1-0.1,0.3-0.2,0.4-0.3c0.3-0.1,0.6-0.1,0.9,0.1c0.1,0,0.1,0.1,0.2,0.1l0.1,0.1l0.3,0.2l1.1,1
		c0.1,0,0.1,0.1,0.1,0.2l0,1.9v0.1v0c0,0,0,0,0,0c0,0,0,0,0,0c0,0,0,0.1,0,0.1c0,0.1,0.1,0.2,0.2,0.2c0,0,0.1,0,0.2,0l0.2,0l0.5,0
		l0.5,0l0.2,0c0.1,0,0.1,0,0.1,0c0.1,0,0.2-0.1,0.2-0.2c0-0.1,0-0.2,0-0.3l0-1.9c0-0.1,0-0.2,0.1-0.2l0,0l1.1-1l0.3-0.2l0.1-0.1
		l0.1-0.1c0.1,0,0.1-0.1,0.2-0.1c0.3-0.1,0.6-0.2,0.9-0.1c0.2,0,0.3,0.1,0.4,0.2c0.1,0,0.1,0.1,0.2,0.2l0.1,0.1l0.5,0.5l1,1.1
		c0.1,0.1,0.1,0.2,0.1,0.2v0l0,1.4l0,0.4l0,0c0,0,0,0,0,0l0,0c0,0,0,0,0,0c0,0,0,0,0,0.1c0,0.1,0.1,0.1,0.2,0.1c0,0,0,0,0,0l0,0
		l1.4,0.2l-0.1,0c0,0,0.1,0,0.1-0.1c0,0,0,0,0-0.1c0,0,0,0,0,0l0-0.1l0-1.1c0-0.2,0.1-0.4,0.3-0.5l0,0l0.5-0.2l0.3-0.1l0.1-0.1
		l0.1,0l0.1,0c0.2-0.1,0.3-0.1,0.5-0.1c0.2,0,0.3,0,0.5,0.1c0.2,0.1,0.3,0.1,0.4,0.2c0.1,0.1,0.1,0.1,0.2,0.2c0,0.1,0.1,0.1,0.1,0.2
		c0.4,0.6,0.9,1.3,1.3,1.9c0.2,0.3,0.1,0.7-0.2,0.9c-0.1,0.1-0.2,0.1-0.3,0.1h0h0l0.6-0.7l0.7,9.3l0.4,4.6c0.1,1.5,0.2,3.1,0.4,4.6
		l0.2,2.3c0.1,0.8,0.1,1.6,0.2,2.3l0.1,0.6l0.1,0.5c0,0.2,0.1,0.4,0.1,0.5c0.1,0.2,0.1,0.4,0.2,0.5c0.2,0.7,0.6,1.4,0.9,2
		c0.4,0.6,0.8,1.3,1.3,1.9c0.5,0.6,1,1.2,1.5,1.7c0.5,0.6,1.1,1.1,1.7,1.6c0.6,0.5,1.2,1,1.8,1.5c0,0,0,0.1,0,0.1c0,0-0.1,0-0.1,0
		c-0.6-0.4-1.3-0.9-1.9-1.4c-0.6-0.5-1.2-1-1.8-1.5c-0.6-0.5-1.1-1.1-1.7-1.6c-0.5-0.6-1-1.2-1.5-1.9c-0.4-0.7-0.8-1.4-1.1-2.1
		c-0.1-0.2-0.1-0.4-0.2-0.6c-0.1-0.2-0.1-0.4-0.2-0.6l-0.1-0.6l-0.1-0.6c-0.1-0.8-0.2-1.5-0.3-2.3c-0.1-0.8-0.2-1.5-0.3-2.3
		c-0.2-1.5-0.3-3.1-0.5-4.6l-0.4-4.6c-0.1-1.5-0.2-3.1-0.3-4.6c-0.1-1.5-0.2-3.1-0.3-4.6l0,0c0-0.3,0.3-0.6,0.6-0.7c0,0,0,0,0,0h0
		l-0.5,1c-0.4-0.6-0.8-1.3-1.2-2l0-0.1c0,0,0,0,0,0c0,0,0,0-0.1,0c0,0-0.1,0-0.1,0c0,0-0.1,0-0.1,0l0,0l0,0l0,0l0,0c0,0,0,0,0,0l0,0
		l-0.1,0l-0.1,0.1l-0.3,0.1l-0.5,0.2l0.3-0.5l0,1.1c0,0,0,0.1,0,0.2c0,0.1,0,0.2-0.1,0.2c-0.1,0.2-0.1,0.3-0.2,0.4
		c-0.2,0.2-0.5,0.4-0.8,0.4l0,0c0,0,0,0-0.1,0l-1.4-0.3l0.1,0c-0.4,0-0.8-0.2-1-0.6c0-0.1-0.1-0.2-0.1-0.3c0,0,0-0.1,0-0.2l0,0V269
		l0-0.4l0-1.4l0.1,0.3l-1-1.1l-0.5-0.6l-0.1-0.1c0,0-0.1-0.1-0.1-0.1c-0.1-0.1-0.1-0.1-0.2-0.1c-0.2-0.1-0.3-0.1-0.5,0
		c0,0-0.1,0-0.1,0.1l-0.1,0.1l-0.1,0l-0.3,0.2l-1.2,0.9l0.1-0.2l0,1.9c0,0.1,0,0.4-0.1,0.6c-0.1,0.2-0.3,0.3-0.5,0.4
		c-0.1,0-0.2,0.1-0.3,0.1l-0.2,0l-0.5,0l-0.5,0l-0.2,0c-0.1,0-0.2,0-0.3-0.1c-0.2-0.1-0.4-0.2-0.5-0.4c-0.1-0.1-0.1-0.2-0.1-0.3
		c0,0,0,0,0-0.1l0-0.1l0-0.1l0-1.9l0.1,0.2l-1.2-1l-0.3-0.2l-0.1-0.1c0,0-0.1-0.1-0.1-0.1c-0.2-0.1-0.4-0.1-0.5,0
		c-0.1,0-0.2,0.1-0.2,0.1c-0.1,0.1-0.2,0.2-0.2,0.3l-0.5,0.6l-1,1.1l0.1-0.2l0,1.4l0,0.4c0,0.1,0,0.2,0,0.2c0,0.1,0,0.2-0.1,0.2
		c-0.2,0.3-0.5,0.5-0.9,0.5l0.1,0l-1.4,0.3c0,0,0,0,0,0l0,0c-0.3,0-0.6-0.1-0.8-0.3c-0.1-0.1-0.2-0.2-0.2-0.4c0-0.1,0-0.1-0.1-0.2
		c0-0.1,0-0.1,0-0.1l0-0.1l0-1.1l0.2,0.4l-0.5-0.2l-0.3-0.1l-0.1-0.1l-0.1,0l0,0c-0.1,0-0.2,0-0.3,0c0,0-0.1,0-0.1,0.1c0,0,0,0,0,0
		c0,0,0,0,0,0l0,0c0,0,0,0,0,0l0,0l0,0l-1.2,2l0.1-0.2c-0.1,2.9-0.3,5.9-0.5,8.8c-0.2,2.9-0.4,5.9-0.7,8.8l-0.4,4.4
		c0,0.4-0.1,0.7-0.1,1.1c0,0.4-0.1,0.8-0.2,1.2c-0.2,0.8-0.5,1.5-0.8,2.2c-0.7,1.4-1.6,2.6-2.6,3.8c-1,1.1-2.1,2.2-3.2,3.1
		c-2.3,1.9-4.8,3.6-7.4,5c-1.3,0.7-2.6,1.4-4,2c-1.4,0.6-2.7,1.1-4.1,1.6c-2.8,1-5.7,1.7-8.6,2.3c-1.5,0.3-2.9,0.4-4.4,0.5
		s-2.9,0.1-4.4,0.1C65.5,314.9,65.5,314.8,65.6,314.7C65.5,314.7,65.5,314.7,65.6,314.7"/>
	<path class="st1" d="M106.5,278.8c0.7-6.2,12.7-6.7,12.7-6.7s-6.6-0.2-12.2,1.8l-1,0.2l-0.5,4.7H106.5z"/>
	<path class="st1" d="M117.7,290.3l0-7.1c1-1.9,2.1-1.3,2.6-0.4c0.6,0.9,0.7,5,0.7,5v-4.2c0-1.3-1-3-3.2-4c-2,1.1-2.6,3.8-2.6,3.8
		v7.6h5.8L117.7,290.3z"/>
	<path class="st2" d="M137.7,354h-2.4c-0.9,0-1.4,0.3-2.1,0.9c0-2.3,0-1.3,0-2.6c0-2.5-1.7-4.6-4.3-5c1,1,1.2,2.3,1.2,3.7v9.4
		c0,1.6,1.3,3,3.1,3.2v-6.9c0-0.9,0.8-1.8,1.8-1.8h1.3c1,0,1.9,0.7,1.9,1.6v10.1c0,1.6,1.1,3,2.9,3.3v-12.6
		C141.1,355.6,139.6,354,137.7,354"/>
	<path class="st2" d="M212.1,354h-2.4c-0.9,0-1.4,0.3-2.1,0.9c0-2.3,0-4.1,0-5.4c0-2.5-1.7-4.7-4.3-5c1,1,1.2,2.3,1.2,3.7v12.2
		c0,1.6,1.3,3,3.1,3.2v-6.9c0-0.9,0.8-1.8,1.8-1.8h1.3c1,0,1.9,0.7,1.9,1.6v10.1c0,1.6,1.1,3,2.9,3.3v-12.6
		C215.6,355.6,214,354,212.1,354"/>
	<path class="st2" d="M47.1,364c0,1-1.1,1.9-2.2,1.9h-0.6c-1.1,0-2-0.8-2-1.9v-7.3c0-1,0.9-1.9,2-1.9h0.6c1.1,0,2.2,0.8,2.2,1.9V364
		z M67.3,354.6c-0.8-0.3-1.5-0.6-2.4-0.6c-5,0.2-5.4,3.4-6.5,5.7c-1.2,2.7-2,6.2-5.8,6.2h-0.3c-1.1,0-2.1-1-2.1-2v-7.2v-2.7
		c0-1.6-1.5-2.9-3.2-3.1v4.1c-0.6-0.5-1.1-0.9-1.9-0.9h-2.5c-2,0-3.5,1.5-3.5,3.2v6.3c0,2.5,1.6,3.2,3.5,3.2h3.1
		c0.9,0,1.9-0.4,2.7-1c0.6,0.6,1.6,1,2.6,1h4.3c4.4,0,5.3-4.8,5.9-6.5c1.2-3.1,2.5-5.2,5.8-5.2L67.3,354.6z"/>
	<path class="st2" d="M96.5,344.4c1,1,1.2,2.3,1.2,3.7c0,2.7,0,14.1,0,15.9c0,0.7-0.9,1.8-1.7,1.8h-4.6v-14c0-2.3-1.5-4.4-3.7-5
		c-0.5-0.2-0.9-0.3-1.5-0.2c-4.8,0-5.7,3.7-6.5,5.6c-1.7,4.3-2.7,7.6-4,10.9c-1.1,2.5-2.2,5.8-5.7,5.8c-0.1,0-0.2,0-0.2,0l-0.2,0.5
		c0.5,0.2,1.4,0.5,2.4,0.5c4.6,0,5.8-3.8,6.5-5.7c1.3-3.3,2.4-6.4,4.2-11.4c1.4-3.8,2.3-5.1,5.2-5.2c0.3,0.5,0.5,1.3,0.5,2.9v13
		c0,1.6,1.5,3.2,3.1,3.2h6c1.9,0,3.5-1.5,3.5-3.2v-14.1C100.8,346.9,99.2,344.8,96.5,344.4"/>
	<path class="st2" d="M184,366.7c1.8-0.3,3.1-1.7,3.1-3.3v-5.1c0-2.5-1.6-5-5.2-5c-1.6,0-2.7,0.7-3.6,1.3c0.3-0.1,0.7-0.1,1-0.1
		c2.3,0,4.6,1.6,4.6,4.2L184,366.7z"/>
	<path class="st2" d="M176.9,366.7c1.8-0.3,3.1-1.7,3.1-3.3v-5.1c0-2.5-1.6-5-5.2-5c-1.6,0-2.7,0.7-3.6,1.3c0.3-0.1,0.7-0.1,1-0.1
		c2.3,0,4.6,1.6,4.6,4.2L176.9,366.7z"/>
	<path class="st2" d="M169.8,358.6l0,8.1c1.8-0.3,3.1-1.7,3.1-3.3v-5.1c0-2.5-1.6-5-5.2-5C167.7,353.3,169.8,354.3,169.8,358.6"/>
	<path class="st2" d="M20.4,366.7c1.8-0.3,3.2-1.7,3.2-3.3v-5.6c2.4,0.7,3.9,2.8,5,4.8c1.1,2,2.8,7.1,7.8,7.3c1,0,1.9-0.2,2.7-0.5
		l-0.2-0.5c-3.3,0-5.1-2.3-6.7-5.9c-0.9-2.1-1.8-4.1-5.2-5.8h5.6c1.9,0,3.4-1.1,3.4-2.9v-4.5c0-1.7-1.5-3-3.3-3.1h-4.4
		c-0.7,0.1-1.4,0.2-1.6,0.8l4.3,0c1,0,1.8,0.7,1.9,1.6v5.4c0,1-0.8,1.7-1.9,1.8h-6.4l-1,0v-0.7v-6.3c0-2.5-1.7-4.6-4.3-5
		c1,1,1.1,2.3,1.1,3.7V366.7z"/>
	<path class="st2" d="M152.2,364c0,1-1.1,1.9-2.2,1.9h-0.6c-1.1,0-2-0.8-2-1.9v-7.3c0-1,0.9-1.9,2-1.9h0.6c1.1,0,2.2,0.8,2.2,1.9
		V364z M162.5,354v9.9c0,1.1-1,2-2.3,2l-2.7,0c-1.1,0-2.1-1-2.1-2v-9.9c0-1.6-1.5-2.9-3.2-3.1v4.1c-0.6-0.5-1.1-0.9-1.9-0.9h-2.5
		c-2,0-3.5,1.5-3.5,3.2v6.3c0,2.5,1.6,3.2,3.5,3.2h3.1c0.9,0,1.9-0.4,2.7-1c0.6,0.6,1.6,1,2.6,1h4.7c2.7,0,4.7-2.4,4.7-5v-4.4
		C165.7,355.6,164.3,354.2,162.5,354"/>
	<path class="st2" d="M198.2,364c0,1-1.1,1.9-2.2,1.9h-0.6c-1.1,0-2-0.8-2-1.9v-7.3c0-1,0.9-1.9,2-1.9h0.6c1.1,0,2.2,0.8,2.2,1.9
		V364z M203.5,366.3l0-0.4c-0.7,0-2.1-0.3-2.1-2l0-0.2v-9.9c0-1.6-1.5-2.9-3.2-3.1v4.1c-0.6-0.5-1.1-0.9-1.9-0.9h-2.5
		c-2,0-3.5,1.5-3.5,3.2v6.3c0,2.5,1.6,3.2,3.5,3.2h3.1c0.8,0,1.8-0.4,2.6-0.9c0,0,0.9,0.9,2.4,0.9
		C202.7,366.7,203,366.5,203.5,366.3"/>
	<path class="st2" d="M165.5,349.4c0-0.8-0.6-1.4-1.4-1.4c-0.8,0-1.4,0.6-1.4,1.4c0,0.8,0.6,1.4,1.4,1.4
		C164.8,350.8,165.5,350.2,165.5,349.4"/>
	<path class="st2" d="M86.3,355.3c0-0.8-0.6-1.4-1.4-1.4c-0.8,0-1.4,0.6-1.4,1.4s0.6,1.4,1.4,1.4C85.7,356.7,86.3,356.1,86.3,355.3"
		/>
	<path class="st2" d="M121.3,364.8c0,2.5,1.7,4.6,4.3,5c-1-1-1.2-2.3-1.2-3.8v-6.3c0-1.5-1.3-3.4-3.6-3.4h-4.2
		c2.6-0.8,3.4-2.6,4.2-4.3c0.8-1.7,1.6-5.1,5.7-5.1c0.1,0,0.2-0.7,0.2-0.7c-0.8-0.3-1.4-0.5-2.4-0.5c-4.7,0-5.7,3.8-6.5,5.6
		c-0.8,1.9-1.6,3.9-3.6,4.5c0-3.3,0-6.5,0-6.6c0-2.5-1.7-4.6-4.3-5c1,1,1.2,2.3,1.2,3.8v18.6c1.8-0.3,3.1-1.8,3.1-3.4c0,0,0-3,0-6.2
		c1.5,0,5,0,5.2,0c1,0,1.8,0.4,1.8,1.6V364.8z"/>
	<path class="st2" d="M97.5,322.8c0-0.8-0.6-1.4-1.4-1.4c-0.8,0-1.4,0.6-1.4,1.4c0,0.8,0.6,1.4,1.4,1.4
		C96.9,324.1,97.5,323.5,97.5,322.8"/>
	<path class="st2" d="M59.3,337.2c0,1.1-1.1,2-2.4,2h-0.2c-1.2,0-2.2-0.9-2.2-2v-7c0-1.1,1-2,2.2-2h0.2c1.2,0,2.4,0.9,2.4,2V337.2z
		 M28.1,337.2c0,1.1-1.1,2-2.4,2h-0.2c-1.2,0-2.2-0.9-2.2-2v-7c0-1.1,1-2,2.2-2h0.2c1.2,0,2.4,0.9,2.4,2V337.2z M112.8,322.8
		c0-2.5-1.7-4.6-4.3-5c1,1,1.2,2.3,1.2,3.7l0,15.4c0,0.7-0.6,2.4-2.5,2.4h-2.6c-1.1-0.1-2.1-1.3-2.1-2.3v-6.3c0-1.7-1.2-3.1-3-3.3
		H93c-1.7,0-3.1,0.9-3.1,2.8l0,3.7c1.5,0,3.1-1.1,3.1-3.3c0-1.1,1.4-2,2.7-2h1.4c1.2,0,2.2,0.9,2.2,2v5.7c0,1.1,1.3,2.8,2.7,3
		l-29.9,0c-1.9,0-2-2.1-2-2.1v-4.7c0-1.8-1.2-3.3-3.1-3.6v8.3c0,1.2-0.4,2-1.8,2h-0.8c-0.8,0-1.9-0.4-1.9-2.1v-9.8
		c0-1.8-1.3-2.9-3.2-3.1c0,0,0,2.8,0,4.3c-0.4-0.6-2-1.1-3-1.1h-3.9c-6.4,0-7,3.1-8.1,5.6c-1.8,4-3.5,6.4-7.5,6.4
		c-0.1,0-3.3,0-3.3,0c-1.2,0-2.2-0.9-2.2-2v-9.8c0-1.7-1.4-3.1-3.2-3.3v4.1c-0.6-0.6-1.5-0.9-2.4-0.9h-1.5c-2.1,0-3.8,1.6-3.8,3.5
		v5.7c0,1.9,1.7,3.6,3.8,3.6h2.4c1,0,2-0.4,2.9-1.1c0.7,0.7,1.7,1.1,2.8,1.1H39c4.7,0,7.6-4.2,8.4-6.6c1.1-3.2,2.3-5.3,5.7-5.3
		c-1.4,0-1.7,1.6-1.7,2.4v6.2c0,1.9,1.5,3.3,3.6,3.3H58c1,0,1.9-0.2,2.6-0.8c0.7,0.6,1.5,0.8,2.5,0.8h0.1h0h0c0,0,3.4,0,4-0.1
		c0.1,0,1.7-0.1,2.2-0.9c0,0,0,0,0,0c0.5,0.5,1,1,2,1c0,0,36.5,0.1,37.1,0.1c2.1,0,4.3-1.7,4.3-3.5V322.8z"/>
	<path class="st2" d="M215.6,337v-5.7c0-1.5,0.5-2.9,1.5-4c-2.9,0.4-4.7,2.7-4.7,5.4v4.6c0,1-1.2,2.1-2.3,2.1h-14.5
		c-0.8,0.1-1.2,0.2-1.5,0.8h17.5C213.9,340.1,215.6,338.5,215.6,337"/>
	<path class="st2" d="M191.3,316c0.7,0,1.3-0.5,1.4-1.1h-2.1c-0.4,0-0.8-0.3-0.8-0.6v-0.2c0-0.4,0.3-0.7,0.7-0.7h0.7
		c0.7,0,1.3-0.4,1.4-1h-1.8c-0.7,0-1.4,0.6-1.4,1.2v0.5c0,0.3,0.1,0.5,0.4,0.7h-0.1h-0.1c-1.1,0-2,0.6-2.1,1.5
		c0.4-0.3,1-0.4,1.6-0.4H191.3z"/>
	<path class="st2" d="M191.9,332.5c0,2.3,0,1.3,0,2.6c0,2.5-1.7,4.6-4.3,5c1-1,1.2-2.3,1.2-3.7V321c0-1.6,1.3-3,3.1-3.2v6.9V332.5z"
		/>
	<path class="st2" d="M70.4,348.3c0-0.8-0.6-1.4-1.4-1.4c-0.8,0-1.4,0.6-1.4,1.4s0.6,1.4,1.4,1.4C69.8,349.6,70.4,349,70.4,348.3"/>
	<path class="st2" d="M70.4,344.6c0-0.8-0.6-1.4-1.4-1.4c-0.8,0-1.4,0.6-1.4,1.4c0,0.8,0.6,1.4,1.4,1.4
		C69.8,346,70.4,345.4,70.4,344.6"/>
	<path class="st2" d="M181.8,334.7c0,2.6-2.3,4.2-4.6,4.2c-0.3,0-0.7,0-1-0.1c0.8,0.6,2,1.3,3.6,1.3c3.6,0,5.2-2.6,5.2-5V330
		c0-1.6-1.3-3.1-3.1-3.3L181.8,334.7z"/>
	<path class="st2" d="M174.7,334.7c0,2.6-2.3,4.2-4.6,4.2c-0.3,0-0.7,0-1-0.1c0.8,0.6,2,1.3,3.6,1.3c3.6,0,5.2-2.6,5.2-5V330
		c0-1.6-1.3-3.1-3.1-3.3L174.7,334.7z"/>
	<path class="st2" d="M164.6,339.3c-0.6,0-35,0-35,0c-0.8,0.1-1.2,0.2-1.5,0.8l36.4,0l1.1,0c3.6,0,5.2-2.6,5.2-5V330
		c0-1.6-1.3-3.1-3.1-3.3l0,8.1C167.6,336.9,167,339.3,164.6,339.3"/>
	<path class="st2" d="M119.6,332.5c0,2.3,0,1.3,0,2.6c0,2.5-1.7,4.6-4.3,5c1-1,1.2-2.3,1.2-3.7V321c0-1.6,1.3-3,3.1-3.2v6.9V332.5z"
		/>
	<path class="st2" d="M25.3,320.8c-0.8,0-1.4,0.6-1.4,1.4c0,0.8,0.6,1.4,1.4,1.4c0.8,0,1.4-0.6,1.4-1.4
		C26.7,321.4,26.1,320.8,25.3,320.8"/>
	<path class="st2" d="M21.7,320.8c-0.8,0-1.4,0.6-1.4,1.4c0,0.8,0.6,1.4,1.4,1.4c0.8,0,1.4-0.6,1.4-1.4
		C23.1,321.4,22.4,320.8,21.7,320.8"/>
	<path class="st2" d="M160.8,301.6c0,0-1.1-0.3-3.1-0.7c-2-0.4-4.9-1-8.3-1.4c-3.5-0.4-7.5-0.7-11.9-0.7c-2.2,0-4.4,0.1-6.7,0.3
		c-2.3,0.2-4.5,0.6-6.8,1c-2.3,0.5-4.5,1.1-6.6,1.8c-1.1,0.4-2.1,0.8-3.1,1.2c-0.5,0.2-1,0.4-1.5,0.7c-0.5,0.2-1,0.5-1.5,0.7
		c-2,1-3.8,1.9-5.6,2.8c-1.8,0.9-3.5,1.7-5.1,2.4c-1.6,0.7-3.1,1.3-4.5,1.8c-1.3,0.5-2.5,0.8-3.5,1.1c-1,0.3-1.8,0.5-2.3,0.6
		c-0.5,0.1-0.8,0.2-0.8,0.2s0.3-0.1,0.8-0.3c0.3-0.1,0.6-0.2,0.9-0.4c0.4-0.2,0.8-0.3,1.3-0.5c0.9-0.4,2.1-0.9,3.3-1.5
		c1.3-0.6,2.7-1.3,4.3-2.1c1.6-0.8,3.2-1.7,5-2.6c1.8-0.9,3.7-1.9,5.7-2.8c0.5-0.2,1-0.5,1.5-0.7c0.5-0.2,1-0.5,1.6-0.7
		c1-0.5,2.1-0.9,3.2-1.2c2.2-0.7,4.5-1.3,6.8-1.8c2.3-0.4,4.7-0.7,7-0.9c2.3-0.2,4.6-0.2,6.8-0.2c4.4,0.1,8.5,0.5,11.9,1.1
		c1.7,0.3,3.3,0.6,4.7,0.9c1.4,0.3,2.6,0.6,3.6,0.9C159.7,301.2,160.8,301.6,160.8,301.6"/>
	<polygon class="st2" points="23.4,399.9 22.2,399.9 22.2,392.5 19.7,392.5 19.7,391.8 25.9,391.8 25.9,392.5 23.4,392.5 	"/>
	<path class="st2" d="M30.5,394.5c-1.3,0-1.7,1.3-1.7,2.5c0,0.8,0.1,1.3,0.2,1.5c0.3,0.8,0.9,1.1,1.5,1.1c0.9,0,1.7-0.7,1.7-2.6
		C32.2,395.6,31.7,394.5,30.5,394.5 M32.7,399.2c-0.3,0.4-1,1-2.3,1c-0.5,0-1.2-0.1-1.9-0.6c-0.9-0.8-1-1.9-1-2.5
		c0-2.3,1.3-3.3,2.9-3.3c1.7,0,2.8,1.3,2.8,3.1C33.3,397.9,33.1,398.7,32.7,399.2"/>
	<path class="st2" d="M40.7,394.1v5.9h-1.1v-0.7c-0.2,0.3-0.7,1-1.8,1c-0.7,0-1.3-0.3-1.6-0.7c-0.3-0.4-0.4-0.9-0.4-1.6v-3.9h1.1
		v3.4c0,0.6,0,1,0.2,1.3c0.2,0.3,0.5,0.6,1.1,0.6c0.1,0,0.9,0,1.5-0.8v-4.6H40.7z"/>
	<path class="st2" d="M44.5,399.9h-1.1v-5.9h1.1v0.8c0.2-0.3,0.7-1,1.5-1c0.3,0,0.5,0.1,0.6,0.1v0.9c-0.2-0.1-0.5-0.2-0.9-0.2
		c-0.7,0-1.1,0.5-1.2,0.7V399.9z"/>
	<path class="st2" d="M49.8,399.9h-1.1V394h1.1V399.9z M49.3,391.7c0.4,0,0.6,0.3,0.6,0.6c0,0.5-0.4,0.6-0.6,0.6
		c-0.3,0-0.6-0.2-0.6-0.6C48.7,392,48.9,391.7,49.3,391.7"/>
	<path class="st2" d="M56.3,395.5c-0.2-0.3-0.6-1-1.7-1c-0.8,0-1.3,0.4-1.3,0.9c0,0.5,0.4,0.7,1,0.9c0,0,0.5,0.2,0.6,0.2
		c0.6,0.2,1.8,0.5,1.8,1.8c0,0.6-0.2,1-0.6,1.3c-0.5,0.4-1.1,0.5-1.7,0.5c-0.6,0-1.2-0.1-1.6-0.5c-0.6-0.5-0.7-1.1-0.8-1.3
		c0.1,0,0.2-0.1,0.3-0.1c0.1,0.2,0.2,0.4,0.5,0.6c0.4,0.3,0.9,0.5,1.5,0.5c0.8,0,1.3-0.4,1.3-1c0-0.6-0.4-0.8-0.6-0.9
		c-0.2-0.1-0.5-0.2-1.2-0.4c-0.6-0.2-1.6-0.5-1.6-1.6c0-1,0.8-1.7,2.1-1.7c0.5,0,1,0.1,1.5,0.4c0.6,0.4,0.7,1,0.7,1.2
		C56.5,395.5,56.4,395.5,56.3,395.5"/>
	<path class="st2" d="M67.3,399.9h-1v-3.7c0-0.4,0-0.6,0-0.8c0-0.2-0.1-0.9-1-0.9c-0.8,0-1.3,0.7-1.5,0.9v4.5h-1v-3.6
		c0-0.3,0-0.6,0-0.8c-0.1-0.9-0.9-0.9-1.1-0.9c-0.6,0-1.1,0.4-1.5,0.9v4.5h-1v-5.9h1v0.8c0.2-0.3,0.8-1.1,1.9-1.1
		c0.3,0,0.7,0.1,1,0.2c0.5,0.3,0.6,0.7,0.7,0.9c0.1-0.2,0.3-0.4,0.6-0.7c0.5-0.4,1.1-0.5,1.4-0.5c0.8,0,1.2,0.3,1.4,0.7
		c0.2,0.4,0.3,1,0.3,1.7V399.9z"/>
	<path class="st2" d="M75.8,399.3h1.1c1.1,0,1.7-0.1,2.3-0.5c0.5-0.3,1.3-1.2,1.3-2.8c0-1.1-0.3-1.9-0.8-2.4c-0.8-1-2-1-2.9-1h-1.1
		V399.3z M74.7,399.9v-8.2h2.7c1.2,0,2.2,0.2,3,0.9c0.8,0.6,1.3,1.8,1.3,3.1c0,1.3-0.5,2.4-1.2,3c-0.8,0.8-1.9,1.1-3.3,1.1H74.7z"/>
	<path class="st2" d="M88.6,396.4c-0.1-1.5-1.1-1.8-1.7-1.8c-0.7,0-1.6,0.5-1.8,1.8H88.6z M85,397c0,0.3,0.1,1,0.5,1.6
		c0.6,0.8,1.4,0.8,1.6,0.8c1.3,0,1.8-0.9,2-1.2c0.1,0,0.2,0.1,0.3,0.1c-0.1,0.4-0.6,1.9-2.6,1.9c-1.6,0-3-1.1-3-3.2
		c0-2,1.4-3.2,2.9-3.2c0.8,0,1.4,0.3,1.8,0.7c0.9,0.8,0.9,2.1,0.9,2.5H85z"/>
	<path class="st2" d="M96.6,394.1l-2.6,6h-0.4l-2.6-6h1.1l1.6,3.9c0,0,0.1,0.2,0.1,0.4c0-0.1,0-0.2,0.1-0.4l1.7-3.9H96.6z"/>
	<path class="st2" d="M102.9,396.4c-0.1-1.5-1.1-1.8-1.7-1.8c-0.7,0-1.6,0.5-1.8,1.8H102.9z M99.4,397c0,0.3,0.1,1,0.5,1.6
		c0.6,0.8,1.4,0.8,1.6,0.8c1.3,0,1.8-0.9,2-1.2c0.1,0,0.2,0.1,0.3,0.1c-0.1,0.4-0.6,1.9-2.6,1.9c-1.6,0-3-1.1-3-3.2
		c0-2,1.4-3.2,2.9-3.2c0.8,0,1.4,0.3,1.8,0.7c0.9,0.8,0.9,2.1,0.9,2.5H99.4z"/>
	<rect x="106.2" y="391.8" class="st2" width="1.1" height="8.2"/>
	<path class="st2" d="M112.6,394.5c-1.3,0-1.7,1.3-1.7,2.5c0,0.8,0.1,1.3,0.2,1.5c0.3,0.8,0.9,1.1,1.5,1.1c0.9,0,1.7-0.7,1.7-2.6
		C114.3,395.6,113.8,394.5,112.6,394.5 M114.8,399.2c-0.3,0.4-1,1-2.3,1c-0.5,0-1.2-0.1-1.9-0.6c-0.9-0.8-1-1.9-1-2.5
		c0-2.3,1.3-3.3,2.9-3.3c1.7,0,2.8,1.3,2.8,3.1C115.5,397.9,115.2,398.7,114.8,399.2"/>
	<path class="st2" d="M119,398.9c0.6,0.6,1.3,0.6,1.4,0.6c0.5,0,1.9-0.3,1.9-2.5c0-1.2-0.5-2.4-1.7-2.4c-0.6,0-1.1,0.3-1.6,0.8
		V398.9z M119,394.1v0.7c0.3-0.3,0.9-0.9,2-0.9c1.5,0,2.5,1.3,2.5,3.1c0,1.9-1,3.3-2.7,3.3c-1,0-1.5-0.5-1.8-0.8v2.8h-1v-8.2H119z"
		/>
	<path class="st2" d="M134.2,399.9h-1v-3.7c0-0.4,0-0.6,0-0.8c0-0.2-0.1-0.9-1-0.9c-0.8,0-1.3,0.7-1.5,0.9v4.5h-1v-3.6
		c0-0.3,0-0.6,0-0.8c-0.1-0.9-0.9-0.9-1.1-0.9c-0.6,0-1.1,0.4-1.5,0.9v4.5h-1v-5.9h1v0.8c0.2-0.3,0.8-1.1,1.9-1.1
		c0.3,0,0.7,0.1,1,0.2c0.5,0.3,0.6,0.7,0.7,0.9c0.1-0.2,0.3-0.4,0.6-0.7c0.5-0.4,1.1-0.5,1.4-0.5c0.8,0,1.2,0.3,1.4,0.7
		c0.2,0.4,0.3,1,0.3,1.7V399.9z"/>
	<path class="st2" d="M141.3,396.4c-0.1-1.5-1.1-1.8-1.7-1.8c-0.7,0-1.6,0.5-1.8,1.8H141.3z M137.7,397c0,0.3,0.1,1,0.5,1.6
		c0.6,0.8,1.4,0.8,1.6,0.8c1.3,0,1.8-0.9,2-1.2c0.1,0,0.2,0.1,0.3,0.1c-0.1,0.4-0.6,1.9-2.6,1.9c-1.6,0-3-1.1-3-3.2
		c0-2,1.4-3.2,2.9-3.2c0.8,0,1.4,0.3,1.8,0.7c0.9,0.8,0.9,2.1,0.9,2.5H137.7z"/>
	<path class="st2" d="M149.5,399.9h-1v-3.3c0-0.6,0-0.9-0.1-1.3c-0.2-0.6-0.8-0.8-1.2-0.8c-0.6,0-1.2,0.3-1.6,1v4.4h-1v-5.9h1v0.8
		c0.2-0.3,0.8-1.1,2-1.1c0.9,0,1.2,0.3,1.4,0.4c0.5,0.5,0.5,1,0.5,1.6V399.9z"/>
	<path class="st2" d="M153.4,398.1c0,0.8,0,1.5,0.8,1.5c0.3,0,0.5-0.1,0.7-0.2c0,0.1,0.1,0.2,0.2,0.3c-0.2,0.2-0.6,0.5-1.3,0.5
		c-0.5,0-0.8-0.2-1-0.3c-0.5-0.3-0.5-0.8-0.5-1.5v-3.7h-0.8v-0.7h0.8v-1.6h1.1v1.6h1.2v0.7h-1.2V398.1z"/>
	<path class="st2" d="M165.9,396.9l-1.2-2.7c-0.2-0.3-0.2-0.6-0.2-0.7c-0.1,0.3-0.1,0.3-0.2,0.7l-1.3,2.8H165.9z M168.5,399.9h-1.2
		l-1.1-2.3h-3.7l-1.1,2.3h-1l3.8-8.2h0.3L168.5,399.9z"/>
	<path class="st2" d="M175.3,394.1v5.9h-1.1v-0.7c-0.2,0.3-0.7,1-1.8,1c-0.7,0-1.3-0.3-1.6-0.7c-0.3-0.4-0.4-0.9-0.4-1.6v-3.9h1.1
		v3.4c0,0.6,0,1,0.2,1.3c0.2,0.3,0.5,0.6,1.1,0.6c0.1,0,0.9,0,1.5-0.8v-4.6H175.3z"/>
	<path class="st2" d="M179.2,398.1c0,0.8,0,1.5,0.8,1.5c0.3,0,0.5-0.1,0.7-0.2c0,0.1,0.1,0.2,0.2,0.3c-0.2,0.2-0.6,0.5-1.3,0.5
		c-0.5,0-0.8-0.2-1-0.3c-0.5-0.3-0.5-0.8-0.5-1.5v-3.7h-0.8v-0.7h0.8v-1.6h1.1v1.6h1.2v0.7h-1.2V398.1z"/>
	<path class="st2" d="M187.6,399.9h-1.1v-3.8c0-0.6,0-1.6-1.2-1.6c-0.5,0-0.8,0.2-1,0.3c-0.3,0.2-0.7,0.7-0.7,0.7v4.3h-1.1v-8.2h1.1
		v3.2c0.3-0.4,0.9-1.1,2.1-1.1c0.5,0,0.9,0.1,1.3,0.5c0.5,0.5,0.5,1,0.5,1.5V399.9z"/>
	<path class="st2" d="M192.9,394.5c-1.3,0-1.7,1.3-1.7,2.5c0,0.8,0.1,1.3,0.2,1.5c0.3,0.8,0.9,1.1,1.5,1.1c0.9,0,1.7-0.7,1.7-2.6
		C194.6,395.6,194.1,394.5,192.9,394.5 M195.1,399.2c-0.3,0.4-1,1-2.3,1c-0.5,0-1.2-0.1-1.9-0.6c-0.9-0.8-0.9-1.9-0.9-2.5
		c0-2.3,1.3-3.3,2.9-3.3c1.7,0,2.8,1.3,2.8,3.1C195.7,397.9,195.5,398.7,195.1,399.2"/>
	<path class="st2" d="M199.3,399.9h-1.1v-5.9h1.1v0.8c0.2-0.3,0.7-1,1.5-1c0.3,0,0.5,0.1,0.6,0.1v0.9c-0.2-0.1-0.5-0.2-0.9-0.2
		c-0.7,0-1.1,0.5-1.2,0.7V399.9z"/>
	<path class="st2" d="M204.5,399.9h-1.1V394h1.1V399.9z M204,391.7c0.4,0,0.6,0.3,0.6,0.6c0,0.5-0.4,0.6-0.6,0.6
		c-0.3,0-0.6-0.2-0.6-0.6C203.4,392,203.7,391.7,204,391.7"/>
	<path class="st2" d="M208.4,398.1c0,0.8,0,1.5,0.8,1.5c0.3,0,0.5-0.1,0.7-0.2c0,0.1,0.1,0.2,0.2,0.3c-0.2,0.2-0.6,0.5-1.3,0.5
		c-0.5,0-0.8-0.2-1-0.3c-0.5-0.3-0.5-0.8-0.5-1.5v-3.7h-0.8v-0.7h0.8v-1.6h1.1v1.6h1.2v0.7h-1.2V398.1z"/>
	<path class="st2" d="M216.6,394.1l-2.6,5.8c-0.7,1.6-1.5,2.5-3,2.4V402c1-0.3,1.5-0.9,2.3-2.6l-2.3-5.3h1.2l1.7,4.1l1.8-4.1H216.6z
		"/>
	<path class="st2" d="M25,377.7c0,0.4-0.2,0.6-0.6,0.6c-0.4,0-0.7-0.2-0.7-0.6c0-0.4,0.2-0.6,0.7-0.6C24.7,377.1,25,377.4,25,377.7
		 M23.1,377.7c0,0.4-0.2,0.6-0.7,0.6c-0.4,0-0.7-0.2-0.7-0.6c0-0.4,0.2-0.6,0.7-0.6C22.8,377.1,23.1,377.4,23.1,377.7 M24.2,385.1
		l-0.1-4.2c-0.4,0-0.7,0-1,0c-0.6,0-1.1,0.2-1.5,0.6c-0.4,0.4-0.6,1-0.6,1.6c0,1.5,0.6,2.2,1.7,2.2
		C23.2,385.4,23.7,385.3,24.2,385.1 M27.2,386.4h-1c-0.5,0-0.9-0.1-1.2-0.3c-0.3-0.2-0.5-0.3-0.6-0.5c-0.5,0.3-1.2,0.5-2,0.5
		c-1.4,0-2.3-1-2.3-2.7c0-0.9,0.3-1.6,0.9-2.1c0.6-0.5,1.4-0.8,2.3-0.8h0.8l-0.1-0.8c0.5-0.1,0.9-0.2,1.2-0.3v4.8
		c0,1,0.5,1.5,1.4,1.5h0.6V386.4z"/>
	<rect x="26.8" y="385.8" class="st2" width="2" height="0.7"/>
	<rect x="28.3" y="385.8" class="st2" width="2" height="0.7"/>
	<rect x="29.9" y="385.8" class="st2" width="2" height="0.7"/>
	<rect x="31.4" y="385.8" class="st2" width="2" height="0.7"/>
	<rect x="33" y="385.8" class="st2" width="2" height="0.7"/>
	<rect x="34.5" y="385.8" class="st2" width="2" height="0.7"/>
	<rect x="36" y="385.8" class="st2" width="2" height="0.7"/>
	<rect x="37.6" y="385.8" class="st2" width="2" height="0.7"/>
	<path class="st2" d="M47,386.4h-7.9v-0.7l6.6,0c-0.3-0.9-0.8-1.9-1.6-3c-0.9-1.3-1.8-2-2.6-2c-0.5,0-1,0.4-1,1.1
		c0,0.2,0.1,0.5,0.2,0.8l-0.8,0.1c0.1-1.6,1-2.6,2.2-2.6c1,0,2.1,0.8,3.2,2.4C46.4,384.2,46.9,385.4,47,386.4"/>
	<path class="st2" d="M52.2,386.4h-1.3c-1.3,0-1.9-0.6-1.9-1.9v-5.1l-0.2-1.6l1.1-0.2v6.8c0,1,0.5,1.5,1.4,1.5h0.9V386.4z"/>
	<rect x="51.8" y="385.8" class="st2" width="2" height="0.7"/>
	<rect x="53.4" y="385.8" class="st2" width="2" height="0.7"/>
	<rect x="54.9" y="385.8" class="st2" width="2" height="0.7"/>
	<path class="st2" d="M59.9,388.9c0,0.4-0.2,0.6-0.7,0.6c-0.4,0-0.7-0.2-0.7-0.6c0-0.4,0.2-0.6,0.7-0.6
		C59.6,388.3,59.9,388.6,59.9,388.9 M57.9,388.9c0,0.4-0.2,0.6-0.7,0.6c-0.4,0-0.7-0.2-0.7-0.6c0-0.4,0.2-0.6,0.7-0.6
		C57.6,388.3,57.9,388.6,57.9,388.9 M61.8,386.4h-0.9c-0.6,0-1.1-0.2-1.5-0.6c-0.3,0.4-0.8,0.6-1.4,0.6h-1.6v-0.7h1.2
		c0.9,0,1.4-0.5,1.4-1.5v-1.7l-0.2-1.7l1.1-0.3v3.7c0,1,0.4,1.5,1.4,1.5h0.6V386.4z"/>
	<rect x="61.4" y="385.8" class="st2" width="2" height="0.7"/>
	<rect x="63" y="385.8" class="st2" width="2" height="0.7"/>
	<rect x="64.5" y="385.8" class="st2" width="2" height="0.7"/>
	<path class="st2" d="M79.2,386.4h-0.9c-0.7,0-1.1-0.2-1.5-0.6c-0.3,0.4-0.8,0.6-1.4,0.6c-0.8,0-1.5-0.4-2.1-1.1
		c-0.3,0.8-0.9,1.1-1.8,1.1c-0.8,0-1.4-0.3-2-1c-0.1,0.2-0.2,0.4-0.4,0.5c-0.3,0.3-0.8,0.5-1.4,0.5h-1.7v-0.7h1.4
		c0.9,0,1.4-0.5,1.4-1.5l0-2.9l0.9-0.2v3.5c0,0.1,0,0.2,0,0.3c0.5,0.5,1,0.7,1.5,0.7c0.9,0,1.4-0.5,1.4-1.5v-2.9l0.9-0.2v3.7
		c0.5,0.6,1.1,0.8,1.6,0.8c0.9,0,1.3-0.5,1.3-1.5v-1.7l-0.3-1.7l1.1-0.3v3.8c0,1,0.5,1.5,1.4,1.5h0.6V386.4z"/>
	<rect x="78.8" y="385.8" class="st2" width="2" height="0.7"/>
	<rect x="80.4" y="385.8" class="st2" width="2" height="0.7"/>
	<rect x="81.9" y="385.8" class="st2" width="2" height="0.7"/>
	<rect x="83.5" y="385.8" class="st2" width="2" height="0.7"/>
	<rect x="85" y="385.8" class="st2" width="2" height="0.7"/>
	<rect x="86.6" y="385.8" class="st2" width="2" height="0.7"/>
	<rect x="88.1" y="385.8" class="st2" width="2" height="0.7"/>
	<rect x="89.6" y="385.8" class="st2" width="2" height="0.7"/>
	<rect x="91.2" y="385.8" class="st2" width="2" height="0.7"/>
	<path class="st2" d="M97.1,384.5c0,1.2-0.7,1.9-1.9,1.9h-2.5v-0.7h2.1c0.9,0,1.4-0.5,1.4-1.5v-4.8l-0.2-1.7l1.1-0.3V384.5z"/>
	<polygon class="st2" points="100.1,377.5 99.9,379.1 99.9,386.4 99,386.4 99,379.1 98.8,377.6 	"/>
	<path class="st2" d="M113.8,377.7c0,0.4-0.2,0.6-0.6,0.6c-0.4,0-0.7-0.2-0.7-0.6c0-0.4,0.2-0.6,0.7-0.6
		C113.5,377.1,113.8,377.4,113.8,377.7 M111.9,377.7c0,0.4-0.2,0.6-0.7,0.6c-0.4,0-0.7-0.2-0.7-0.6c0-0.4,0.2-0.6,0.7-0.6
		C111.6,377.1,111.9,377.4,111.9,377.7 M113,385.1l-0.1-4.2c-0.4,0-0.7,0-1,0c-0.6,0-1.1,0.2-1.5,0.6c-0.4,0.4-0.6,1-0.6,1.6
		c0,1.5,0.6,2.2,1.7,2.2C112,385.4,112.5,385.3,113,385.1 M116,386.4h-1c-0.5,0-0.9-0.1-1.2-0.3c-0.3-0.2-0.5-0.3-0.6-0.5
		c-0.5,0.3-1.2,0.5-2,0.5c-1.4,0-2.3-1-2.3-2.7c0-0.9,0.3-1.6,0.9-2.1c0.6-0.5,1.4-0.8,2.3-0.8h0.8l-0.1-0.8
		c0.5-0.1,0.9-0.2,1.2-0.3v4.8c0,1,0.5,1.5,1.4,1.5h0.6V386.4z"/>
	<rect x="115.6" y="385.8" class="st2" width="2" height="0.7"/>
	<rect x="117.1" y="385.8" class="st2" width="2" height="0.7"/>
	<rect x="118.7" y="385.8" class="st2" width="2" height="0.7"/>
	<path class="st2" d="M123.6,388.9c0,0.4-0.2,0.6-0.7,0.6c-0.4,0-0.7-0.2-0.7-0.6c0-0.4,0.2-0.6,0.7-0.6
		C123.3,388.3,123.6,388.6,123.6,388.9 M121.7,388.9c0,0.4-0.2,0.6-0.7,0.6c-0.4,0-0.7-0.2-0.7-0.6c0-0.4,0.2-0.6,0.7-0.6
		C121.4,388.3,121.7,388.6,121.7,388.9 M125.6,386.4h-0.9c-0.6,0-1.1-0.2-1.5-0.6c-0.3,0.4-0.8,0.6-1.4,0.6h-1.6v-0.7h1.2
		c0.9,0,1.4-0.5,1.4-1.5v-1.7l-0.2-1.7l1.1-0.3v3.7c0,1,0.4,1.5,1.4,1.5h0.6V386.4z"/>
	<rect x="125.2" y="385.8" class="st2" width="2" height="0.7"/>
	<rect x="126.7" y="385.8" class="st2" width="2" height="0.7"/>
	<rect x="128.3" y="385.8" class="st2" width="2" height="0.7"/>
	<rect x="129.8" y="385.8" class="st2" width="2" height="0.7"/>
	<rect x="131.4" y="385.8" class="st2" width="2" height="0.7"/>
	<path class="st2" d="M139.3,385.7v-2.9l-0.1-1.1c-0.4-0.1-0.7-0.2-1-0.2c-0.7,0-1.3,0.3-1.7,0.8c-0.3,0.5-0.5,1.1-0.5,1.8
		c0,1.4,0.6,2.3,1.6,2.3C138.3,386.6,138.8,386.3,139.3,385.7 M142.5,386.4h-1.2c-0.6,0-1-0.2-1.5-0.6c-0.6,0.9-1.6,1.5-2.5,1.5
		c-0.8,0-1.5-0.4-1.9-1.3c-0.3,0.3-0.7,0.4-1.2,0.4h-1.2v-0.7h0.8c0.9,0,1.3-0.4,1.3-1.2c0.1-2.1,1.4-3.4,3.4-3.4
		c0.7,0,1.3,0.1,1.8,0.3l-0.1,1.3v1.5c0,1,0.4,1.5,1.4,1.5h0.9V386.4z"/>
	<rect x="142.1" y="385.8" class="st2" width="2" height="0.7"/>
	<rect x="143.7" y="385.8" class="st2" width="2" height="0.7"/>
	<rect x="145.2" y="385.8" class="st2" width="2" height="0.7"/>
	<path class="st2" d="M150.3,378.1c0,0.4-0.2,0.6-0.7,0.6c-0.4,0-0.7-0.2-0.7-0.6s0.2-0.6,0.7-0.6
		C150,377.5,150.3,377.8,150.3,378.1 M152.1,386.4h-0.9c-0.6,0-1.1-0.2-1.5-0.6c-0.3,0.4-0.8,0.6-1.4,0.6h-1.6v-0.7h1.2
		c0.9,0,1.4-0.5,1.4-1.5v-1.7l-0.2-1.7l1.1-0.3v3.7c0,1,0.4,1.5,1.4,1.5h0.6V386.4z"/>
	<rect x="151.7" y="385.8" class="st2" width="2" height="0.7"/>
	<rect x="153.3" y="385.8" class="st2" width="2" height="0.7"/>
	<rect x="154.8" y="385.8" class="st2" width="2" height="0.7"/>
	<path class="st2" d="M160.1,378.1c0,0.4-0.2,0.6-0.7,0.6c-0.4,0-0.6-0.2-0.6-0.6s0.2-0.6,0.6-0.6
		C159.8,377.5,160.1,377.8,160.1,378.1 M158.1,378.1c0,0.4-0.2,0.6-0.7,0.6c-0.4,0-0.7-0.2-0.7-0.6s0.2-0.6,0.7-0.6
		C157.8,377.5,158.1,377.8,158.1,378.1 M160.2,384.5c0,1.2-0.7,1.9-1.9,1.9h-2v-0.7h1.6c0.9,0,1.4-0.5,1.4-1.5v-1.7l-0.2-1.7
		l1.1-0.3V384.5z"/>
	<path class="st2" d="M173.9,377.7c0,0.4-0.2,0.6-0.6,0.6c-0.4,0-0.7-0.2-0.7-0.6c0-0.4,0.2-0.6,0.7-0.6
		C173.6,377.1,173.9,377.4,173.9,377.7 M172,377.7c0,0.4-0.2,0.6-0.7,0.6c-0.4,0-0.7-0.2-0.7-0.6c0-0.4,0.2-0.6,0.7-0.6
		C171.7,377.1,172,377.4,172,377.7 M173.2,385.1l-0.1-4.2c-0.4,0-0.7,0-1,0c-0.6,0-1.1,0.2-1.5,0.6c-0.4,0.4-0.6,1-0.6,1.6
		c0,1.5,0.6,2.2,1.7,2.2C172.1,385.4,172.6,385.3,173.2,385.1 M176.1,386.4h-1c-0.5,0-0.9-0.1-1.2-0.3c-0.3-0.2-0.5-0.3-0.6-0.5
		c-0.5,0.3-1.2,0.5-2,0.5c-1.4,0-2.3-1-2.3-2.7c0-0.9,0.3-1.6,0.9-2.1c0.6-0.5,1.4-0.8,2.3-0.8h0.8l-0.1-0.8
		c0.5-0.1,0.9-0.2,1.2-0.3v4.8c0,1,0.5,1.5,1.4,1.5h0.6V386.4z"/>
	<rect x="175.7" y="385.8" class="st2" width="2" height="0.7"/>
	<rect x="177.3" y="385.8" class="st2" width="2" height="0.7"/>
	<rect x="178.8" y="385.8" class="st2" width="2" height="0.7"/>
	<path class="st2" d="M185.3,379.7h-4.2v-0.4h0.8v-0.5c0-1.2,0.5-1.8,1.6-1.8c0.5,0,0.9,0.2,1.3,0.5l0,0l-0.2,0.2h0
		c-0.3-0.2-0.5-0.3-0.8-0.3c-0.9,0-1.3,0.5-1.3,1.5l0,0.4h1.5l0.6-0.1L185.3,379.7z M185.8,386.4h-0.9c-0.7,0-1.1-0.2-1.5-0.6
		c-0.3,0.4-0.8,0.6-1.4,0.6h-1.6v-0.7h1.2c0.9,0,1.4-0.5,1.4-1.5v-1.7l-0.3-1.7l1.1-0.3v3.7c0,1,0.5,1.5,1.4,1.5h0.6V386.4z"/>
	<rect x="185.5" y="385.8" class="st2" width="2" height="0.7"/>
	<rect x="187.1" y="385.8" class="st2" width="2" height="0.7"/>
	<rect x="188.6" y="385.8" class="st2" width="2" height="0.7"/>
	<path class="st2" d="M193.6,388.9c0,0.4-0.2,0.6-0.7,0.6c-0.4,0-0.7-0.2-0.7-0.6c0-0.4,0.2-0.6,0.7-0.6
		C193.3,388.3,193.6,388.6,193.6,388.9 M191.6,388.9c0,0.4-0.2,0.6-0.7,0.6c-0.4,0-0.7-0.2-0.7-0.6c0-0.4,0.2-0.6,0.7-0.6
		C191.3,388.3,191.6,388.6,191.6,388.9 M195.5,386.4h-0.9c-0.6,0-1.1-0.2-1.5-0.6c-0.3,0.4-0.8,0.6-1.4,0.6h-1.6v-0.7h1.2
		c0.9,0,1.4-0.5,1.4-1.5v-1.7l-0.2-1.7l1.1-0.3v3.7c0,1,0.4,1.5,1.4,1.5h0.6V386.4z"/>
	<rect x="195.1" y="385.8" class="st2" width="2" height="0.7"/>
	<rect x="196.7" y="385.8" class="st2" width="2" height="0.7"/>
	<rect x="198.2" y="385.8" class="st2" width="2" height="0.7"/>
	<rect x="199.8" y="385.8" class="st2" width="2" height="0.7"/>
	<rect x="201.3" y="385.8" class="st2" width="2" height="0.7"/>
	<rect x="202.8" y="385.8" class="st2" width="2" height="0.7"/>
	<rect x="204.4" y="385.8" class="st2" width="2" height="0.7"/>
	<rect x="205.9" y="385.8" class="st2" width="2" height="0.7"/>
	<rect x="207.5" y="385.8" class="st2" width="2" height="0.7"/>
	<path class="st2" d="M214.5,385.8v-2.4c0-0.7-0.4-1.1-1.1-1.1c-0.5,0-0.8,0.2-1.2,0.5c-0.4,0.4-0.6,0.9-0.6,1.6
		c0,1,0.3,1.3,1.3,1.3H214.5z M217.5,386.4H209v-0.7h2c-0.1-0.3-0.2-0.7-0.2-1.1c0-0.9,0.3-1.6,0.9-2.1c0.5-0.4,1-0.7,1.7-0.7
		c0.5,0,0.9,0.1,1.2,0.4c0.4,0.3,0.5,0.7,0.5,1.2l0,2.3h1.4v-2.6c0-0.7-0.3-1.2-0.9-1.5c-0.5-0.3-1.2-0.5-2.1-0.5
		c-0.9,0-1.6,0.1-2.3,0.4l0.1-0.6c0.7-0.3,1.6-0.4,2.5-0.4c1,0,1.8,0.2,2.4,0.5c0.8,0.4,1.1,1,1.1,1.8V386.4z"/>
</g>
<g id="Layer_2" class="st0">
	<path class="st1" d="M117.7,351c0.7-6.2,12.8-6.7,12.8-6.7s-6.7-0.2-12.3,1.8l-1,0.2l-0.5,4.8H117.7z"/>
	<path class="st1" d="M76.5,387.2c1.5-0.1,2.9-0.2,4.4-0.4c1.5-0.2,2.9-0.5,4.3-0.8c2.9-0.6,5.7-1.6,8.4-2.6
		c2.7-1.1,5.4-2.4,7.9-3.8c1.3-0.7,2.5-1.5,3.7-2.3c1.2-0.8,2.4-1.7,3.5-2.7c1.1-0.9,2.1-2,3.1-3c0.9-1.1,1.8-2.2,2.4-3.5
		c0.3-0.6,0.6-1.3,0.7-1.9c0.1-0.3,0.2-0.7,0.2-1c0-0.3,0.1-0.7,0.1-1.1l0.5-4.4l1.7-17.7l0,0c0-0.1,0-0.2,0.1-0.2l1.3-1.9l0.1-0.1
		c0,0,0,0,0.1-0.1c0.1-0.1,0.1-0.1,0.2-0.2c0.1-0.1,0.2-0.2,0.4-0.2c0.3-0.1,0.6-0.1,0.9,0l0.1,0l0.1,0l0.1,0.1l0.3,0.1l0.5,0.2l0,0
		c0.2,0.1,0.2,0.2,0.2,0.4l0,1.1c0,0,0,0.1,0,0c0,0,0,0.1,0,0.1c0,0,0,0,0,0c0,0,0,0.1,0.1,0.1c0,0.1,0.1,0.1,0.2,0.1l-0.1,0
		l1.4-0.2l0,0c0,0,0,0,0,0c0.1,0,0.2-0.1,0.3-0.2c0,0,0-0.1,0-0.1c0,0,0,0,0-0.1l0-0.4l0-1.4l0,0c0-0.1,0-0.1,0.1-0.2l1-1.1l0.5-0.6
		c0.1-0.1,0.2-0.2,0.3-0.3c0.1-0.1,0.3-0.2,0.4-0.3c0.3-0.1,0.7-0.1,0.9,0.1c0.1,0,0.1,0.1,0.2,0.1l0.1,0.1l0.3,0.2l1.2,1
		c0.1,0,0.1,0.1,0.1,0.2l0,1.9l0,0.1v0c0,0,0,0,0,0c0,0,0,0,0,0c0,0,0,0.1,0,0.1c0,0.1,0.1,0.2,0.2,0.2c0,0,0.1,0,0.2,0l0.2,0l0.5,0
		l0.5,0l0.2,0c0.1,0,0.1,0,0.1,0c0.1,0,0.2-0.1,0.2-0.2c0-0.1,0-0.2,0-0.3l0-1.9c0-0.1,0-0.2,0.1-0.2l0,0l1.1-1l0.3-0.2l0.1-0.1
		l0.1-0.1c0.1-0.1,0.2-0.1,0.2-0.1c0.3-0.1,0.6-0.2,0.9-0.1c0.2,0,0.3,0.1,0.4,0.2c0.1,0.1,0.1,0.1,0.2,0.2l0.1,0.1l0.5,0.5l1,1.1
		c0.1,0.1,0.1,0.2,0.1,0.2l0,0l0,1.4l0,0.4v0c0,0,0,0,0,0l0,0c0,0,0,0,0,0c0,0,0,0,0,0.1c0,0.1,0.1,0.1,0.2,0.1c0,0,0,0,0,0l0,0
		l1.4,0.2l-0.1,0c0,0,0.1,0,0.1-0.1c0,0,0,0,0-0.1c0,0,0,0,0,0l0-0.1l0-1.1c0-0.2,0.1-0.4,0.3-0.5l0,0l0.5-0.2l0.3-0.1l0.1-0.1
		l0.1,0l0.1,0c0.2-0.1,0.3-0.1,0.5-0.1c0.2,0,0.3,0,0.5,0.1c0.2,0.1,0.3,0.1,0.4,0.2c0.1,0.1,0.1,0.1,0.2,0.2
		c0.1,0.1,0.1,0.1,0.1,0.2c0.4,0.6,0.9,1.3,1.3,1.9c0.2,0.3,0.1,0.7-0.2,0.9c-0.1,0.1-0.2,0.1-0.3,0.1h0h0l0.6-0.7l0.7,9.3l0.4,4.7
		c0.1,1.6,0.2,3.1,0.4,4.7l0.2,2.3c0.1,0.8,0.1,1.6,0.2,2.3l0.1,0.6l0.1,0.5c0,0.2,0.1,0.4,0.1,0.5c0.1,0.2,0.1,0.4,0.2,0.5
		c0.2,0.7,0.6,1.4,0.9,2.1c0.4,0.7,0.8,1.3,1.3,1.9c0.5,0.6,1,1.2,1.5,1.7c0.5,0.6,1.1,1.1,1.7,1.6c0.6,0.5,1.2,1,1.8,1.5
		c0,0,0,0.1,0,0.1c0,0-0.1,0-0.1,0c-0.6-0.5-1.3-0.9-1.9-1.4c-0.6-0.5-1.2-1-1.8-1.5c-0.6-0.5-1.2-1.1-1.7-1.7
		c-0.5-0.6-1-1.2-1.5-1.9c-0.4-0.7-0.8-1.4-1.1-2.2c-0.1-0.2-0.1-0.4-0.2-0.6c-0.1-0.2-0.1-0.4-0.2-0.6l-0.1-0.6l-0.1-0.6
		c-0.1-0.8-0.2-1.6-0.3-2.3c-0.1-0.8-0.2-1.6-0.3-2.3c-0.2-1.6-0.3-3.1-0.5-4.7l-0.4-4.7c-0.1-1.6-0.2-3.1-0.3-4.7
		c-0.1-1.6-0.2-3.1-0.3-4.7l0,0c0-0.3,0.3-0.6,0.6-0.7c0,0,0,0,0,0h0l-0.5,1c-0.4-0.7-0.8-1.3-1.2-2l0-0.1c0,0,0,0,0,0
		c0,0,0,0-0.1,0c0,0-0.1,0-0.1,0c0,0-0.1,0-0.1,0l0,0l0,0l0,0l0,0h0c0,0,0,0,0,0l0,0l-0.1,0l-0.1,0.1l-0.3,0.1l-0.5,0.2l0.3-0.5
		l0,1.1c0,0,0,0.1,0,0.2c0,0.1,0,0.2-0.1,0.2c-0.1,0.2-0.1,0.3-0.3,0.4c-0.2,0.2-0.5,0.4-0.9,0.4l0,0c0,0,0,0-0.1,0l-1.4-0.3l0.1,0
		c-0.4,0-0.8-0.2-1-0.6c0-0.1-0.1-0.2-0.1-0.3c0,0,0-0.1,0-0.2l0,0v-0.1l0-0.4l0-1.4l0.1,0.3l-1-1.1l-0.5-0.6l-0.1-0.1
		c0,0-0.1-0.1-0.1-0.1c-0.1-0.1-0.1-0.1-0.2-0.1c-0.2-0.1-0.4-0.1-0.5,0c0,0-0.1,0-0.1,0.1l-0.1,0.1l-0.1,0l-0.3,0.2l-1.2,0.9
		l0.1-0.2l0,1.9c0,0.1,0,0.4-0.1,0.6c-0.1,0.2-0.3,0.3-0.5,0.4c-0.1,0-0.2,0.1-0.3,0.1l-0.2,0l-0.5,0l-0.5,0l-0.2,0
		c-0.1,0-0.2,0-0.3-0.1c-0.2-0.1-0.4-0.2-0.5-0.4c-0.1-0.1-0.1-0.2-0.1-0.3c0,0,0,0,0-0.1l0-0.1l0-0.1l0-1.9l0.1,0.2l-1.2-1
		l-0.3-0.2l-0.1-0.1c0,0-0.1-0.1-0.1-0.1c-0.2-0.1-0.4-0.1-0.5,0c-0.1,0-0.2,0.1-0.2,0.1c-0.1,0.1-0.2,0.2-0.2,0.3l-0.5,0.6l-1,1.1
		l0.1-0.2l0,1.4l0,0.4c0,0.1,0,0.2,0,0.2c0,0.1,0,0.2-0.1,0.2c-0.2,0.3-0.5,0.5-0.9,0.5l0.1,0l-1.4,0.3c0,0,0,0,0,0l0,0
		c-0.3,0-0.6-0.1-0.8-0.3c-0.1-0.1-0.2-0.2-0.2-0.4c0-0.1,0-0.1-0.1-0.2c0-0.1,0-0.1,0-0.1l0-0.1l0-1.1l0.3,0.4l-0.5-0.2l-0.3-0.1
		l-0.1-0.1l-0.1,0l0,0c-0.1,0-0.2,0-0.3,0c0,0-0.1,0-0.1,0.1c0,0,0,0,0,0c0,0,0,0,0,0l0,0c0,0,0,0,0,0l0,0l0,0l-1.2,2l0.1-0.2
		c-0.1,3-0.4,5.9-0.5,8.9c-0.2,3-0.4,5.9-0.7,8.9l-0.4,4.4c0,0.4-0.1,0.7-0.1,1.1c0,0.4-0.1,0.8-0.2,1.2c-0.2,0.8-0.5,1.5-0.8,2.2
		c-0.7,1.4-1.6,2.7-2.6,3.8c-1,1.2-2.1,2.2-3.3,3.2c-2.3,1.9-4.8,3.6-7.5,5c-1.3,0.7-2.7,1.4-4,2c-1.4,0.6-2.8,1.2-4.2,1.7
		c-2.8,1-5.7,1.8-8.6,2.3c-1.5,0.3-2.9,0.4-4.4,0.6c-1.5,0.1-3,0.1-4.5,0.1C76.4,387.4,76.4,387.3,76.5,387.2
		C76.4,387.2,76.4,387.2,76.5,387.2"/>
	<path class="st1" d="M128.9,362.5l0-7.2c1.1-2,2.1-1.3,2.7-0.4c0.6,0.9,0.8,5,0.8,5v-4.2c0-1.3-1-3.1-3.2-4c-2,1.1-2.7,3.9-2.7,3.9
		v7.7h5.9L128.9,362.5z"/>
	<path class="st2" d="M172.5,374c0,0-1.1-0.3-3.1-0.7c-2-0.4-4.9-1-8.4-1.4c-3.5-0.4-7.6-0.8-12-0.7c-2.2,0-4.5,0.1-6.7,0.3
		c-2.3,0.2-4.6,0.6-6.9,1c-2.3,0.5-4.5,1.1-6.7,1.8c-1.1,0.4-2.1,0.8-3.2,1.2c-0.5,0.2-1,0.4-1.5,0.7c-0.5,0.2-1,0.5-1.5,0.7
		c-2,1-3.9,1.9-5.7,2.8c-1.8,0.9-3.5,1.7-5.2,2.4c-1.6,0.7-3.1,1.3-4.5,1.8c-1.4,0.5-2.6,0.9-3.6,1.1c-1,0.3-1.8,0.5-2.3,0.6
		c-0.5,0.1-0.8,0.2-0.8,0.2s0.3-0.1,0.8-0.3c0.3-0.1,0.6-0.2,0.9-0.4c0.4-0.2,0.8-0.3,1.3-0.5c0.9-0.4,2.1-0.9,3.4-1.5
		c1.3-0.6,2.7-1.3,4.3-2.1c1.6-0.8,3.3-1.7,5-2.6c1.8-0.9,3.7-1.9,5.7-2.9c0.5-0.2,1-0.5,1.5-0.7c0.5-0.2,1-0.5,1.6-0.7
		c1.1-0.5,2.2-0.9,3.3-1.2c2.2-0.8,4.5-1.3,6.9-1.8c2.3-0.5,4.7-0.8,7-0.9c2.3-0.2,4.6-0.2,6.8-0.2c4.4,0.1,8.6,0.6,12,1.1
		c1.7,0.3,3.3,0.6,4.7,0.9c1.4,0.3,2.6,0.6,3.6,0.9C171.4,373.6,172.5,374,172.5,374"/>
	<path class="st2" d="M149.2,399.9h-2.4c-0.9,0-1.5,0.3-2.1,0.9c0-2.3,0-1.3,0-2.6c0-2.6-1.7-4.7-4.4-5.1c1,1,1.2,2.3,1.2,3.7v9.4
		c0,1.7,1.3,3,3.2,3.3v-7c0-0.9,0.8-1.8,1.8-1.8h1.3c1,0,1.9,0.7,1.9,1.7v10.2c0,1.7,1.1,3,2.9,3.3v-12.7
		C152.7,401.6,151.1,399.9,149.2,399.9"/>
	<path class="st2" d="M224.3,399.9h-2.4c-0.9,0-1.5,0.3-2.1,0.9c0-2.3,0-4.2,0-5.5c0-2.6-1.7-4.7-4.4-5.1c1,1,1.2,2.3,1.2,3.7v12.3
		c0,1.7,1.3,3,3.2,3.3v-7c0-0.9,0.8-1.8,1.8-1.8h1.3c1,0,1.9,0.7,1.9,1.7v10.2c0,1.7,1.1,3,2.9,3.3v-12.7
		C227.8,401.6,226.2,399.9,224.3,399.9"/>
	<path class="st2" d="M78.2,400.6c-0.8-0.4-1.5-0.7-2.5-0.6c-5.1,0.2-5.5,3.4-6.6,5.7c-1.3,2.7-2,6.3-5.8,6.2h-0.3
		c-1.1,0-2.1-1-2.1-2.1v-7.2v-2.7c0-1.6-1.5-2.9-3.2-3.1v4.1c-0.6-0.5-1.1-0.9-2-0.9h-2.5c-2,0-3.6,1.5-3.6,3.3v6.3
		c0,2.5,1.6,3.3,3.6,3.3h3.2c0.9,0,1.9-0.4,2.7-1c0.7,0.6,1.6,1,2.6,1h4.4c4.4,0,5.3-4.8,6-6.6c1.2-3.1,2.5-5.3,5.8-5.3L78.2,400.6z
		 M57.8,410.1c0,1-1.1,1.9-2.2,1.9h-0.6c-1.1,0-2.1-0.8-2.1-1.9v-7.4c0-1,0.9-1.9,2.1-1.9h0.6c1.1,0,2.2,0.8,2.2,1.9V410.1z"/>
	<path class="st2" d="M107.7,390.3c1,1,1.2,2.3,1.2,3.7c0,2.7,0,14.2,0,16.1c0,0.7-0.9,1.8-1.7,1.8h-4.7v-14.1
		c0-2.3-1.5-4.5-3.8-5.1c-0.5-0.2-0.9-0.3-1.5-0.2c-4.9,0-5.8,3.7-6.5,5.7c-1.7,4.4-2.7,7.6-4.1,11c-1.1,2.5-2.2,5.9-5.8,5.9
		c-0.1,0-0.2,0-0.2,0l-0.2,0.5c0.5,0.2,1.4,0.5,2.4,0.5c4.6,0,5.8-3.8,6.6-5.7c1.3-3.4,2.4-6.5,4.2-11.5c1.4-3.9,2.4-5.1,5.2-5.2
		c0.4,0.5,0.5,1.3,0.5,3v13.2c0,1.7,1.6,3.2,3.1,3.2h6c1.9,0,3.5-1.5,3.5-3.2v-14.2C112,392.8,110.3,390.7,107.7,390.3"/>
	<path class="st2" d="M195.9,412.8c1.8-0.3,3.2-1.7,3.2-3.4v-5.1c0-2.5-1.6-5.1-5.3-5.1c-1.6,0-2.8,0.7-3.6,1.3
		c0.3-0.1,0.7-0.1,1-0.1c2.4,0,4.7,1.6,4.7,4.2L195.9,412.8z"/>
	<path class="st2" d="M188.7,412.8c1.8-0.3,3.2-1.7,3.2-3.4v-5.1c0-2.5-1.6-5.1-5.3-5.1c-1.6,0-2.8,0.7-3.6,1.3
		c0.3-0.1,0.7-0.1,1-0.1c2.4,0,4.7,1.6,4.7,4.2L188.7,412.8z"/>
	<path class="st2" d="M181.6,404.7l0,8.2c1.8-0.3,3.2-1.7,3.2-3.4v-5.1c0-2.5-1.6-5.1-5.3-5.1C179.5,399.2,181.6,400.3,181.6,404.7"
		/>
	<path class="st2" d="M30.8,412.8c1.8-0.3,3.2-1.7,3.2-3.4v-5.7c2.5,0.7,3.9,2.8,5.1,4.8c1.1,2,2.8,7.2,7.9,7.4c1,0,1.9-0.2,2.8-0.5
		l-0.2-0.5c-3.3,0-5.2-2.3-6.8-5.9c-0.9-2.1-1.8-4.2-5.3-5.8h5.6c1.9,0,3.5-1.1,3.5-2.9v-4.5c0-1.7-1.5-3-3.3-3.1h-4.5
		c-0.8,0.1-1.4,0.2-1.7,0.8h4.3c1,0,1.9,0.7,1.9,1.6v5.4c0,1-0.8,1.7-1.9,1.8h-6.5l-1.1,0v-0.7v-6.3c0-2.6-1.7-4.7-4.3-5.1
		c1,1,1.1,2.3,1.1,3.7V412.8z"/>
	<path class="st2" d="M174.2,400v9.9c0,1.2-1,2-2.3,2l-2.8,0c-1.1,0-2.1-1-2.1-2.1v-10c0-1.6-1.5-2.9-3.2-3.1v4.1
		c-0.6-0.5-1.1-0.9-2-0.9h-2.5c-2,0-3.6,1.5-3.6,3.3v6.3c0,2.5,1.6,3.3,3.6,3.3h3.2c0.9,0,1.9-0.4,2.7-1c0.7,0.6,1.6,1,2.6,1h4.8
		c2.7,0,4.7-2.5,4.7-5v-4.5C177.4,401.7,176.1,400.2,174.2,400 M163.9,410.1c0,1-1.1,1.9-2.2,1.9H161c-1.1,0-2.1-0.8-2.1-1.9v-7.4
		c0-1,0.9-1.9,2.1-1.9h0.6c1.1,0,2.2,0.8,2.2,1.9V410.1z"/>
	<path class="st2" d="M215.6,412.4l0-0.4c-0.7,0-2.2-0.3-2.2-2l0-0.2v-10c0-1.6-1.5-2.9-3.2-3.1v4.1c-0.6-0.5-1.1-0.9-2-0.9h-2.5
		c-2,0-3.6,1.5-3.6,3.3v6.3c0,2.5,1.6,3.3,3.6,3.3h3.2c0.8,0,1.8-0.4,2.6-0.9c0,0,0.9,0.9,2.5,0.9
		C214.8,412.8,215.1,412.6,215.6,412.4 M210.3,410.1c0,1-1.1,1.9-2.2,1.9h-0.6c-1.1,0-2.1-0.8-2.1-1.9v-7.4c0-1,0.9-1.9,2.1-1.9h0.6
		c1.1,0,2.2,0.8,2.2,1.9V410.1z"/>
	<path class="st2" d="M177.2,395.3c0-0.8-0.6-1.4-1.4-1.4c-0.8,0-1.4,0.6-1.4,1.4c0,0.8,0.6,1.4,1.4,1.4
		C176.6,396.7,177.2,396.1,177.2,395.3"/>
	<path class="st2" d="M97.4,401.3c0-0.8-0.6-1.4-1.4-1.4s-1.4,0.6-1.4,1.4c0,0.8,0.6,1.4,1.4,1.4S97.4,402.1,97.4,401.3"/>
	<path class="st2" d="M132.7,410.9c0,2.6,1.7,4.7,4.4,5.1c-1-1-1.2-2.3-1.2-3.8v-6.4c0-1.5-1.4-3.4-3.6-3.4H128
		c2.6-0.8,3.5-2.7,4.2-4.4c0.8-1.7,1.7-5.1,5.7-5.1c0.1,0,0.2-0.7,0.2-0.7c-0.8-0.4-1.4-0.5-2.4-0.5c-4.7,0-5.8,3.9-6.6,5.7
		c-0.8,1.9-1.6,4-3.6,4.6c0-3.3,0-6.5,0-6.7c0-2.6-1.7-4.7-4.4-5.1c1,1,1.2,2.3,1.2,3.8v18.8c1.8-0.4,3.1-1.8,3.2-3.5c0,0,0-3,0-6.2
		c1.5,0,5,0,5.3,0c1,0,1.8,0.4,1.8,1.6V410.9z"/>
	<polygon class="st2" points="34.5,434.7 33.4,434.7 33.4,427.2 30.8,427.2 30.8,426.5 37.1,426.5 37.1,427.2 34.5,427.2 	"/>
	<path class="st2" d="M41.6,429.2c-1.3,0-1.7,1.3-1.7,2.5c0,0.8,0.1,1.3,0.2,1.5c0.3,0.8,0.9,1.1,1.5,1.1c0.9,0,1.7-0.7,1.7-2.6
		C43.4,430.4,42.8,429.2,41.6,429.2 M43.8,433.9c-0.3,0.4-1,1-2.3,1c-0.5,0-1.2-0.1-1.9-0.6c-0.9-0.8-1-1.9-1-2.5
		c0-2.3,1.3-3.3,2.9-3.3c1.7,0,2.8,1.3,2.8,3.1C44.5,432.6,44.2,433.4,43.8,433.9"/>
	<path class="st2" d="M51.9,428.8v5.9h-1.1v-0.7c-0.2,0.3-0.7,1-1.8,1c-0.7,0-1.3-0.3-1.6-0.7c-0.3-0.4-0.4-0.9-0.4-1.6v-3.9H48v3.4
		c0,0.6,0,1,0.2,1.3c0.2,0.3,0.5,0.6,1.1,0.6c0.1,0,0.9,0,1.5-0.8v-4.6H51.9z"/>
	<path class="st2" d="M55.7,434.7h-1.1v-5.9h1.1v0.8c0.2-0.3,0.7-1,1.5-1c0.3,0,0.5,0.1,0.6,0.1v0.9c-0.2-0.1-0.5-0.2-0.9-0.2
		c-0.7,0-1.1,0.5-1.2,0.7V434.7z"/>
	<path class="st2" d="M60.9,434.7h-1.1v-5.9h1.1V434.7z M60.4,426.4c0.4,0,0.6,0.3,0.6,0.6c0,0.5-0.4,0.6-0.6,0.6
		c-0.3,0-0.6-0.2-0.6-0.6C59.8,426.7,60.1,426.4,60.4,426.4"/>
	<path class="st2" d="M67.4,430.3c-0.2-0.3-0.6-1-1.7-1c-0.8,0-1.3,0.4-1.3,0.9c0,0.5,0.4,0.7,1,0.9c0,0,0.5,0.2,0.6,0.2
		c0.6,0.2,1.8,0.5,1.8,1.8c0,0.6-0.2,1-0.6,1.3c-0.5,0.4-1.1,0.5-1.7,0.5c-0.6,0-1.2-0.1-1.6-0.5c-0.6-0.5-0.7-1.1-0.8-1.3
		c0.1,0,0.2-0.1,0.3-0.1c0.1,0.2,0.2,0.4,0.5,0.6c0.4,0.3,0.9,0.5,1.5,0.5c0.8,0,1.3-0.4,1.3-1c0-0.6-0.4-0.8-0.6-0.9
		c-0.2-0.1-0.5-0.2-1.2-0.4c-0.6-0.2-1.6-0.5-1.6-1.6c0-1,0.8-1.7,2.1-1.7c0.5,0,1,0.1,1.5,0.4c0.6,0.4,0.7,1,0.7,1.2
		C67.7,430.2,67.5,430.2,67.4,430.3"/>
	<path class="st2" d="M78.5,434.7h-1V431c0-0.4,0-0.6,0-0.8c0-0.2-0.1-0.9-1-0.9c-0.8,0-1.3,0.7-1.5,0.9v4.5h-1V431
		c0-0.3,0-0.6,0-0.8c-0.1-0.9-0.9-1-1.1-1c-0.6,0-1.1,0.4-1.5,0.9v4.5h-1v-5.9h1v0.8c0.2-0.3,0.8-1.1,1.9-1.1c0.3,0,0.7,0.1,1,0.2
		c0.5,0.3,0.6,0.7,0.7,0.9c0.1-0.2,0.3-0.4,0.6-0.7c0.5-0.4,1.1-0.5,1.4-0.5c0.8,0,1.2,0.3,1.4,0.7c0.2,0.4,0.3,1,0.3,1.7V434.7z"/>
	<path class="st2" d="M87,434h1.1c1.1,0,1.7-0.1,2.3-0.5c0.5-0.3,1.3-1.2,1.3-2.8c0-1.1-0.3-1.9-0.8-2.4c-0.8-1-2-1-2.9-1H87V434z
		 M85.8,434.7v-8.2h2.7c1.2,0,2.2,0.2,3,0.9c0.8,0.6,1.3,1.8,1.3,3.1c0,1.3-0.5,2.4-1.2,3c-0.8,0.8-1.9,1.1-3.3,1.1H85.8z"/>
	<path class="st2" d="M99.7,431.1c-0.1-1.5-1.1-1.8-1.7-1.8c-0.7,0-1.6,0.5-1.8,1.8H99.7z M96.2,431.7c0,0.3,0.1,1,0.5,1.6
		c0.6,0.8,1.4,0.8,1.6,0.8c1.3,0,1.8-0.9,2-1.2c0.1,0,0.2,0.1,0.3,0.1c-0.1,0.4-0.6,1.9-2.6,1.9c-1.6,0-3-1.1-3-3.2
		c0-2,1.4-3.2,2.9-3.2c0.8,0,1.4,0.3,1.8,0.7c0.9,0.8,0.9,2.1,0.9,2.5H96.2z"/>
	<path class="st2" d="M107.8,428.8l-2.6,6h-0.4l-2.6-6h1.1l1.6,3.9c0,0,0.1,0.2,0.1,0.4c0-0.1,0-0.2,0.1-0.4l1.7-3.9H107.8z"/>
	<path class="st2" d="M114.1,431.1c-0.1-1.5-1.1-1.8-1.7-1.8c-0.7,0-1.6,0.5-1.8,1.8H114.1z M110.5,431.7c0,0.3,0.1,1,0.5,1.6
		c0.6,0.8,1.4,0.8,1.6,0.8c1.3,0,1.8-0.9,2-1.2c0.1,0,0.2,0.1,0.3,0.1c-0.1,0.4-0.6,1.9-2.6,1.9c-1.6,0-3-1.1-3-3.2
		c0-2,1.4-3.2,2.9-3.2c0.8,0,1.4,0.3,1.8,0.7c0.9,0.8,0.9,2.1,0.9,2.5H110.5z"/>
	<rect x="117.4" y="426.5" class="st2" width="1.1" height="8.2"/>
	<path class="st2" d="M123.8,429.2c-1.3,0-1.7,1.3-1.7,2.5c0,0.8,0.1,1.3,0.2,1.5c0.3,0.8,0.9,1.1,1.5,1.1c0.9,0,1.7-0.7,1.7-2.6
		C125.5,430.4,125,429.2,123.8,429.2 M126,433.9c-0.3,0.4-1,1-2.3,1c-0.5,0-1.2-0.1-1.9-0.6c-0.9-0.8-1-1.9-1-2.5
		c0-2.3,1.3-3.3,2.9-3.3c1.7,0,2.8,1.3,2.8,3.1C126.6,432.6,126.4,433.4,126,433.9"/>
	<path class="st2" d="M130.1,433.6c0.6,0.6,1.3,0.6,1.4,0.6c0.5,0,1.9-0.3,1.9-2.5c0-1.2-0.5-2.4-1.7-2.4c-0.6,0-1.1,0.3-1.6,0.8
		V433.6z M130.1,428.8v0.7c0.3-0.3,0.9-0.9,2-0.9c1.5,0,2.5,1.3,2.5,3.1c0,1.9-1,3.3-2.7,3.3c-1,0-1.5-0.5-1.8-0.8v2.8h-1v-8.2
		H130.1z"/>
	<path class="st2" d="M145.3,434.7h-1V431c0-0.4,0-0.6,0-0.8c0-0.2-0.1-0.9-1-0.9c-0.8,0-1.3,0.7-1.5,0.9v4.5h-1V431
		c0-0.3,0-0.6,0-0.8c-0.1-0.9-0.9-1-1.1-1c-0.6,0-1.1,0.4-1.5,0.9v4.5h-1v-5.9h1v0.8c0.2-0.3,0.8-1.1,1.9-1.1c0.3,0,0.7,0.1,1,0.2
		c0.5,0.3,0.6,0.7,0.7,0.9c0.1-0.2,0.3-0.4,0.6-0.7c0.5-0.4,1.1-0.5,1.4-0.5c0.8,0,1.2,0.3,1.4,0.7c0.2,0.4,0.3,1,0.3,1.7V434.7z"/>
	<path class="st2" d="M152.4,431.1c-0.1-1.5-1.1-1.8-1.7-1.8c-0.7,0-1.6,0.5-1.8,1.8H152.4z M148.9,431.7c0,0.3,0.1,1,0.5,1.6
		c0.6,0.8,1.4,0.8,1.6,0.8c1.3,0,1.8-0.9,2-1.2c0.1,0,0.2,0.1,0.3,0.1c-0.1,0.4-0.6,1.9-2.6,1.9c-1.6,0-3-1.1-3-3.2
		c0-2,1.4-3.2,2.9-3.2c0.8,0,1.4,0.3,1.8,0.7c0.9,0.8,0.9,2.1,0.9,2.5H148.9z"/>
	<path class="st2" d="M160.6,434.7h-1v-3.3c0-0.6,0-0.9-0.1-1.3c-0.2-0.6-0.8-0.8-1.2-0.8c-0.6,0-1.2,0.3-1.6,1v4.4h-1v-5.9h1v0.8
		c0.2-0.3,0.8-1.1,2-1.1c0.9,0,1.2,0.3,1.4,0.4c0.5,0.5,0.5,1,0.5,1.6V434.7z"/>
	<path class="st2" d="M164.5,432.8c0,0.8,0,1.5,0.8,1.5c0.3,0,0.5-0.1,0.7-0.2c0,0.1,0.1,0.2,0.2,0.3c-0.2,0.2-0.6,0.5-1.3,0.5
		c-0.5,0-0.8-0.2-1-0.3c-0.5-0.3-0.5-0.8-0.5-1.5v-3.7h-0.8v-0.7h0.8v-1.6h1.1v1.6h1.2v0.7h-1.2V432.8z"/>
	<path class="st2" d="M177,431.6l-1.2-2.7c-0.2-0.3-0.2-0.6-0.2-0.7c-0.1,0.3-0.1,0.3-0.2,0.7l-1.3,2.8H177z M179.6,434.7h-1.2
		l-1.1-2.3h-3.7l-1.1,2.3h-1l3.8-8.2h0.3L179.6,434.7z"/>
	<path class="st2" d="M186.5,428.8v5.9h-1.1v-0.7c-0.2,0.3-0.7,1-1.8,1c-0.7,0-1.3-0.3-1.6-0.7c-0.3-0.4-0.4-0.9-0.4-1.6v-3.9h1.1
		v3.4c0,0.6,0,1,0.2,1.3c0.2,0.3,0.5,0.6,1.1,0.6c0.1,0,0.9,0,1.5-0.8v-4.6H186.5z"/>
	<path class="st2" d="M190.4,432.8c0,0.8,0,1.5,0.8,1.5c0.3,0,0.5-0.1,0.7-0.2c0,0.1,0.1,0.2,0.2,0.3c-0.2,0.2-0.6,0.5-1.3,0.5
		c-0.5,0-0.8-0.2-1-0.3c-0.5-0.3-0.5-0.8-0.5-1.5v-3.7h-0.8v-0.7h0.8v-1.6h1.1v1.6h1.2v0.7h-1.2V432.8z"/>
	<path class="st2" d="M198.7,434.7h-1.1v-3.8c0-0.6,0-1.6-1.2-1.6c-0.5,0-0.8,0.2-0.9,0.3c-0.3,0.2-0.7,0.7-0.7,0.7v4.3h-1.1v-8.2
		h1.1v3.2c0.3-0.4,0.9-1.1,2.1-1.1c0.5,0,1,0.1,1.3,0.5c0.5,0.5,0.5,1,0.5,1.5V434.7z"/>
	<path class="st2" d="M204,429.2c-1.3,0-1.7,1.3-1.7,2.5c0,0.8,0.1,1.3,0.2,1.5c0.3,0.8,0.9,1.1,1.5,1.1c0.9,0,1.7-0.7,1.7-2.6
		C205.8,430.4,205.2,429.2,204,429.2 M206.2,433.9c-0.3,0.4-1,1-2.3,1c-0.5,0-1.2-0.1-1.9-0.6c-0.9-0.8-1-1.9-1-2.5
		c0-2.3,1.3-3.3,2.9-3.3c1.7,0,2.8,1.3,2.8,3.1C206.9,432.6,206.6,433.4,206.2,433.9"/>
	<path class="st2" d="M210.4,434.7h-1.1v-5.9h1.1v0.8c0.2-0.3,0.7-1,1.5-1c0.3,0,0.5,0.1,0.6,0.1v0.9c-0.2-0.1-0.5-0.2-0.9-0.2
		c-0.7,0-1.1,0.5-1.2,0.7V434.7z"/>
	<path class="st2" d="M215.7,434.7h-1.1v-5.9h1.1V434.7z M215.2,426.4c0.4,0,0.6,0.3,0.6,0.6c0,0.5-0.4,0.6-0.6,0.6
		c-0.3,0-0.6-0.2-0.6-0.6C214.5,426.7,214.8,426.4,215.2,426.4"/>
	<path class="st2" d="M219.6,432.8c0,0.8,0,1.5,0.8,1.5c0.3,0,0.5-0.1,0.7-0.2c0,0.1,0.1,0.2,0.2,0.3c-0.2,0.2-0.6,0.5-1.3,0.5
		c-0.5,0-0.8-0.2-1-0.3c-0.5-0.3-0.5-0.8-0.5-1.5v-3.7h-0.8v-0.7h0.8v-1.6h1.1v1.6h1.2v0.7h-1.2V432.8z"/>
	<path class="st2" d="M227.7,428.8l-2.6,5.8c-0.7,1.6-1.5,2.5-3,2.4v-0.3c1-0.3,1.5-0.9,2.3-2.6l-2.3-5.3h1.2l1.7,4.1l1.8-4.1H227.7
		z"/>
</g>
<g id="Layer_3" class="st0">
	<path class="st2" d="M202.8,247.1c0.7,0,1.3-0.5,1.4-1.1h-2.1c-0.4,0-0.8-0.3-0.8-0.7v-0.2c0-0.4,0.3-0.7,0.7-0.7h0.8
		c0.7,0,1.3-0.4,1.4-1h-1.8c-0.8,0-1.4,0.6-1.4,1.2v0.5c0,0.3,0.1,0.5,0.4,0.7h-0.1h-0.1c-1.1,0-2,0.6-2.2,1.6
		c0.4-0.3,1-0.4,1.6-0.4H202.8z"/>
	<path class="st1" d="M75.9,245.8c1.5-0.1,2.9-0.2,4.4-0.4c1.5-0.2,2.9-0.5,4.3-0.8c2.9-0.6,5.7-1.6,8.4-2.6
		c2.7-1.1,5.4-2.4,7.9-3.8c1.3-0.7,2.5-1.5,3.7-2.3c1.2-0.8,2.4-1.7,3.5-2.7c1.1-0.9,2.1-2,3.1-3c0.9-1.1,1.8-2.2,2.4-3.5
		c0.3-0.6,0.6-1.3,0.7-1.9c0.1-0.3,0.2-0.7,0.2-1c0-0.3,0.1-0.7,0.1-1.1l0.5-4.4l1.7-17.7l0,0c0-0.1,0-0.2,0.1-0.2l1.3-1.9l0.1-0.1
		c0,0,0,0,0.1-0.1c0.1-0.1,0.1-0.1,0.2-0.2c0.1-0.1,0.2-0.2,0.4-0.2c0.3-0.1,0.6-0.1,0.9,0l0.1,0l0.1,0l0.1,0.1l0.3,0.1l0.5,0.2l0,0
		c0.2,0.1,0.2,0.2,0.2,0.4l0,1.1c0,0,0,0.1,0,0c0,0,0,0.1,0,0.1c0,0,0,0,0,0c0,0,0,0.1,0.1,0.1c0.1,0.1,0.1,0.1,0.2,0.1l-0.1,0
		l1.4-0.2l0,0c0,0,0,0,0,0c0.1,0,0.2-0.1,0.3-0.2c0,0,0-0.1,0-0.1c0,0,0,0,0-0.1l0-0.4l0-1.4v0c0-0.1,0-0.1,0.1-0.2l1-1.1l0.5-0.6
		c0.1-0.1,0.2-0.2,0.3-0.3c0.1-0.1,0.3-0.2,0.4-0.3c0.3-0.1,0.7-0.1,0.9,0.1c0.1,0,0.1,0.1,0.2,0.1l0.1,0.1l0.3,0.2l1.2,1
		c0.1,0,0.1,0.1,0.1,0.2l0,1.9l0,0.1v0c0,0,0,0,0,0c0,0,0,0,0,0c0,0,0,0.1,0,0.1c0,0.1,0.1,0.2,0.2,0.2c0,0,0.1,0,0.2,0h0.2l0.5,0
		l0.5,0l0.2,0c0.1,0,0.1,0,0.1,0c0.1,0,0.2-0.1,0.2-0.2c0.1-0.1,0.1-0.2,0-0.3l0-1.9c0-0.1,0-0.2,0.1-0.2l0,0l1.1-1l0.3-0.2l0.1-0.1
		l0.1-0.1c0.1-0.1,0.2-0.1,0.2-0.1c0.3-0.1,0.6-0.2,0.9-0.1c0.2,0,0.3,0.1,0.4,0.2c0.1,0.1,0.1,0.1,0.2,0.2l0.1,0.1l0.5,0.5l1,1.1
		c0.1,0.1,0.1,0.2,0.1,0.2l0,0l0,1.4l0,0.4l0,0c0,0,0,0,0,0l0,0c0,0,0,0,0,0c0,0,0,0,0,0.1c0,0.1,0.1,0.1,0.2,0.1c0,0,0,0,0,0l0,0
		l1.4,0.2l-0.1,0c0,0,0.1,0,0.1-0.1c0,0,0,0,0-0.1c0,0,0,0,0,0l0-0.1l0-1.1c0-0.2,0.1-0.4,0.3-0.5l0,0l0.5-0.2l0.3-0.1l0.1-0.1
		l0.1,0l0.1,0c0.2-0.1,0.3-0.1,0.5-0.1c0.2,0,0.3,0,0.5,0.1c0.2,0.1,0.3,0.1,0.4,0.2c0.1,0.1,0.1,0.1,0.2,0.2
		c0.1,0.1,0.1,0.1,0.1,0.2c0.4,0.6,0.9,1.3,1.3,1.9c0.2,0.3,0.1,0.7-0.2,0.9c-0.1,0.1-0.2,0.1-0.3,0.1h0h0l0.6-0.7l0.7,9.3l0.4,4.7
		c0.1,1.6,0.2,3.1,0.4,4.7l0.2,2.3c0.1,0.8,0.1,1.6,0.2,2.3l0.1,0.6l0.1,0.5c0,0.2,0.1,0.4,0.1,0.5c0.1,0.2,0.1,0.4,0.2,0.5
		c0.2,0.7,0.6,1.4,0.9,2.1c0.4,0.7,0.8,1.3,1.3,1.9c0.5,0.6,1,1.2,1.5,1.7c0.5,0.6,1.1,1.1,1.7,1.6c0.6,0.5,1.2,1,1.8,1.5
		c0,0,0,0.1,0,0.1c0,0-0.1,0-0.1,0c-0.6-0.5-1.3-0.9-1.9-1.4c-0.6-0.5-1.2-1-1.8-1.5c-0.6-0.5-1.2-1.1-1.7-1.7
		c-0.5-0.6-1-1.2-1.5-1.9c-0.4-0.7-0.8-1.4-1.1-2.2c-0.1-0.2-0.1-0.4-0.2-0.6c-0.1-0.2-0.1-0.4-0.2-0.6l-0.1-0.6l-0.1-0.6
		c-0.1-0.8-0.2-1.6-0.3-2.3c-0.1-0.8-0.2-1.6-0.3-2.3c-0.2-1.6-0.3-3.1-0.5-4.7l-0.4-4.7c-0.1-1.6-0.2-3.1-0.3-4.7
		c-0.1-1.6-0.2-3.1-0.3-4.7v0c0-0.3,0.3-0.6,0.6-0.7c0,0,0,0,0,0h0l-0.5,1c-0.4-0.7-0.8-1.3-1.2-2l0-0.1c0,0,0,0,0,0c0,0,0,0-0.1,0
		c0,0-0.1,0-0.1,0c0,0-0.1,0-0.1,0l0,0l0,0l0,0l0,0h0c0,0,0,0,0,0l0,0l-0.1,0l-0.1,0.1l-0.3,0.1l-0.5,0.2l0.3-0.5l0,1.1
		c0,0,0,0.1,0,0.2c0,0.1,0,0.2-0.1,0.2c-0.1,0.2-0.1,0.3-0.3,0.4c-0.2,0.2-0.5,0.4-0.9,0.4h0c0,0,0,0-0.1,0l-1.4-0.3l0.1,0
		c-0.4,0-0.8-0.2-1-0.6c0-0.1-0.1-0.2-0.1-0.3c0,0,0-0.1,0-0.2l0,0v-0.1l0-0.4l0-1.4l0.1,0.3l-1-1.1l-0.5-0.6l-0.1-0.1
		c0,0-0.1-0.1-0.1-0.1c-0.1-0.1-0.1-0.1-0.2-0.1c-0.2-0.1-0.4-0.1-0.5,0c0,0-0.1,0-0.1,0.1l-0.1,0.1l-0.1,0l-0.3,0.2l-1.2,0.9
		l0.1-0.2l0,1.9c0,0.1,0,0.4-0.1,0.6c-0.1,0.2-0.3,0.3-0.5,0.4c-0.1,0-0.2,0.1-0.3,0.1l-0.2,0l-0.5,0l-0.5,0l-0.2,0
		c-0.1,0-0.2,0-0.3-0.1c-0.2-0.1-0.4-0.2-0.5-0.4c-0.1-0.1-0.1-0.2-0.1-0.3c0,0,0,0,0-0.1l0-0.1l0-0.1l0-1.9l0.1,0.2l-1.2-1
		l-0.3-0.2l-0.1-0.1c0,0-0.1-0.1-0.1-0.1c-0.2-0.1-0.4-0.1-0.5,0c-0.1,0-0.2,0.1-0.2,0.1c-0.1,0.1-0.2,0.2-0.2,0.3l-0.5,0.6l-1,1.1
		l0.1-0.2l0,1.4l0,0.4c0,0.1,0,0.2,0,0.2c0,0.1-0.1,0.2-0.1,0.2c-0.2,0.3-0.5,0.5-0.9,0.5l0.1,0l-1.4,0.3c0,0,0,0,0,0l0,0
		c-0.3,0-0.6-0.1-0.8-0.3c-0.1-0.1-0.2-0.2-0.2-0.4c0-0.1,0-0.1-0.1-0.2c0-0.1,0-0.1,0-0.1l0-0.1l0-1.1l0.3,0.4l-0.5-0.2l-0.3-0.1
		l-0.1-0.1l-0.1,0l0,0c-0.1,0-0.2,0-0.3,0c0,0-0.1,0-0.1,0.1c0,0,0,0,0,0c0,0,0,0,0,0l0,0c0,0,0,0,0,0l0,0l0,0l-1.2,2l0.1-0.2
		c-0.1,3-0.3,5.9-0.5,8.9c-0.2,3-0.4,5.9-0.7,8.9l-0.4,4.4c0,0.4-0.1,0.7-0.1,1.1c0,0.4-0.1,0.8-0.2,1.2c-0.2,0.8-0.5,1.5-0.8,2.2
		c-0.7,1.4-1.6,2.7-2.6,3.8c-1,1.2-2.1,2.2-3.3,3.2c-2.3,1.9-4.8,3.6-7.5,5c-1.3,0.7-2.7,1.4-4,2c-1.4,0.6-2.8,1.2-4.2,1.7
		c-2.8,1-5.7,1.8-8.7,2.3c-1.5,0.3-2.9,0.4-4.4,0.6c-1.5,0.1-3,0.1-4.5,0.1C75.8,246,75.8,245.9,75.9,245.8
		C75.8,245.9,75.8,245.8,75.9,245.8"/>
	<path class="st1" d="M117.2,209.6c0.7-6.2,12.8-6.7,12.8-6.7s-6.7-0.2-12.3,1.8l-1,0.2l-0.5,4.8H117.2z"/>
	<path class="st1" d="M128.5,221.2l0-7.2c1.1-2,2.1-1.3,2.7-0.4c0.6,0.9,0.8,5,0.8,5v-4.2c0-1.3-1-3.1-3.2-4c-2,1.1-2.7,3.9-2.7,3.9
		v7.7h5.9L128.5,221.2z"/>
	<path class="st2" d="M108.1,254c0-0.8-0.6-1.4-1.4-1.4c-0.8,0-1.4,0.6-1.4,1.4c0,0.8,0.6,1.4,1.4,1.4
		C107.5,255.4,108.1,254.7,108.1,254"/>
	<path class="st2" d="M123.5,254c0-2.6-1.7-4.7-4.4-5.1c1,1,1.2,2.3,1.2,3.7l0,15.5c0,0.7-0.6,2.4-2.5,2.4h-2.7
		c-1.1-0.1-2.2-1.3-2.2-2.3v-6.3c0-1.7-1.2-3.1-3-3.3h-6.4c-1.8,0-3.1,0.9-3.1,2.8l0,3.7c1.5,0,3.1-1.1,3.1-3.3c0-1.1,1.5-2,2.7-2
		h1.4c1.2,0,2.2,0.9,2.2,2v5.7c0,1.2,1.3,2.8,2.7,3.1l-30.1,0c-1.9,0-2-2.1-2-2.1v-4.7c0-1.8-1.2-3.3-3.1-3.6v8.4c0,1.2-0.4,2-1.8,2
		h-0.8c-0.8,0-2-0.4-2-2.1v-9.9c0-1.8-1.3-2.9-3.3-3.2c0,0,0,2.9,0,4.3c-0.4-0.6-2-1.2-3-1.2h-4c-6.4,0-7,3.1-8.1,5.6
		c-1.8,4.1-3.5,6.5-7.6,6.5c-0.1,0-3.4,0-3.4,0c-1.2,0-2.2-0.9-2.2-2v-9.8c0-1.7-1.4-3.1-3.2-3.4v4.2c-0.6-0.6-1.5-0.9-2.4-0.9H34
		c-2.1,0-3.8,1.6-3.8,3.5v5.7c0,1.9,1.7,3.6,3.8,3.6h2.4c1,0,2-0.4,2.9-1.1c0.7,0.7,1.7,1.1,2.8,1.1H49c4.8,0,7.7-4.2,8.5-6.6
		c1.1-3.3,2.4-5.3,5.8-5.3c-1.4,0-1.7,1.6-1.7,2.4v6.3c0,1.9,1.5,3.3,3.6,3.3h3c1,0,1.9-0.2,2.6-0.9c0.7,0.6,1.6,0.8,2.5,0.9h0.1h0
		h0c0,0,3.4,0,4-0.1c0.1,0,1.7-0.1,2.2-0.9c0,0,0,0,0,0c0.5,0.5,1,1,2,1c0,0,36.8,0.1,37.4,0.1c2.1,0,4.3-1.7,4.3-3.6V254z
		 M38.1,268.6c0,1.1-1.2,2-2.4,2h-0.2c-1.2,0-2.2-0.9-2.2-2v-7.1c0-1.1,1-2,2.2-2h0.2c1.2,0,2.4,0.9,2.4,2V268.6z M69.5,268.5
		c0,1.1-1.2,2-2.4,2H67c-1.2,0-2.2-0.9-2.2-2v-7.1c0-1.1,1-2,2.2-2h0.2c1.2,0,2.4,0.9,2.4,2V268.5z"/>
	<path class="st2" d="M227.2,268.3v-5.8c0-1.5,0.5-2.9,1.6-4c-2.9,0.4-4.7,2.7-4.7,5.4v4.6c0,1-1.2,2.1-2.3,2.1
		c-0.3,0-14.7,0-14.7,0c-0.8,0.1-1.2,0.2-1.5,0.8c0.6,0,17.6,0,17.6,0C225.5,271.4,227.2,269.8,227.2,268.3"/>
	<path class="st2" d="M203.3,263.7c0,2.3,0,1.3,0,2.6c0,2.6-1.7,4.7-4.4,5.1c1-1,1.2-2.3,1.2-3.7v-15.5c0-1.7,1.3-3,3.2-3.3v7V263.7
		z"/>
	<path class="st2" d="M80.8,279.7c0-0.8-0.6-1.4-1.4-1.4s-1.4,0.6-1.4,1.4c0,0.8,0.6,1.4,1.4,1.4S80.8,280.5,80.8,279.7"/>
	<path class="st2" d="M80.8,276c0-0.8-0.6-1.4-1.4-1.4S78,275.3,78,276c0,0.8,0.6,1.4,1.4,1.4S80.8,276.8,80.8,276"/>
	<path class="st2" d="M193.1,266c0,2.6-2.3,4.2-4.7,4.2c-0.3,0-0.7,0-1-0.1c0.8,0.6,2,1.3,3.6,1.3c3.6,0,5.3-2.6,5.3-5.1v-5.1
		c0-1.7-1.3-3.1-3.2-3.4L193.1,266z"/>
	<path class="st2" d="M186,266c0,2.6-2.3,4.2-4.7,4.2c-0.3,0-0.7,0-1-0.1c0.8,0.6,2,1.3,3.6,1.3c3.6,0,5.3-2.6,5.3-5.1v-5.1
		c0-1.7-1.3-3.1-3.2-3.4L186,266z"/>
	<path class="st2" d="M175.8,270.6c-0.6,0-35.3,0-35.3,0c-0.8,0.1-1.2,0.2-1.5,0.8l36.7,0l1.1,0c3.6,0,5.3-2.6,5.3-5.1v-5.1
		c0-1.7-1.3-3.1-3.2-3.4l0,8.2C178.8,268.3,178.2,270.6,175.8,270.6"/>
	<path class="st2" d="M130.4,263.7c0,2.3,0,1.3,0,2.6c0,2.6-1.7,4.7-4.4,5.1c1-1,1.2-2.3,1.2-3.7v-15.5c0-1.7,1.3-3,3.2-3.3v7V263.7
		z"/>
	<path class="st2" d="M35.3,252c-0.8,0-1.4,0.6-1.4,1.4c0,0.8,0.6,1.4,1.4,1.4c0.8,0,1.4-0.6,1.4-1.4C36.7,252.6,36,252,35.3,252"/>
	<path class="st2" d="M31.6,252c-0.8,0-1.4,0.6-1.4,1.4c0,0.8,0.6,1.4,1.4,1.4c0.8,0,1.4-0.6,1.4-1.4C33,252.6,32.4,252,31.6,252"/>
	<path class="st2" d="M171.9,232.6c0,0-1.1-0.3-3.1-0.7c-2-0.4-4.9-1-8.4-1.4c-3.5-0.4-7.6-0.8-12-0.7c-2.2,0-4.5,0.1-6.7,0.3
		c-2.3,0.2-4.6,0.6-6.9,1c-2.3,0.5-4.5,1.1-6.7,1.8c-1.1,0.4-2.1,0.8-3.2,1.2c-0.5,0.2-1,0.4-1.5,0.7c-0.5,0.2-1,0.5-1.5,0.7
		c-2,1-3.9,1.9-5.7,2.8c-1.8,0.9-3.5,1.7-5.2,2.4c-1.6,0.7-3.1,1.3-4.5,1.8c-1.4,0.5-2.6,0.9-3.6,1.1c-1,0.3-1.8,0.5-2.3,0.6
		c-0.5,0.1-0.8,0.2-0.8,0.2s0.3-0.1,0.8-0.3c0.3-0.1,0.6-0.2,0.9-0.4c0.4-0.2,0.8-0.3,1.3-0.5c0.9-0.4,2.1-0.9,3.4-1.5
		c1.3-0.6,2.7-1.3,4.3-2.1c1.6-0.8,3.3-1.7,5-2.6c1.8-0.9,3.7-1.9,5.7-2.9c0.5-0.2,1-0.5,1.5-0.7c0.5-0.2,1-0.5,1.6-0.7
		c1.1-0.5,2.2-0.9,3.3-1.2c2.2-0.8,4.5-1.3,6.9-1.8c2.3-0.5,4.7-0.8,7-0.9c2.3-0.2,4.6-0.2,6.8-0.2c4.4,0.1,8.6,0.6,12.1,1.1
		c1.7,0.3,3.3,0.6,4.7,0.9c1.4,0.3,2.6,0.6,3.6,0.9C170.8,232.2,171.9,232.6,171.9,232.6"/>
	<path class="st2" d="M35.7,285.3c0,0.4-0.2,0.6-0.6,0.6s-0.7-0.2-0.7-0.6c0-0.4,0.2-0.6,0.7-0.6C35.4,284.6,35.7,284.9,35.7,285.3
		 M33.7,285.3c0,0.4-0.2,0.6-0.7,0.6c-0.4,0-0.7-0.2-0.7-0.6c0-0.4,0.2-0.6,0.7-0.6C33.4,284.6,33.7,284.9,33.7,285.3 M34.9,292.7
		l-0.1-4.2c-0.4,0-0.7,0-1,0c-0.6,0-1.1,0.2-1.5,0.6c-0.4,0.4-0.6,1-0.6,1.6c0,1.5,0.6,2.2,1.7,2.2
		C33.8,292.9,34.4,292.8,34.9,292.7 M37.9,293.9h-1c-0.5,0-0.9-0.1-1.2-0.3c-0.3-0.2-0.5-0.3-0.6-0.5c-0.5,0.3-1.2,0.5-2,0.5
		c-1.4,0-2.3-1-2.3-2.7c0-0.9,0.3-1.6,0.9-2.1c0.6-0.5,1.4-0.8,2.3-0.8h0.8l-0.1-0.8c0.5-0.1,0.9-0.2,1.2-0.3v4.8
		c0,1,0.5,1.5,1.4,1.5h0.6V293.9z"/>
	<rect x="37.5" y="293.3" class="st2" width="2" height="0.7"/>
	<rect x="39" y="293.3" class="st2" width="2" height="0.7"/>
	<rect x="40.5" y="293.3" class="st2" width="2" height="0.7"/>
	<rect x="42.1" y="293.3" class="st2" width="2" height="0.7"/>
	<rect x="43.6" y="293.3" class="st2" width="2" height="0.7"/>
	<rect x="45.2" y="293.3" class="st2" width="2" height="0.7"/>
	<rect x="46.7" y="293.3" class="st2" width="2" height="0.7"/>
	<rect x="48.3" y="293.3" class="st2" width="2" height="0.7"/>
	<path class="st2" d="M57.7,293.9h-7.9v-0.7l6.6,0c-0.3-0.9-0.8-1.9-1.6-3c-0.9-1.3-1.8-2-2.6-2c-0.6,0-1,0.4-1,1.1
		c0,0.2,0.1,0.5,0.2,0.8l-0.8,0.1c0.1-1.6,1-2.6,2.2-2.6c1,0,2.1,0.8,3.2,2.4C57.1,291.7,57.6,292.9,57.7,293.9"/>
	<path class="st2" d="M62.9,293.9h-1.3c-1.3,0-1.9-0.6-1.9-1.9v-5.1l-0.2-1.6l1.1-0.2v6.8c0,1,0.5,1.5,1.4,1.5h0.9V293.9z"/>
	<rect x="62.5" y="293.3" class="st2" width="2" height="0.7"/>
	<rect x="64" y="293.3" class="st2" width="2" height="0.7"/>
	<rect x="65.6" y="293.3" class="st2" width="2" height="0.7"/>
	<path class="st2" d="M70.6,296.4c0,0.4-0.2,0.6-0.7,0.6c-0.4,0-0.7-0.2-0.7-0.6c0-0.4,0.2-0.6,0.7-0.6
		C70.3,295.8,70.6,296.1,70.6,296.4 M68.6,296.4c0,0.4-0.2,0.6-0.7,0.6c-0.4,0-0.7-0.2-0.7-0.6c0-0.4,0.2-0.6,0.7-0.6
		C68.3,295.8,68.6,296.1,68.6,296.4 M72.5,293.9h-0.9c-0.6,0-1.1-0.2-1.5-0.6c-0.3,0.4-0.8,0.6-1.4,0.6H67v-0.7h1.2
		c0.9,0,1.4-0.5,1.4-1.5v-1.7l-0.2-1.7l1.1-0.3v3.7c0,1,0.4,1.5,1.4,1.5h0.6V293.9z"/>
	<rect x="72.1" y="293.3" class="st2" width="2" height="0.7"/>
	<rect x="73.6" y="293.3" class="st2" width="2" height="0.7"/>
	<rect x="75.2" y="293.3" class="st2" width="2" height="0.7"/>
	<path class="st2" d="M89.9,293.9h-0.9c-0.7,0-1.1-0.2-1.5-0.6c-0.3,0.4-0.8,0.6-1.4,0.6c-0.8,0-1.5-0.4-2.1-1.1
		c-0.3,0.8-0.9,1.1-1.8,1.1c-0.8,0-1.4-0.3-2-1c-0.1,0.2-0.2,0.4-0.4,0.5c-0.3,0.3-0.8,0.5-1.4,0.5h-1.7v-0.7h1.4
		c0.9,0,1.4-0.5,1.4-1.5l0-2.9l0.9-0.2v3.5c0,0.1,0,0.2,0,0.3c0.5,0.5,1,0.7,1.5,0.7c0.9,0,1.4-0.5,1.4-1.5v-2.9l0.9-0.2v3.7
		c0.5,0.6,1.1,0.8,1.6,0.8c0.9,0,1.3-0.5,1.3-1.5v-1.7l-0.3-1.7l1.1-0.3v3.8c0,1,0.5,1.5,1.4,1.5h0.6V293.9z"/>
	<rect x="89.5" y="293.3" class="st2" width="2" height="0.7"/>
	<rect x="91.1" y="293.3" class="st2" width="2" height="0.7"/>
	<rect x="92.6" y="293.3" class="st2" width="2" height="0.7"/>
	<rect x="94.1" y="293.3" class="st2" width="2" height="0.7"/>
	<rect x="95.7" y="293.3" class="st2" width="2" height="0.7"/>
	<rect x="97.2" y="293.3" class="st2" width="2" height="0.7"/>
	<rect x="98.8" y="293.3" class="st2" width="2" height="0.7"/>
	<rect x="100.3" y="293.3" class="st2" width="2" height="0.7"/>
	<rect x="101.9" y="293.3" class="st2" width="2" height="0.7"/>
	<path class="st2" d="M107.8,292c0,1.2-0.7,1.9-1.9,1.9h-2.5v-0.7h2.1c0.9,0,1.4-0.5,1.4-1.5V287l-0.2-1.7l1.1-0.3V292z"/>
	<polygon class="st2" points="110.8,285 110.6,286.6 110.6,293.9 109.7,293.9 109.7,286.6 109.5,285.1 	"/>
	<path class="st2" d="M124.5,285.3c0,0.4-0.2,0.6-0.6,0.6s-0.7-0.2-0.7-0.6c0-0.4,0.2-0.6,0.7-0.6
		C124.2,284.6,124.5,284.9,124.5,285.3 M122.6,285.3c0,0.4-0.2,0.6-0.7,0.6c-0.4,0-0.7-0.2-0.7-0.6c0-0.4,0.2-0.6,0.7-0.6
		C122.3,284.6,122.6,284.9,122.6,285.3 M123.7,292.7l-0.1-4.2c-0.4,0-0.7,0-1,0c-0.6,0-1.1,0.2-1.5,0.6c-0.4,0.4-0.6,1-0.6,1.6
		c0,1.5,0.6,2.2,1.7,2.2C122.6,292.9,123.2,292.8,123.7,292.7 M126.7,293.9h-1c-0.5,0-0.9-0.1-1.2-0.3c-0.3-0.2-0.5-0.3-0.6-0.5
		c-0.5,0.3-1.2,0.5-2,0.5c-1.4,0-2.3-1-2.3-2.7c0-0.9,0.3-1.6,0.9-2.1c0.6-0.5,1.4-0.8,2.3-0.8h0.8l-0.1-0.8
		c0.5-0.1,0.9-0.2,1.2-0.3v4.8c0,1,0.5,1.5,1.4,1.5h0.6V293.9z"/>
	<rect x="126.3" y="293.3" class="st2" width="2" height="0.7"/>
	<rect x="127.8" y="293.3" class="st2" width="2" height="0.7"/>
	<rect x="129.4" y="293.3" class="st2" width="2" height="0.7"/>
	<path class="st2" d="M134.3,296.4c0,0.4-0.2,0.6-0.7,0.6c-0.4,0-0.7-0.2-0.7-0.6c0-0.4,0.2-0.6,0.7-0.6
		C134,295.8,134.3,296.1,134.3,296.4 M132.4,296.4c0,0.4-0.2,0.6-0.7,0.6c-0.4,0-0.7-0.2-0.7-0.6c0-0.4,0.2-0.6,0.7-0.6
		C132,295.8,132.4,296.1,132.4,296.4 M136.2,293.9h-0.9c-0.6,0-1.1-0.2-1.5-0.6c-0.3,0.4-0.8,0.6-1.4,0.6h-1.6v-0.7h1.2
		c0.9,0,1.4-0.5,1.4-1.5v-1.7l-0.2-1.7l1.1-0.3v3.7c0,1,0.4,1.5,1.4,1.5h0.6V293.9z"/>
	<rect x="135.9" y="293.3" class="st2" width="2" height="0.7"/>
	<rect x="137.4" y="293.3" class="st2" width="2" height="0.7"/>
	<rect x="139" y="293.3" class="st2" width="2" height="0.7"/>
	<rect x="140.5" y="293.3" class="st2" width="2" height="0.7"/>
	<rect x="142" y="293.3" class="st2" width="2" height="0.7"/>
	<path class="st2" d="M150,293.2v-2.9l-0.1-1.1c-0.4-0.1-0.7-0.2-1-0.2c-0.7,0-1.3,0.3-1.7,0.8c-0.3,0.5-0.5,1.1-0.5,1.8
		c0,1.4,0.6,2.3,1.6,2.3C148.9,294.1,149.5,293.8,150,293.2 M153.2,293.9h-1.2c-0.6,0-1-0.2-1.5-0.6c-0.6,0.9-1.6,1.5-2.5,1.5
		c-0.8,0-1.5-0.4-1.9-1.3c-0.3,0.3-0.7,0.4-1.2,0.4h-1.2v-0.7h0.8c0.9,0,1.3-0.4,1.3-1.2c0.1-2.1,1.4-3.4,3.4-3.4
		c0.7,0,1.3,0.1,1.8,0.3l-0.1,1.3v1.5c0,1,0.4,1.5,1.4,1.5h0.9V293.9z"/>
	<rect x="152.8" y="293.3" class="st2" width="2" height="0.7"/>
	<rect x="154.3" y="293.3" class="st2" width="2" height="0.7"/>
	<rect x="155.9" y="293.3" class="st2" width="2" height="0.7"/>
	<path class="st2" d="M160.9,285.6c0,0.4-0.2,0.6-0.7,0.6c-0.4,0-0.7-0.2-0.7-0.6s0.2-0.6,0.7-0.6
		C160.6,285,160.9,285.3,160.9,285.6 M162.8,293.9h-0.9c-0.6,0-1.1-0.2-1.5-0.6c-0.3,0.4-0.8,0.6-1.4,0.6h-1.6v-0.7h1.2
		c0.9,0,1.4-0.5,1.4-1.5v-1.7l-0.2-1.7l1.1-0.3v3.7c0,1,0.4,1.5,1.4,1.5h0.6V293.9z"/>
	<rect x="162.4" y="293.3" class="st2" width="2" height="0.7"/>
	<rect x="163.9" y="293.3" class="st2" width="2" height="0.7"/>
	<rect x="165.5" y="293.3" class="st2" width="2" height="0.7"/>
	<path class="st2" d="M170.8,285.6c0,0.4-0.2,0.6-0.7,0.6c-0.4,0-0.6-0.2-0.6-0.6s0.2-0.6,0.6-0.6
		C170.5,285,170.8,285.3,170.8,285.6 M168.8,285.6c0,0.4-0.2,0.6-0.7,0.6c-0.4,0-0.7-0.2-0.7-0.6s0.2-0.6,0.7-0.6
		C168.5,285,168.8,285.3,168.8,285.6 M170.9,292c0,1.2-0.7,1.9-1.9,1.9h-2v-0.7h1.6c0.9,0,1.4-0.5,1.4-1.5v-1.7l-0.2-1.7l1.1-0.3
		V292z"/>
	<path class="st2" d="M184.6,285.3c0,0.4-0.2,0.6-0.6,0.6c-0.4,0-0.7-0.2-0.7-0.6c0-0.4,0.2-0.6,0.7-0.6
		C184.3,284.6,184.6,284.9,184.6,285.3 M182.7,285.3c0,0.4-0.2,0.6-0.7,0.6c-0.4,0-0.7-0.2-0.7-0.6c0-0.4,0.2-0.6,0.7-0.6
		C182.4,284.6,182.7,284.9,182.7,285.3 M183.8,292.7l-0.1-4.2c-0.4,0-0.7,0-1,0c-0.6,0-1.1,0.2-1.5,0.6c-0.4,0.4-0.6,1-0.6,1.6
		c0,1.5,0.6,2.2,1.7,2.2C182.8,292.9,183.3,292.8,183.8,292.7 M186.8,293.9h-1c-0.5,0-0.9-0.1-1.2-0.3c-0.3-0.2-0.5-0.3-0.6-0.5
		c-0.5,0.3-1.2,0.5-2,0.5c-1.4,0-2.3-1-2.3-2.7c0-0.9,0.3-1.6,0.9-2.1c0.6-0.5,1.4-0.8,2.3-0.8h0.8l-0.1-0.8
		c0.5-0.1,0.9-0.2,1.2-0.3v4.8c0,1,0.5,1.5,1.4,1.5h0.6V293.9z"/>
	<rect x="186.4" y="293.3" class="st2" width="2" height="0.7"/>
	<rect x="187.9" y="293.3" class="st2" width="2" height="0.7"/>
	<rect x="189.5" y="293.3" class="st2" width="2" height="0.7"/>
	<path class="st2" d="M196,287.2h-4.2v-0.4h0.8v-0.5c0-1.2,0.5-1.8,1.6-1.8c0.5,0,0.9,0.2,1.3,0.5l0,0l-0.2,0.2h0
		c-0.3-0.2-0.5-0.3-0.8-0.3c-0.9,0-1.3,0.5-1.3,1.5l0,0.4h1.5l0.6-0.1L196,287.2z M196.5,293.9h-0.9c-0.7,0-1.1-0.2-1.5-0.6
		c-0.3,0.4-0.8,0.6-1.4,0.6h-1.6v-0.7h1.2c0.9,0,1.4-0.5,1.4-1.5v-1.7l-0.3-1.7l1.1-0.3v3.7c0,1,0.5,1.5,1.4,1.5h0.6V293.9z"/>
	<rect x="196.2" y="293.3" class="st2" width="2" height="0.7"/>
	<rect x="197.8" y="293.3" class="st2" width="2" height="0.7"/>
	<rect x="199.3" y="293.3" class="st2" width="2" height="0.7"/>
	<path class="st2" d="M204.3,296.4c0,0.4-0.2,0.6-0.7,0.6c-0.4,0-0.7-0.2-0.7-0.6c0-0.4,0.2-0.6,0.7-0.6
		C204,295.8,204.3,296.1,204.3,296.4 M202.3,296.4c0,0.4-0.2,0.6-0.7,0.6c-0.4,0-0.7-0.2-0.7-0.6c0-0.4,0.2-0.6,0.7-0.6
		C202,295.8,202.3,296.1,202.3,296.4 M206.2,293.9h-0.9c-0.6,0-1.1-0.2-1.5-0.6c-0.3,0.4-0.8,0.6-1.4,0.6h-1.6v-0.7h1.2
		c0.9,0,1.4-0.5,1.4-1.5v-1.7l-0.2-1.7l1.1-0.3v3.7c0,1,0.4,1.5,1.4,1.5h0.6V293.9z"/>
	<rect x="205.8" y="293.3" class="st2" width="2" height="0.7"/>
	<rect x="207.3" y="293.3" class="st2" width="2" height="0.7"/>
	<rect x="208.9" y="293.3" class="st2" width="2" height="0.7"/>
	<rect x="210.4" y="293.3" class="st2" width="2" height="0.7"/>
	<rect x="212" y="293.3" class="st2" width="2" height="0.7"/>
	<rect x="213.5" y="293.3" class="st2" width="2" height="0.7"/>
	<rect x="215.1" y="293.3" class="st2" width="2" height="0.7"/>
	<rect x="216.6" y="293.3" class="st2" width="2" height="0.7"/>
	<rect x="218.2" y="293.3" class="st2" width="2" height="0.7"/>
	<path class="st2" d="M225.1,293.3v-2.4c0-0.7-0.4-1.1-1.1-1.1c-0.5,0-0.8,0.2-1.2,0.5c-0.4,0.4-0.6,0.9-0.6,1.6
		c0,1,0.3,1.3,1.3,1.3H225.1z M228.2,293.9h-8.5v-0.7h2c-0.1-0.3-0.2-0.7-0.2-1.1c0-0.9,0.3-1.6,0.9-2.1c0.5-0.4,1-0.7,1.7-0.7
		c0.5,0,0.9,0.1,1.2,0.4c0.4,0.3,0.5,0.7,0.5,1.2l0,2.3h1.4v-2.6c0-0.7-0.3-1.2-0.9-1.5c-0.5-0.3-1.2-0.5-2.1-0.5
		c-0.9,0-1.6,0.1-2.3,0.4l0.1-0.6c0.7-0.3,1.6-0.4,2.5-0.4c1,0,1.8,0.2,2.4,0.5c0.8,0.4,1.1,1,1.1,1.8V293.9z"/>
</g>
<g id="Layer_5" class="st0">
	<rect x="-145.5" y="-9.7" class="st2" width="521.3" height="185.4"/>
</g>
<g id="Layer_4">
	<path class="st3" d="M140.2,120.3v-14.4c0-2-1.8-3.8-4-3.8h-2.7c-1.1,0-1.7,0.4-2.4,1v-2.9c0-2.9-1.9-5.3-5-5.8
		c1.1,1.1,1.4,2.6,1.4,4.2v10.7c0,1.9,1.5,3.4,3.6,3.7v-7.9c0-1,1-2.1,2.1-2.1h1.5c1.1,0,2.2,0.8,2.2,1.9v11.6
		C136.9,118.4,138.1,120,140.2,120.3 M225.8,120.3v-14.4c0-2-1.8-3.8-4-3.8h-2.7c-1.1,0-1.7,0.4-2.4,1v-6.2c0-2.9-1.9-5.3-5-5.8
		c1.1,1.1,1.4,2.6,1.4,4.2v14c0,1.9,1.5,3.4,3.6,3.7v-7.9c0-1,1-2.1,2.1-2.1h1.5c1.1,0,2.2,0.8,2.2,1.9v11.6
		C222.5,118.4,223.7,120,225.8,120.3 M41.6,116.7c5.1,0,6-5.4,6.8-7.5c1.4-3.6,2.9-6,6.6-6l0.3-0.5c-1-0.4-1.7-0.7-2.8-0.7
		c-5.8,0.2-6.3,3.8-7.5,6.5c-1.4,3-2.3,7.1-6.6,7.1h-0.3c-1.3,0-2.4-1.1-2.4-2.3v-8.2V102c0-1.8-1.7-3.3-3.6-3.6v4.6
		c-0.6-0.6-1.3-1-2.2-1h-2.9c-2.3,0-4.1,1.7-4.1,3.7v7.2c0,2.9,1.8,3.7,4.1,3.7h3.6c1,0,2.2-0.5,3.1-1.2c0.7,0.7,1.8,1.2,3,1.2H41.6
		z M32,113.6c0,1.2-1.2,2.1-2.5,2.1h-0.7c-1.3,0-2.4-1-2.4-2.1v-8.4c0-1.2,1.1-2.1,2.4-2.1h0.7c1.3,0,2.5,1,2.5,2.1V113.6z
		 M93.8,113V96.9c0-2.9-1.9-5.3-4.9-5.7c1.1,1.1,1.3,2.6,1.3,4.2c0,3.1,0,16.2,0,18.2c0,0.8-1,2-1.9,2H83v-16c0-2.6-1.7-5.1-4.3-5.8
		c-0.5-0.2-1-0.3-1.7-0.3c-5.6,0-6.6,4.2-7.5,6.4c-1.9,4.9-3.1,8.7-4.7,12.5c-1.2,2.9-2.5,6.7-6.6,6.7h-0.2l-0.2,0.5
		c0.6,0.2,1.6,0.6,2.8,0.6c5.3,0,6.6-4.4,7.5-6.5c1.5-3.8,2.7-7.4,4.8-13.1c1.6-4.4,2.7-5.8,6-5.9c0.4,0.6,0.6,1.4,0.6,3.4V113
		c0,1.9,1.8,3.6,3.5,3.6h6.9C92.1,116.7,93.8,115,93.8,113 M183.1,102.7c-1-0.9-2.3-1.4-4.1-1.4c-1.8,0-3.1,0.7-4,1.4
		c-1-0.9-2.3-1.4-4.1-1.4c0,0,2.4,1.2,2.4,6.1l0,9.3c2.1-0.3,3.6-1.9,3.6-3.8V107c0-1.6-0.6-3.2-1.8-4.3c0.3-0.1,0.7-0.1,1-0.1
		c2.7,0,5.3,1.8,5.3,4.8l0,9.3c2.1-0.3,3.6-1.9,3.6-3.8V107C184.9,105.5,184.4,103.9,183.1,102.7c0.4,0,0.7-0.1,1-0.1
		c2.7,0,5.3,1.8,5.3,4.8l0,9.3c2.1-0.3,3.6-1.9,3.6-3.8V107c0-2.8-1.9-5.8-6-5.8C185.4,101.3,184,102,183.1,102.7 M5,96.9
		C5,94,3,91.6,0,91.1c1.1,1.1,1.3,2.6,1.3,4.2v21.3c2.1-0.3,3.6-1.9,3.6-3.8v-6.4c2.8,0.8,4.5,3.2,5.8,5.5c1.3,2.3,3.2,8.1,9,8.4
		c1.1,0,2.2-0.2,3.1-0.6l-0.3-0.6c-3.8,0-5.9-2.6-7.8-6.7c-1.1-2.4-2-4.7-6-6.6h6.4c2.2,0,4-1.3,4-3.3v-5.1c0-1.9-1.7-3.4-3.7-3.5
		h-5.1c-0.9,0.1-1.6,0.2-1.9,0.9h5c1.2,0,2.1,0.8,2.2,1.9v6.1c0,1.1-1,2-2.2,2H6.2l-1.2,0v-0.8V96.9z M168.4,111v-5.1
		c0-1.9-1.5-3.5-3.6-3.8v11.3c0,1.3-1.2,2.3-2.6,2.3H159c-1.3,0-2.4-1.2-2.4-2.3V102c0-1.8-1.7-3.3-3.6-3.6v4.6
		c-0.6-0.6-1.3-1-2.2-1h-2.9c-2.3,0-4.1,1.7-4.1,3.7v7.2c0,2.9,1.8,3.7,4.1,3.7h3.6c1,0,2.2-0.5,3.1-1.2c0.7,0.7,1.8,1.2,3,1.2h5.4
		C166.1,116.7,168.4,113.9,168.4,111 M153,113.6c0,1.2-1.2,2.1-2.5,2.1h-0.7c-1.3,0-2.4-1-2.4-2.1v-8.4c0-1.2,1.1-2.1,2.4-2.1h0.7
		c1.3,0,2.5,1,2.5,2.1V113.6z M196.7,105.8v7.2c0,2.9,1.8,3.7,4.1,3.7h3.6c1,0,2-0.4,2.9-1c0,0,1,1,2.8,1c0.9,0,1.3-0.2,1.9-0.5
		v-0.4c-0.8,0-2.5-0.4-2.5-2.3v-0.2V102c0-1.8-1.7-3.3-3.6-3.6v4.6c-0.7-0.6-1.3-1-2.2-1h-2.9C198.5,102.1,196.7,103.7,196.7,105.8
		 M200.3,105.2c0-1.2,1.1-2.1,2.4-2.1h0.7c1.3,0,2.5,1,2.5,2.1v8.4c0,1.2-1.2,2.1-2.5,2.1h-0.7c-1.3,0-2.4-1-2.4-2.1V105.2z
		 M168.2,96.8c0-0.9-0.7-1.6-1.6-1.6c-0.9,0-1.6,0.7-1.6,1.6c0,0.9,0.7,1.6,1.6,1.6C167.5,98.4,168.2,97.7,168.2,96.8 M75.6,105.2
		c0.9,0,1.6-0.7,1.6-1.6c0-0.9-0.7-1.6-1.6-1.6s-1.6,0.7-1.6,1.6C74,104.5,74.7,105.2,75.6,105.2 M116.9,99.9c0.9-2,1.9-5.8,6.5-5.8
		c0.1,0,0.3-0.8,0.3-0.8c-1-0.4-1.6-0.6-2.7-0.6c-5.4,0-6.6,4.4-7.5,6.5c-0.9,2.1-1.8,4.5-4.1,5.2c0-3.7,0-7.4,0-7.6
		c0-2.9-1.9-5.3-5-5.8c1.1,1.1,1.4,2.6,1.4,4.3v21.3c2.1-0.4,3.6-2,3.6-3.9c0,0,0-3.4,0-7.1c1.7,0,5.8,0,6,0c1.1,0,2,0.5,2,1.8v6.9
		c0,2.9,1.9,5.3,5,5.8c-1.1-1.1-1.3-2.6-1.3-4.4v-7.2c0-1.7-1.5-3.8-4.1-3.8h-4.8C115.1,103.9,116,101.9,116.9,99.9 M86.9,66.4
		c0,0.9,0.7,1.6,1.6,1.6c0.9,0,1.6-0.7,1.6-1.6c0-0.9-0.7-1.6-1.6-1.6C87.6,64.8,86.9,65.5,86.9,66.4 M107.6,82.2V66.5
		c0-2.9-1.9-5.3-5-5.8c1.1,1.1,1.4,2.6,1.4,4.2l0,17.6c0,0.8-0.7,2.7-2.9,2.7h-3c-1.3-0.1-2.5-1.5-2.5-2.6v-7.2c0-2-1.4-3.5-3.4-3.8
		h-7.3c-2,0-3.5,1-3.5,3.2V79c1.7,0,3.6-1.2,3.6-3.8c0-1.3,1.7-2.3,3.1-2.3h1.6c1.4,0,2.5,1,2.5,2.3v6.5c0,1.3,1.5,3.2,3.1,3.5
		l-34.3,0c-2.1,0-2.3-2.4-2.3-2.4v-5.3c0-2-1.3-3.8-3.6-4.1v9.5c0,1.4-0.5,2.3-2.1,2.3H52c-0.9,0-2.2-0.5-2.2-2.4V71.6
		c0-2-1.5-3.3-3.7-3.6c0,0,0,3.3,0,4.9c-0.5-0.7-2.3-1.3-3.4-1.3h-4.5c-7.3,0-8,3.5-9.3,6.4c-2.1,4.6-4,7.4-8.6,7.3
		c-0.1,0-3.8,0-3.8,0c-1.4,0-2.5-1-2.5-2.3V71.8c0-2-1.6-3.6-3.7-3.8v4.7c-0.7-0.6-1.8-1.1-2.8-1.1H5.6c-2.4,0-4.4,1.8-4.4,4v6.5
		c0,2.2,2,4.1,4.4,4.1h2.7c1.1,0,2.3-0.5,3.3-1.3c0.8,0.8,1.9,1.2,3.2,1.2h7.8c5.4,0,8.8-4.8,9.7-7.5c1.3-3.7,2.7-6.1,6.6-6.1
		c-1.6,0-1.9,1.9-1.9,2.7v7.1c0,2.2,1.7,3.8,4.1,3.8h3.4c1.2,0,2.2-0.3,3-1c0.7,0.7,1.8,0.9,2.9,1h0.1h0h0c0,0,3.9,0,4.6-0.1
		c0.1,0,1.9-0.1,2.5-1.1c0,0,0,0,0,0c0.6,0.6,1.2,1.1,2.3,1.2c0,0,41.9,0.1,42.7,0.1C105.1,86.2,107.6,84.3,107.6,82.2 M10.2,82.9
		c0,1.3-1.3,2.3-2.7,2.3H7.3c-1.4,0-2.5-1-2.5-2.3v-8c0-1.3,1.1-2.3,2.5-2.3h0.2c1.4,0,2.7,1,2.7,2.3V82.9z M46,82.9
		c0,1.3-1.3,2.3-2.7,2.3h-0.2c-1.4,0-2.5-1-2.5-2.3v-8c0-1.3,1.1-2.3,2.5-2.3h0.2c1.4,0,2.7,1,2.7,2.3V82.9z M225.8,82.6v-6.6
		c0-1.7,0.6-3.3,1.8-4.5c-3.3,0.5-5.4,3.1-5.4,6.2v5.2c0,1.1-1.4,2.4-2.6,2.4h-16.7c-0.9,0.1-1.4,0.2-1.7,0.9h20.1
		C223.9,86.2,225.8,84.4,225.8,82.6 M198,58.7c0.8,0,1.5-0.5,1.6-1.3h-2.4c-0.4,0-0.9-0.3-0.9-0.7v-0.2c0-0.4,0.4-0.8,0.8-0.8h0.9
		c0.8,0,1.5-0.4,1.6-1.2h-2c-0.9,0-1.6,0.6-1.6,1.4v0.6c0,0.4,0.2,0.6,0.4,0.8h-0.1h-0.2c-1.2,0-2.3,0.7-2.5,1.8
		c0.5-0.4,1.1-0.5,1.8-0.5H198z M198.6,80.4c0-1.5,0-0.3,0-3v-8.9v-7.9c-2.1,0.3-3.6,1.8-3.6,3.7V82c0,1.6-0.3,3.1-1.4,4.2
		C196.6,85.8,198.6,83.3,198.6,80.4 M57.3,97.1c0.9,0,1.6-0.7,1.6-1.6c0-0.9-0.7-1.6-1.6-1.6s-1.6,0.7-1.6,1.6
		C55.7,96.4,56.4,97.1,57.3,97.1 M57.3,93c0.9,0,1.6-0.7,1.6-1.6c0-0.9-0.7-1.6-1.6-1.6s-1.6,0.7-1.6,1.6C55.7,92.3,56.4,93,57.3,93
		 M125.2,86.2l41.8,0h1.3c1.8,0,3.2-0.6,4.1-1.4c0.9,0.7,2.3,1.4,4,1.4c1.8,0,3.2-0.6,4.1-1.4c0.9,0.7,2.3,1.4,4,1.4
		c4.1,0,6-2.9,6-5.8v-5.8c0-1.9-1.5-3.5-3.6-3.8l0,9.3c0,3-2.6,4.8-5.3,4.8c-0.3,0-0.7,0-1-0.1c1.2-1.1,1.8-2.7,1.8-4.3v-5.8
		c0-1.9-1.5-3.5-3.6-3.8l0,9.3c0,3-2.6,4.8-5.3,4.8c-0.3,0-0.7,0-1-0.1c1.2-1.1,1.8-2.7,1.8-4.3v-5.8c0-1.9-1.5-3.5-3.6-3.8l0,9.3
		c0,2.5-0.7,5.2-3.4,5.2c-0.7,0-40.3,0-40.3,0C126,85.4,125.5,85.5,125.2,86.2 M115.5,60.7c-2.1,0.3-3.6,1.8-3.6,3.7V82
		c0,1.6-0.2,3.1-1.4,4.2c3.1-0.4,5-2.8,5-5.8v-3v-8.9V60.7z M7,67.3c0.9,0,1.6-0.7,1.6-1.6c0-0.9-0.7-1.6-1.6-1.6
		c-0.9,0-1.6,0.7-1.6,1.6C5.4,66.6,6.1,67.3,7,67.3 M2.8,67.3c0.9,0,1.6-0.7,1.6-1.6c0-0.9-0.7-1.6-1.6-1.6s-1.6,0.7-1.6,1.6
		C1.2,66.6,1.9,67.3,2.8,67.3 M84.3,54.9c1.1-0.3,2.5-0.7,4.1-1.3c1.5-0.5,3.3-1.2,5.1-2c1.9-0.8,3.8-1.7,5.9-2.7
		c2.1-1,4.2-2.1,6.5-3.2c0.6-0.3,1.1-0.5,1.7-0.8c0.6-0.3,1.1-0.5,1.7-0.8c1.2-0.5,2.4-1,3.6-1.4c2.5-0.9,5-1.6,7.6-2.1
		c2.6-0.5,5.2-0.9,7.8-1.2c2.6-0.3,5.2-0.4,7.7-0.4c5-0.1,9.7,0.3,13.6,0.8c4,0.5,7.3,1.1,9.6,1.6c2.3,0.5,3.6,0.8,3.6,0.8
		s-1.3-0.4-3.5-1.1c-1.1-0.3-2.5-0.7-4.1-1c-1.6-0.4-3.4-0.7-5.4-1c-4-0.7-8.7-1.2-13.7-1.3c-2.5,0-5.2,0-7.8,0.2
		c-2.7,0.2-5.3,0.5-8,1c-2.7,0.5-5.3,1.2-7.8,2c-1.3,0.4-2.5,0.9-3.7,1.4c-0.6,0.3-1.2,0.5-1.8,0.8c-0.6,0.3-1.2,0.5-1.7,0.8
		c-2.3,1.1-4.4,2.2-6.5,3.2c-2,1.1-4,2.1-5.7,3c-1.8,0.9-3.4,1.7-4.9,2.4c-1.5,0.7-2.8,1.3-3.9,1.7c-0.5,0.2-1,0.4-1.4,0.6
		c-0.4,0.2-0.8,0.3-1.1,0.4c-0.6,0.2-0.9,0.4-0.9,0.4s0.3-0.1,0.9-0.2C82.3,55.4,83.2,55.2,84.3,54.9 M0.5,145.4h3v8.5h1.3v-8.5h2.9
		v-0.8H0.5V145.4z M13,146.9c-1.8,0-3.3,1.2-3.3,3.8c0,0.6,0.1,1.9,1.1,2.8c0.7,0.6,1.6,0.7,2.1,0.7c1.5,0,2.3-0.7,2.6-1.2
		c0.5-0.6,0.7-1.5,0.7-2.6C16.2,148.4,15,146.9,13,146.9 M12.9,153.5c-0.7,0-1.4-0.4-1.7-1.3c-0.1-0.3-0.3-0.8-0.3-1.7
		c0-1.4,0.5-2.9,2-2.9c1.4,0,2,1.4,2,2.9C14.9,152.7,14,153.5,12.9,153.5 M23.5,152.5c-0.7,0.9-1.6,0.9-1.8,0.9
		c-0.7,0-1.1-0.4-1.3-0.7c-0.2-0.3-0.2-0.8-0.2-1.5v-3.9h-1.2v4.4c0,0.8,0.1,1.3,0.5,1.8c0.4,0.4,1,0.8,1.8,0.8
		c1.4,0,1.9-0.8,2.1-1.1v0.8h1.2v-6.7h-1.2V152.5z M29.1,148.1v-0.9h-1.2v6.7h1.2v-5.1c0.1-0.2,0.6-0.8,1.4-0.8c0.5,0,0.8,0.2,1,0.3
		v-1.1c-0.2-0.1-0.4-0.2-0.7-0.2C29.9,147,29.3,147.8,29.1,148.1 M34.6,144.5c-0.4,0-0.7,0.3-0.7,0.7c0,0.4,0.3,0.7,0.7,0.7
		c0.2,0,0.7-0.1,0.7-0.7C35.3,144.8,35,144.5,34.6,144.5 M33.9,153.9h1.2v-6.8h-1.2V153.9z M41.1,150.1c-0.1,0-0.7-0.2-0.7-0.2
		c-0.7-0.2-1.1-0.5-1.1-1c0-0.6,0.6-1,1.5-1c1.3,0,1.7,0.8,2,1.1c0.1,0,0.3-0.1,0.3-0.1c0-0.3-0.1-0.9-0.8-1.4
		c-0.5-0.3-1.1-0.5-1.7-0.5c-1.5,0-2.5,0.9-2.5,2c0,1.3,1.2,1.7,1.8,1.9c0.7,0.2,1.1,0.3,1.3,0.5c0.2,0.1,0.7,0.4,0.7,1
		c0,0.7-0.6,1.1-1.5,1.1c-0.7,0-1.3-0.2-1.8-0.6c-0.3-0.3-0.5-0.5-0.6-0.7c-0.1,0-0.3,0.1-0.4,0.1c0.1,0.3,0.2,1,0.9,1.5
		c0.5,0.4,1.2,0.5,1.9,0.5c0.7,0,1.4-0.1,2-0.6c0.5-0.4,0.7-0.9,0.7-1.5C43.1,150.7,41.7,150.3,41.1,150.1 M53.4,146.9
		c-0.5,0-1,0.1-1.7,0.6c-0.3,0.3-0.5,0.5-0.7,0.8c-0.1-0.3-0.2-0.7-0.8-1.1c-0.3-0.2-0.7-0.3-1.1-0.3c-1.3,0-2,0.9-2.2,1.2v-0.9
		h-1.2v6.7H47v-5.1c0.4-0.6,0.9-1.1,1.7-1.1c0.2,0,1.1,0.1,1.2,1.1c0,0.2,0,0.6,0,0.9v4.1h1.2v-5.1c0.2-0.3,0.8-1.1,1.7-1.1
		c1,0,1.1,0.8,1.2,1c0,0.2,0.1,0.5,0.1,0.9v4.2h1.2v-4.3c0-0.9,0-1.5-0.3-2C54.8,147.3,54.3,146.9,53.4,146.9 M66.9,144.6h-3.1v9.4
		h2.9c1.7,0,2.9-0.3,3.8-1.2c0.8-0.7,1.4-1.9,1.4-3.5c0-1.6-0.7-2.9-1.5-3.6C69.4,144.8,68.3,144.6,66.9,144.6 M69,152.5
		c-0.7,0.5-1.4,0.6-2.7,0.6h-1.3v-7.7h1.2c1,0,2.4,0,3.4,1.2c0.5,0.6,0.9,1.5,0.9,2.8C70.5,151.2,69.6,152.2,69,152.5 M77.8,146.9
		c-1.8,0-3.4,1.3-3.4,3.7c0,2.4,1.6,3.6,3.4,3.6c2.3,0,2.8-1.7,3-2.2c-0.1,0-0.2-0.1-0.3-0.1c-0.2,0.4-0.9,1.4-2.4,1.4
		c-0.2,0-1.2,0-1.8-0.9c-0.5-0.7-0.6-1.5-0.6-1.9h5.2c0-0.5,0.1-1.9-1-2.9C79.4,147.2,78.7,146.9,77.8,146.9 M75.7,149.9
		c0.2-1.5,1.3-2.1,2.1-2.1c0.7,0,1.9,0.4,2,2.1H75.7z M86.1,151.7c-0.1,0.2-0.1,0.3-0.2,0.5c0-0.2-0.1-0.4-0.1-0.4l-1.9-4.5h-1.3
		l3,6.8H86l3-6.8h-1L86.1,151.7z M94.3,146.9c-1.8,0-3.4,1.3-3.4,3.7c0,2.4,1.6,3.6,3.4,3.6c2.3,0,2.8-1.7,3-2.2
		c-0.1,0-0.2-0.1-0.3-0.1c-0.2,0.4-0.9,1.4-2.4,1.4c-0.2,0-1.2,0-1.8-0.9c-0.5-0.7-0.6-1.5-0.6-1.9h5.2c0-0.5,0.1-1.9-1-2.9
		C95.9,147.2,95.2,146.9,94.3,146.9 M92.2,149.9c0.2-1.5,1.3-2.1,2.1-2.1c0.7,0,1.9,0.4,2,2.1H92.2z M100.1,153.9h1.2v-9.4h-1.2
		V153.9z M107.5,146.9c-1.8,0-3.3,1.2-3.3,3.8c0,0.6,0.1,1.9,1.1,2.8c0.7,0.6,1.6,0.7,2.1,0.7c1.5,0,2.3-0.7,2.6-1.2
		c0.5-0.6,0.7-1.5,0.7-2.6C110.7,148.4,109.5,146.9,107.5,146.9 M107.4,153.5c-0.7,0-1.4-0.4-1.7-1.3c-0.1-0.3-0.3-0.8-0.3-1.7
		c0-1.4,0.5-2.9,2-2.9c1.4,0,2,1.4,2,2.9C109.4,152.7,108.5,153.5,107.4,153.5 M117,146.9c-1.2,0-1.9,0.8-2.3,1.1v-0.8h-1.2v9.4h1.2
		v-3.3c0.3,0.3,0.9,0.9,2,0.9c1.9,0,3-1.6,3-3.7C119.8,148.5,118.7,146.9,117,146.9 M116.4,153.4c-0.1,0-0.9,0-1.6-0.7v-4.1
		c0.5-0.5,1.1-0.9,1.8-0.9c1.3,0,2,1.4,2,2.7C118.5,153.1,117,153.4,116.4,153.4 M130.3,146.9c-0.5,0-1,0.1-1.7,0.6
		c-0.3,0.3-0.5,0.5-0.7,0.8c-0.1-0.3-0.2-0.7-0.8-1.1c-0.3-0.2-0.7-0.3-1.1-0.3c-1.3,0-2,0.9-2.2,1.2v-0.9h-1.2v6.7h1.2v-5.1
		c0.4-0.6,0.9-1.1,1.7-1.1c0.2,0,1.1,0.1,1.2,1.1c0,0.2,0,0.6,0,0.9v4.1h1.2v-5.1c0.2-0.3,0.8-1.1,1.7-1.1c1,0,1.2,0.8,1.2,1
		c0,0.2,0,0.5,0,0.9v4.2h1.2v-4.3c0-0.9,0-1.5-0.3-2C131.7,147.3,131.2,146.9,130.3,146.9 M138.4,146.9c-1.8,0-3.4,1.3-3.4,3.7
		c0,2.4,1.6,3.6,3.4,3.6c2.3,0,2.8-1.7,3-2.2c-0.1,0-0.2-0.1-0.3-0.1c-0.2,0.4-0.9,1.4-2.4,1.4c-0.2,0-1.2,0-1.8-0.9
		c-0.5-0.7-0.6-1.5-0.6-1.9h5.2c0-0.5,0.1-1.9-1-2.9C140,147.2,139.3,146.9,138.4,146.9 M136.3,149.9c0.2-1.5,1.3-2.1,2.1-2.1
		c0.7,0,1.9,0.4,2,2.1H136.3z M147.7,146.9c-1.4,0-2.1,0.9-2.3,1.2v-0.9h-1.2v6.7h1.2v-5c0.5-0.8,1.2-1.1,1.8-1.1
		c0.4,0,1.1,0.2,1.3,0.9c0.1,0.4,0.1,0.7,0.1,1.4v3.8h1.2v-4.7c0-0.6,0-1.3-0.6-1.8C149.1,147.3,148.7,146.9,147.7,146.9
		 M155.2,153.5c-1,0-1-0.8-1-1.7V148h1.4v-0.8h-1.4v-1.8h-1.2v1.8h-0.9v0.8h0.9v4.2c0,0.8,0.1,1.3,0.6,1.7c0.2,0.1,0.6,0.3,1.1,0.3
		c0.8,0,1.2-0.4,1.5-0.6c-0.1-0.1-0.1-0.2-0.2-0.3C155.8,153.4,155.6,153.5,155.2,153.5 M166.9,144.6l-4.4,9.4h1.1l1.2-2.7h4.2
		l1.2,2.7h1.4l-4.4-9.4H166.9z M165.2,150.5l1.5-3.2c0.2-0.4,0.2-0.5,0.3-0.8c0,0.2,0.1,0.5,0.3,0.8l1.4,3.1H165.2z M178.4,152.5
		c-0.7,0.9-1.6,0.9-1.8,0.9c-0.7,0-1.1-0.4-1.3-0.7c-0.2-0.3-0.2-0.8-0.2-1.5v-3.9h-1.2v4.4c0,0.8,0.1,1.3,0.5,1.8
		c0.4,0.4,1,0.8,1.9,0.8c1.4,0,1.9-0.8,2.1-1.1v0.8h1.2v-6.7h-1.2V152.5z M185,153.5c-1,0-1-0.8-1-1.7V148h1.4v-0.8H184v-1.8h-1.2
		v1.8h-0.9v0.8h0.9v4.2c0,0.8,0.1,1.3,0.6,1.7c0.2,0.1,0.6,0.3,1.1,0.3c0.8,0,1.2-0.4,1.5-0.6c-0.1-0.1-0.1-0.2-0.2-0.3
		C185.6,153.4,185.3,153.5,185,153.5 M191.6,146.9c-1.3,0-2,0.8-2.4,1.3v-3.6H188v9.4h1.2v-5c0,0,0.4-0.6,0.8-0.8
		c0.1-0.1,0.5-0.3,1.1-0.3c1.4,0,1.4,1.2,1.4,1.8v4.3h1.2v-4.8c0-0.5,0-1.2-0.6-1.7C192.6,147.1,192.1,146.9,191.6,146.9
		 M199.8,146.9c-1.8,0-3.3,1.2-3.3,3.8c0,0.6,0.1,1.9,1.1,2.8c0.8,0.6,1.6,0.7,2.1,0.7c1.5,0,2.3-0.7,2.6-1.2
		c0.5-0.6,0.7-1.5,0.7-2.6C203,148.4,201.8,146.9,199.8,146.9 M199.8,153.5c-0.7,0-1.4-0.4-1.7-1.3c-0.1-0.3-0.3-0.8-0.3-1.7
		c0-1.4,0.5-2.9,2-2.9c1.4,0,2,1.4,2,2.9C201.7,152.7,200.8,153.5,199.8,153.5 M207.1,148.1v-0.9h-1.2v6.7h1.2v-5.1
		c0.1-0.2,0.6-0.8,1.4-0.8c0.5,0,0.8,0.2,1,0.3v-1.1c-0.2-0.1-0.4-0.2-0.7-0.2C207.9,147,207.3,147.8,207.1,148.1 M212.6,144.5
		c-0.4,0-0.7,0.3-0.7,0.7c0,0.4,0.3,0.7,0.7,0.7c0.2,0,0.7-0.1,0.7-0.7C213.2,144.8,213,144.5,212.6,144.5 M211.9,153.9h1.2v-6.8
		h-1.2V153.9z M218.6,153.5c-1,0-1-0.8-1-1.7V148h1.4v-0.8h-1.4v-1.8h-1.2v1.8h-0.9v0.8h0.9v4.2c0,0.8,0.1,1.3,0.6,1.7
		c0.2,0.1,0.6,0.3,1.1,0.3c0.8,0,1.2-0.4,1.5-0.6c-0.1-0.1-0.1-0.2-0.2-0.3C219.1,153.4,218.9,153.5,218.6,153.5 M223.9,151.9
		l-1.9-4.7h-1.3l2.6,6.1c-0.9,2-1.5,2.6-2.6,3v0.4c1.7,0.1,2.6-0.9,3.4-2.8l3-6.7H226L223.9,151.9z M2.9,129.3
		c0,0.5,0.3,0.7,0.8,0.7c0.5,0,0.8-0.2,0.8-0.7c0-0.4-0.3-0.7-0.8-0.7C3.1,128.6,2.9,128.8,2.9,129.3 M5.2,129.3
		c0,0.5,0.3,0.7,0.8,0.7c0.5,0,0.7-0.2,0.7-0.7c0-0.4-0.3-0.7-0.7-0.7C5.4,128.6,5.2,128.8,5.2,129.3 M26.3,132.1
		c-1.3,0-2.3,1.1-2.5,3l1-0.1c-0.1-0.3-0.2-0.7-0.2-0.9c0-0.8,0.5-1.3,1.1-1.3c0.9,0,1.9,0.8,2.9,2.3c0.9,1.2,1.5,2.4,1.8,3.4l-7,0
		v0h-1.8h-0.6h-1.2h-0.5h-1.2h-0.5h-1.2h-0.5h-1.2H14h-1.2h-0.5H11h-0.5H8.7v0H8.4c-1.1,0-1.6-0.6-1.6-1.7v-5.5
		c-0.4,0.1-0.8,0.2-1.3,0.3l0.1,0.9H4.6c-1.1,0-2,0.3-2.7,0.9c-0.7,0.6-1,1.4-1,2.4c0,1.9,1,3.1,2.6,3.1c1,0,1.7-0.2,2.3-0.6
		c0.1,0.2,0.3,0.4,0.7,0.6c0.4,0.2,0.9,0.4,1.4,0.4h1.2h1.3H11h1.2h0.5H14h0.5h1.2h0.5h1.2h0.5h1.2h0.5h1.2h0.6h1.2h9.1
		c-0.1-1.2-0.7-2.6-1.9-4.3C28.7,133.1,27.5,132.1,26.3,132.1 M4,138.1c-1.3,0-1.9-0.8-1.9-2.5c0-0.7,0.2-1.3,0.7-1.8
		c0.5-0.5,1.1-0.7,1.7-0.7c0.3,0,0.7,0,1.1,0l0.1,4.8C5.1,138,4.5,138.1,4,138.1 M46.7,142.1c0-0.4-0.3-0.7-0.8-0.7
		c-0.5,0-0.8,0.2-0.8,0.7c0,0.5,0.3,0.7,0.8,0.7C46.5,142.7,46.7,142.5,46.7,142.1 M43.7,141.3c-0.5,0-0.8,0.2-0.8,0.7
		c0,0.5,0.3,0.7,0.8,0.7c0.5,0,0.8-0.2,0.8-0.7C44.5,141.7,44.1,141.3,43.7,141.3 M88.5,131.3v5.5c0,1.1-0.5,1.7-1.6,1.7h-1.8v0
		h-1.8h-0.5h-1.2H81h-1.2h-0.6H78h-0.5h-1.2h-0.5h-1.2h-0.5h-1.2h-0.5h-1.2h-0.5h-1.8v0h-0.3c-1.1,0-1.6-0.6-1.6-1.7v-4.3l-1.3,0.3
		l0.3,2v1.9c0,1.1-0.5,1.7-1.5,1.7c-0.6,0-1.2-0.3-1.8-0.9v-4.3l-1,0.2v3.3c0,1.1-0.5,1.7-1.6,1.7c-0.5,0-1.1-0.3-1.7-0.9
		c0-0.1,0-0.3,0-0.4v-4l-1,0.2l0,3.3c0,1.1-0.5,1.7-1.6,1.7h-1v0h-1.8h-0.5h-1.2h-0.5h-1.8v0h-0.3c-1,0-1.6-0.6-1.6-1.7v-4.3
		l-1.3,0.3l0.3,2v1.9c0,1.1-0.5,1.7-1.6,1.7h-0.7v0h-1.8H41h-1.2h-0.5h-1.8v0h-0.6c-1,0-1.6-0.6-1.6-1.7V129l-1.3,0.3l0.3,1.9v5.9
		c0,1.5,0.7,2.2,2.2,2.2H38h1.3h0.5H41h0.5h1.1h1.9c0.7,0,1.2-0.2,1.6-0.7c0.4,0.4,1,0.7,1.7,0.7H49h1.3h0.5h1.2h0.5h1.2h2
		c0.7,0,1.2-0.2,1.6-0.6c0.2-0.2,0.3-0.4,0.4-0.6c0.6,0.8,1.4,1.2,2.3,1.2c1,0,1.7-0.4,2-1.3c0.6,0.9,1.4,1.3,2.4,1.3
		c0.7,0,1.2-0.2,1.6-0.7c0.4,0.4,1,0.7,1.7,0.7h1.1h1.4h0.5h1.2h0.5h1.2h0.5h1.2h0.5h1.2H78h1.2h0.6H81h0.5h1.2h0.5h1.2h2.9
		c1.4,0,2.2-0.8,2.2-2.2v-8l-1.3,0.3L88.5,131.3z M92.8,139.2v-8.3L93,129l-1.4,0.1l0.2,1.8v8.3H92.8z M105,129.3
		c0,0.5,0.3,0.7,0.8,0.7c0.5,0,0.8-0.2,0.8-0.7c0-0.4-0.3-0.7-0.8-0.7C105.3,128.6,105,128.8,105,129.3 M107.3,129.3
		c0,0.5,0.3,0.7,0.8,0.7c0.5,0,0.7-0.2,0.7-0.7c0-0.4-0.3-0.7-0.7-0.7C107.6,128.6,107.3,128.8,107.3,129.3 M117.8,142.1
		c0-0.4-0.4-0.7-0.7-0.7c-0.5,0-0.8,0.2-0.8,0.7c0,0.5,0.3,0.7,0.8,0.7C117.6,142.7,117.8,142.5,117.8,142.1 M119.3,141.3
		c-0.5,0-0.7,0.2-0.7,0.7c0,0.5,0.3,0.7,0.7,0.7c0.5,0,0.8-0.2,0.8-0.7C120.1,141.7,119.8,141.3,119.3,141.3 M149.2,129.7
		c0,0.5,0.3,0.7,0.8,0.7c0.5,0,0.8-0.2,0.8-0.7c0-0.4-0.3-0.7-0.8-0.7C149.5,129,149.2,129.2,149.2,129.7 M161.1,134.8v2
		c0,1.1-0.5,1.7-1.6,1.7h-1.3v0h-1.8h-0.5h-1.2h-0.5h-1.8v0h-0.3c-1,0-1.6-0.6-1.6-1.7v-4.3l-1.3,0.3l0.3,2v1.9
		c0,1.1-0.5,1.7-1.6,1.7h-0.7v0h-1.8h-0.5h-1.2h-0.5h-1.8v0h-0.6c-1.1,0-1.6-0.6-1.6-1.7V135l0.2-1.5c-0.6-0.2-1.3-0.3-2.1-0.3
		c-2.4,0-3.9,1.5-3.9,3.9c0,0.9-0.5,1.4-1.5,1.4h-0.4v0h-1.8H129h-1.2h-0.5H126h-0.5h-1.2h-0.5h-1.8v0h-0.3c-1,0-1.6-0.6-1.6-1.7
		v-4.3l-1.3,0.3l0.3,2v1.9c0,1.1-0.5,1.7-1.6,1.7h-0.7v0h-1.8h-0.5h-1.2h-0.5h-1.8v0h-0.3c-1.1,0-1.6-0.6-1.6-1.7v-5.5
		c-0.4,0.1-0.8,0.2-1.4,0.3l0.1,0.9h-0.9c-1.1,0-2,0.3-2.7,0.9c-0.7,0.6-1,1.4-1,2.4c0,1.9,1,3.1,2.6,3.1c1,0,1.7-0.2,2.3-0.6
		c0.1,0.2,0.3,0.4,0.7,0.6c0.4,0.2,0.9,0.4,1.4,0.4h1.2h1.3h0.5h1.2h0.5h1.1h1.9c0.7,0,1.2-0.2,1.6-0.7c0.4,0.4,1,0.7,1.7,0.7h1.1
		h1.3h0.5h1.2h0.5h1.2h0.5h1.2h0.5h1.3h1.4c0.6,0,1-0.2,1.4-0.5c0.4,1,1.2,1.4,2.1,1.4c1.1,0,2.2-0.7,2.9-1.7
		c0.5,0.5,1.1,0.7,1.7,0.7h1.4h1.3h0.5h1.2h0.5h1.1h1.9c0.7,0,1.2-0.2,1.6-0.7c0.4,0.4,1,0.7,1.7,0.7h1.1h1.3h0.5h1.2h0.5h1.2h2.3
		c1.4,0,2.2-0.8,2.2-2.2v-4.5l-1.3,0.3L161.1,134.8z M106.1,138.1c-1.3,0-1.9-0.8-1.9-2.5c0-0.7,0.2-1.3,0.7-1.8
		c0.5-0.5,1.1-0.7,1.7-0.7c0.3,0,0.7,0,1.1,0l0.1,4.8C107.3,138,106.7,138.1,106.1,138.1 M138.1,138.4c-0.6,0.7-1.2,1-2,1
		c-1.1,0-1.8-1.1-1.8-2.6c0-0.9,0.2-1.6,0.6-2.1c0.4-0.6,1.1-0.9,1.9-0.9c0.3,0,0.7,0.1,1.1,0.2l0.2,1.2V138.4z M160.5,129.7
		c0,0.5,0.2,0.7,0.7,0.7c0.5,0,0.8-0.2,0.8-0.7c0-0.4-0.3-0.7-0.8-0.7C160.8,129,160.5,129.2,160.5,129.7 M158.3,129.7
		c0,0.5,0.3,0.7,0.8,0.7c0.5,0,0.8-0.2,0.8-0.7c0-0.4-0.3-0.7-0.8-0.7C158.5,129,158.3,129.2,158.3,129.7 M174.2,129.3
		c0,0.5,0.3,0.7,0.8,0.7c0.5,0,0.8-0.2,0.8-0.7c0-0.4-0.3-0.7-0.8-0.7C174.4,128.6,174.2,128.8,174.2,129.3 M176.5,129.3
		c0,0.5,0.3,0.7,0.8,0.7c0.5,0,0.7-0.2,0.7-0.7c0-0.4-0.3-0.7-0.7-0.7C176.7,128.6,176.5,128.8,176.5,129.3 M189.4,128.9
		c0.3,0,0.6,0.1,0.9,0.3h0l0.2-0.2l0,0c-0.5-0.4-1-0.6-1.5-0.6c-1.2,0-1.8,0.7-1.8,2.1v0.5h-1v0.5h4.8l-0.8-0.6l-0.7,0.1h-1.7l0-0.4
		C187.9,129.4,188.4,128.9,189.4,128.9 M198.3,142.1c0-0.4-0.4-0.7-0.8-0.7c-0.5,0-0.8,0.2-0.8,0.7c0,0.5,0.3,0.7,0.8,0.7
		C198,142.7,198.3,142.5,198.3,142.1 M200.5,142.1c0-0.4-0.3-0.7-0.8-0.7c-0.5,0-0.8,0.2-0.8,0.7c0,0.5,0.3,0.7,0.8,0.7
		C200.3,142.7,200.5,142.5,200.5,142.1 M226.8,133.1c-0.7-0.4-1.7-0.6-2.8-0.6c-1.1,0-2.1,0.2-2.9,0.5l-0.1,0.7
		c0.8-0.3,1.7-0.5,2.7-0.5c1,0,1.8,0.2,2.4,0.5c0.7,0.4,1,1,1,1.7v3h-1.6l0-2.6c0-0.6-0.2-1-0.6-1.4c-0.4-0.3-0.9-0.5-1.4-0.5
		c-0.8,0-1.4,0.3-2,0.8c-0.6,0.6-1,1.4-1,2.4c0,0.5,0,0.9,0.2,1.3h-1.8v0h-1.8h-0.5h-1.2h-0.5h-1.2H213h-1.2h-0.5H210h-0.5h-1.2
		h-0.5h-1.2h-0.5h-1.2h-0.5h-1.8v0h-0.3c-1,0-1.6-0.6-1.6-1.7v-4.3l-1.3,0.3l0.3,2v1.9c0,1.1-0.5,1.7-1.6,1.7h-0.7v0h-1.8h-0.5h-1.2
		h-0.5h-1.8v0H191c-1.1,0-1.6-0.6-1.6-1.7v-4.3l-1.3,0.3l0.3,2v1.9c0,1.1-0.5,1.7-1.6,1.7h-0.9v0h-1.8h-0.5h-1.2h-0.5H180v0h-0.3
		c-1.1,0-1.6-0.6-1.6-1.7v-5.5c-0.4,0.1-0.8,0.2-1.3,0.3l0.1,0.9H176c-1.1,0-2,0.3-2.7,0.9c-0.7,0.6-1,1.4-1,2.4
		c0,1.9,1,3.1,2.6,3.1c1,0,1.7-0.2,2.3-0.6c0.1,0.2,0.3,0.4,0.7,0.6c0.4,0.2,0.9,0.4,1.4,0.4h1.2h1.3h0.5h1.2h0.5h1.3h1.8
		c0.7,0,1.2-0.2,1.6-0.7c0.4,0.4,1,0.7,1.7,0.7h1.1h1.4h0.5h1.2h0.5h1.1h1.9c0.7,0,1.2-0.2,1.6-0.7c0.4,0.4,1,0.7,1.7,0.7h1.1h1.3
		h0.5h1.2h0.5h1.2h0.5h1.2h0.5h1.2h0.5h1.2h0.5h1.2h0.5h1.2h0.5h1.2h9.8v-4C228.1,134.3,227.7,133.6,226.8,133.1 M175.3,138.1
		c-1.3,0-1.9-0.8-1.9-2.5c0-0.7,0.2-1.3,0.7-1.8c0.5-0.5,1.1-0.7,1.7-0.7c0.3,0,0.7,0,1.1,0l0.1,4.8
		C176.4,138,175.8,138.1,175.3,138.1 M224.6,138.5h-1.7c-1.1,0-1.5-0.4-1.5-1.5c0-0.7,0.2-1.3,0.7-1.8c0.4-0.4,0.8-0.6,1.3-0.6
		c0.8,0,1.2,0.4,1.2,1.2V138.5z"/>
	<path class="st4" d="M139.4,44.8c-0.7-0.6-1.4-1.2-2-1.7c-0.7-0.6-1.3-1.2-1.9-1.8c-0.6-0.6-1.2-1.3-1.8-2c-0.5-0.7-1-1.4-1.5-2.1
		c-0.4-0.7-0.8-1.5-1.1-2.3c-0.1-0.2-0.1-0.4-0.2-0.6c-0.1-0.2-0.1-0.4-0.2-0.6l-0.1-0.6l-0.1-0.7c-0.1-0.8-0.2-1.7-0.3-2.6
		l-0.2-2.6c-0.2-1.8-0.3-3.5-0.4-5.3l-0.4-5.3l-0.8-10.6l0,0c0-0.1,0-0.2-0.1-0.4c-0.5-0.7-1-1.5-1.5-2.2c0,0-0.1-0.1-0.1-0.2
		c-0.1-0.1-0.1-0.1-0.2-0.2c-0.1-0.1-0.3-0.2-0.5-0.3c-0.2-0.1-0.4-0.1-0.5-0.1s-0.4,0-0.6,0.1l-0.1,0l-0.1,0l-0.2,0.1L124.4,3
		l-0.6,0.3l0,0c-0.2,0.1-0.4,0.3-0.3,0.6l0,1.2v0.1c0,0,0,0,0,0c0,0,0,0,0,0.1c0,0-0.1,0.1-0.1,0.1l-1.6-0.2l0,0c0,0,0,0,0,0
		c-0.1,0-0.2,0-0.2-0.1c0,0,0,0,0-0.1c0,0,0,0,0,0l0,0c0,0,0,0,0,0v0l0-0.4l0-1.6v0c0-0.1,0-0.2-0.1-0.3l-1.2-1.2l-0.6-0.6l-0.2-0.2
		c-0.1-0.1-0.1-0.1-0.2-0.2c-0.2-0.1-0.3-0.2-0.5-0.2c-0.4-0.1-0.7-0.1-1.1,0.1c-0.1,0-0.2,0.1-0.3,0.1l-0.1,0.1l-0.1,0.1l-0.3,0.3
		l-1.3,1.1l0,0c-0.1,0.1-0.1,0.1-0.1,0.2l0,2.2c0,0.2,0,0.3,0,0.4c-0.1,0.1-0.1,0.2-0.3,0.2c-0.1,0-0.1,0-0.2,0h-0.3h-0.5l-0.5,0
		h-0.3c-0.1,0-0.1,0-0.2,0c-0.1,0-0.2-0.1-0.3-0.2c0,0,0-0.1-0.1-0.2c0,0,0,0,0-0.1c0,0,0,0,0,0v0V4.2l0-2.2c0-0.1,0-0.2-0.1-0.2
		l-1.3-1.1l-0.3-0.3l-0.2-0.1c-0.1,0-0.1-0.1-0.2-0.2C110.4,0,110,0,109.6,0.1c-0.2,0.1-0.3,0.1-0.5,0.3c-0.1,0.1-0.2,0.2-0.3,0.3
		l-0.6,0.6l-1.2,1.3c0,0.1-0.1,0.1-0.1,0.2v0l0,1.6l0,0.4c0,0.1,0,0.1,0,0.1c0,0,0,0.1,0,0.1c-0.1,0.1-0.2,0.2-0.3,0.2c0,0,0,0,0,0
		l0,0l-1.6,0.2c-0.1,0-0.2,0-0.2-0.1c0,0,0-0.1-0.1-0.1c0,0,0,0,0,0c0,0,0,0,0-0.1c0,0,0,0,0-0.1l0-1.2c0-0.2-0.1-0.3-0.3-0.4l0,0
		l-0.6-0.3L103.5,3l-0.2-0.1l-0.1,0l-0.1,0c-0.3-0.1-0.7-0.1-1,0c-0.2,0.1-0.3,0.1-0.4,0.3c-0.1,0.1-0.1,0.1-0.2,0.2
		c0,0,0,0.1-0.1,0.1l-0.1,0.1l-1.5,2.2c0,0.1-0.1,0.2-0.1,0.2l0,0l-1.9,20l-0.5,5c0,0.4-0.1,0.8-0.1,1.2c0,0.4-0.1,0.7-0.2,1.1
		c-0.2,0.7-0.5,1.5-0.8,2.2c-0.7,1.4-1.7,2.7-2.7,3.9c-1.1,1.2-2.3,2.4-3.5,3.4c-1.3,1.1-2.6,2.1-3.9,3c-1.4,0.9-2.8,1.8-4.2,2.7
		c-2.9,1.6-5.9,3.1-9,4.3c-3.1,1.2-6.3,2.3-9.6,3c-1.6,0.4-3.3,0.7-4.9,0.9c-1.7,0.2-3.3,0.4-5,0.5c0,0-0.1,0-0.1,0.1
		c0,0,0,0.1,0.1,0.1c1.7,0.1,3.4,0,5.1-0.1c1.7-0.1,3.4-0.3,5-0.6c3.3-0.6,6.6-1.5,9.9-2.6c1.6-0.6,3.2-1.2,4.8-1.9
		c1.6-0.7,3.1-1.4,4.6-2.2c3-1.6,5.9-3.5,8.5-5.7c1.3-1.1,2.6-2.3,3.7-3.6c1.1-1.3,2.2-2.7,3-4.3c0.4-0.8,0.7-1.6,1-2.5
		c0.1-0.4,0.2-0.9,0.2-1.4c0.1-0.4,0.1-0.8,0.1-1.3l0.4-5c0.3-3.3,0.5-6.7,0.8-10c0,0,0,0,0-0.1c1-6.9,14.6-7.5,14.6-7.5
		s-7.6-0.2-14,2l-0.2,0c0.1-1.5,0.2-2.9,0.3-4.4l1.3-2.1l0,0l0,0c0,0,0,0,0,0l0,0c0,0,0-0.1,0,0c0,0,0,0,0,0c0,0,0.1-0.1,0.1-0.1
		c0.1,0,0.2,0,0.3,0l0,0l0.1,0l0.2,0.1l0.3,0.1l0.3,0.1l0,0.9l0,0.1c0,0,0,0,0,0.1c0,0.1,0,0.2,0.1,0.3c0.1,0.2,0.1,0.3,0.3,0.4
		c0.2,0.2,0.5,0.4,0.9,0.4l0,0c0,0,0,0,0,0l1.6-0.3l-0.1,0c0.4,0,0.8-0.2,1-0.6c0-0.1,0.1-0.2,0.1-0.3c0-0.1,0-0.2,0-0.3l0-0.4
		l0-1.5l1-1.2l0.6-0.6c0.1-0.1,0.2-0.2,0.3-0.3c0.1-0.1,0.2-0.1,0.2-0.2c0.2-0.1,0.4-0.1,0.6,0c0,0,0.1,0,0.1,0.1l0.2,0.1l0.3,0.3
		l1.2,1l0,2v0.1v0.1c0,0,0,0,0,0.1c0,0.1,0.1,0.2,0.1,0.4c0.1,0.2,0.3,0.4,0.5,0.5c0.1,0,0.2,0.1,0.4,0.1h0.3l0.5,0l0.5,0h0.3
		c0.1,0,0.3,0,0.4-0.1c0.2-0.1,0.4-0.3,0.6-0.5c0.1-0.2,0.1-0.5,0.1-0.7l0-2l1.2-1l0.3-0.3l0.1-0.1l0.1-0.1c0,0,0.1,0,0.1-0.1
		c0.2-0.1,0.4-0.1,0.6,0c0.1,0,0.2,0.1,0.3,0.1c0,0,0.1,0.1,0.1,0.1l0.1,0.2l0.6,0.7l1,1.2l0,1.4l0,0.4v0.1v0.1c0,0.1,0,0.1,0,0.2
		c0,0.1,0.1,0.2,0.1,0.3c0.2,0.4,0.6,0.7,1.1,0.7l-0.1,0l1.6,0.3c0,0,0,0,0.1,0h0c0.4,0,0.7-0.1,1-0.4c0.1-0.1,0.2-0.3,0.3-0.5
		c0-0.1,0.1-0.2,0.1-0.3c0-0.1,0-0.2,0-0.2l0-0.8l0.2-0.1l0.3-0.1l0.2-0.1l0.1,0l0,0l0,0c0,0,0,0,0.1,0c0,0,0.1,0,0.1,0
		c0,0,0.1,0,0.1,0.1c0,0,0,0,0,0l0,0.1c0.4,0.7,0.8,1.4,1.3,2.1c0.1,1.7,0.2,3.4,0.3,5.1c0.1,1.8,0.2,3.5,0.4,5.3l0.5,5.3
		c0.2,1.8,0.4,3.5,0.6,5.3c0.1,0.9,0.2,1.8,0.3,2.6c0.1,0.9,0.2,1.7,0.4,2.7l0.1,0.7l0.2,0.7c0.1,0.2,0.1,0.5,0.2,0.7
		c0.1,0.2,0.1,0.4,0.2,0.7c0.3,0.9,0.8,1.7,1.3,2.5c0.5,0.8,1.1,1.5,1.7,2.2c0.6,0.7,1.3,1.3,1.9,1.9c0.7,0.6,1.4,1.2,2.1,1.7
		c0.7,0.5,1.4,1.1,2.2,1.6c0,0,0.1,0,0.1,0C139.5,44.9,139.5,44.8,139.4,44.8"/>
	<path class="st4" d="M125.4,3.9L125.4,3.9L125.4,3.9z"/>
	<path class="st4" d="M113.5,16.9c-2.3,1.2-3,4.4-3,4.4V30h6.7l-3.9-0.8l0-8.2c1.2-2.2,2.4-1.5,3-0.5c0.6,1,0.9,5.7,0.9,5.7v-4.8
		C117.2,20,116,18,113.5,16.9"/>
</g>
</svg>
