<?xml version="1.0" encoding="utf-8"?>
<!-- Generator: Adobe Illustrator 19.1.0, SVG Export Plug-In . SVG Version: 6.00 Build 0)  -->
<svg version="1.1" xmlns="http://www.w3.org/2000/svg" xmlns:xlink="http://www.w3.org/1999/xlink" x="0px" y="0px"
	 viewBox="0 0 198.6 101.6" style="enable-background:new 0 0 198.6 101.6;" xml:space="preserve">
<style type="text/css">
	.st0{display:none;}
	.st1{display:inline;fill:#F6B221;}
	.st2{display:inline;fill:#7A232E;}
	.st3{fill:#7A232E;}
	.st4{fill:#F6B221;}
</style>
<g id="Layer_1" class="st0">
	<path class="st1" d="M35.4,119.3c1.5-0.1,2.9-0.2,4.4-0.4c1.4-0.2,2.9-0.5,4.3-0.8c2.8-0.6,5.6-1.5,8.3-2.6
		c2.7-1.1,5.3-2.3,7.8-3.8c1.3-0.7,2.5-1.5,3.7-2.3c1.2-0.8,2.3-1.7,3.4-2.6c1.1-0.9,2.1-1.9,3-3c0.9-1.1,1.8-2.2,2.4-3.4
		c0.3-0.6,0.6-1.2,0.7-1.9c0.1-0.3,0.2-0.6,0.2-1c0-0.3,0.1-0.7,0.1-1.1l0.4-4.4l1.7-17.5l0,0c0-0.1,0-0.2,0.1-0.2l1.3-1.9l0.1-0.1
		c0,0,0,0,0.1-0.1c0.1-0.1,0.1-0.1,0.2-0.2c0.1-0.1,0.2-0.2,0.4-0.2c0.3-0.1,0.6-0.1,0.9,0l0.1,0l0.1,0l0.1,0.1l0.3,0.1l0.5,0.2l0,0
		c0.1,0.1,0.2,0.2,0.2,0.4l0,1.1c0,0,0,0.1,0,0c0,0,0,0.1,0,0.1c0,0,0,0,0,0c0,0,0,0.1,0.1,0.1c0,0.1,0.1,0.1,0.2,0.1l-0.1,0
		l1.4-0.2l0,0c0,0,0,0,0,0c0.1,0,0.2-0.1,0.3-0.2c0,0,0-0.1,0-0.1c0,0,0,0,0-0.1l0-0.4l0-1.4v0c0-0.1,0-0.1,0.1-0.2l1-1.1l0.5-0.6
		c0.1-0.1,0.2-0.2,0.3-0.3c0.1-0.1,0.3-0.2,0.4-0.3c0.3-0.1,0.6-0.1,0.9,0.1c0.1,0,0.1,0.1,0.2,0.1l0.1,0.1l0.3,0.2l1.1,1
		c0.1,0,0.1,0.1,0.1,0.2l0,1.9v0.1v0c0,0,0,0,0,0c0,0,0,0,0,0c0,0,0,0.1,0,0.1c0,0.1,0.1,0.2,0.2,0.2c0,0,0.1,0,0.2,0l0.2,0l0.5,0
		l0.5,0l0.2,0c0.1,0,0.1,0,0.1,0c0.1,0,0.2-0.1,0.2-0.2c0-0.1,0-0.2,0-0.3l0-1.9c0-0.1,0-0.2,0.1-0.2l0,0l1.1-1l0.3-0.2l0.1-0.1
		l0.1-0.1c0.1,0,0.1-0.1,0.2-0.1c0.3-0.1,0.6-0.2,0.9-0.1c0.2,0,0.3,0.1,0.4,0.2c0.1,0,0.1,0.1,0.2,0.2l0.1,0.1l0.5,0.5l1,1.1
		c0.1,0.1,0.1,0.2,0.1,0.2v0l0,1.4l0,0.4l0,0c0,0,0,0,0,0l0,0c0,0,0,0,0,0c0,0,0,0,0,0.1c0,0.1,0.1,0.1,0.2,0.1c0,0,0,0,0,0l0,0
		l1.4,0.2l-0.1,0c0,0,0.1,0,0.1-0.1c0,0,0,0,0-0.1c0,0,0,0,0,0l0-0.1l0-1.1c0-0.2,0.1-0.4,0.3-0.5l0,0l0.5-0.2l0.3-0.1l0.1-0.1
		l0.1,0l0.1,0c0.2-0.1,0.3-0.1,0.5-0.1c0.2,0,0.3,0,0.5,0.1c0.2,0.1,0.3,0.1,0.4,0.2c0.1,0.1,0.1,0.1,0.2,0.2c0,0.1,0.1,0.1,0.1,0.2
		c0.4,0.6,0.9,1.3,1.3,1.9c0.2,0.3,0.1,0.7-0.2,0.9c-0.1,0.1-0.2,0.1-0.3,0.1h0h0l0.6-0.7l0.7,9.3l0.4,4.6c0.1,1.5,0.2,3.1,0.4,4.6
		l0.2,2.3c0.1,0.8,0.1,1.6,0.2,2.3l0.1,0.6l0.1,0.5c0,0.2,0.1,0.4,0.1,0.5c0.1,0.2,0.1,0.4,0.2,0.5c0.2,0.7,0.6,1.4,0.9,2
		c0.4,0.6,0.8,1.3,1.3,1.9c0.5,0.6,1,1.2,1.5,1.7c0.5,0.6,1.1,1.1,1.7,1.6c0.6,0.5,1.2,1,1.8,1.5c0,0,0,0.1,0,0.1c0,0-0.1,0-0.1,0
		c-0.6-0.4-1.3-0.9-1.9-1.4c-0.6-0.5-1.2-1-1.8-1.5c-0.6-0.5-1.1-1.1-1.7-1.6c-0.5-0.6-1-1.2-1.5-1.9c-0.4-0.7-0.8-1.4-1.1-2.1
		c-0.1-0.2-0.1-0.4-0.2-0.6c-0.1-0.2-0.1-0.4-0.2-0.6l-0.1-0.6l-0.1-0.6c-0.1-0.8-0.2-1.5-0.3-2.3c-0.1-0.8-0.2-1.5-0.3-2.3
		c-0.2-1.5-0.3-3.1-0.5-4.6l-0.4-4.6c-0.1-1.5-0.2-3.1-0.3-4.6c-0.1-1.5-0.2-3.1-0.3-4.6l0,0c0-0.3,0.3-0.6,0.6-0.7c0,0,0,0,0,0h0
		l-0.5,1c-0.4-0.6-0.8-1.3-1.2-2l0-0.1c0,0,0,0,0,0c0,0,0,0-0.1,0c0,0-0.1,0-0.1,0c0,0-0.1,0-0.1,0l0,0l0,0l0,0l0,0c0,0,0,0,0,0l0,0
		l-0.1,0l-0.1,0.1l-0.3,0.1l-0.5,0.2l0.3-0.5l0,1.1c0,0,0,0.1,0,0.2c0,0.1,0,0.2-0.1,0.2c-0.1,0.2-0.1,0.3-0.2,0.4
		c-0.2,0.2-0.5,0.4-0.8,0.4l0,0c0,0,0,0-0.1,0l-1.4-0.3l0.1,0c-0.4,0-0.8-0.2-1-0.6c0-0.1-0.1-0.2-0.1-0.3c0,0,0-0.1,0-0.2l0,0v-0.1
		l0-0.4l0-1.4l0.1,0.3l-1-1.1l-0.5-0.6l-0.1-0.1c0,0-0.1-0.1-0.1-0.1C92.1,70.1,92,70,92,70c-0.2-0.1-0.3-0.1-0.5,0
		c0,0-0.1,0-0.1,0.1l-0.1,0.1l-0.1,0l-0.3,0.2l-1.2,0.9l0.1-0.2l0,1.9c0,0.1,0,0.4-0.1,0.6c-0.1,0.2-0.3,0.3-0.5,0.4
		c-0.1,0-0.2,0.1-0.3,0.1l-0.2,0l-0.5,0l-0.5,0l-0.2,0c-0.1,0-0.2,0-0.3-0.1c-0.2-0.1-0.4-0.2-0.5-0.4c-0.1-0.1-0.1-0.2-0.1-0.3
		c0,0,0,0,0-0.1l0-0.1l0-0.1l0-1.9l0.1,0.2l-1.2-1l-0.3-0.2L85.1,70c0,0-0.1-0.1-0.1-0.1c-0.2-0.1-0.4-0.1-0.5,0
		c-0.1,0-0.2,0.1-0.2,0.1c-0.1,0.1-0.2,0.2-0.2,0.3l-0.5,0.6l-1,1.1l0.1-0.2l0,1.4l0,0.4c0,0.1,0,0.2,0,0.2c0,0.1,0,0.2-0.1,0.2
		c-0.2,0.3-0.5,0.5-0.9,0.5l0.1,0l-1.4,0.3c0,0,0,0,0,0l0,0c-0.3,0-0.6-0.1-0.8-0.3c-0.1-0.1-0.2-0.2-0.2-0.4c0-0.1,0-0.1-0.1-0.2
		c0-0.1,0-0.1,0-0.1l0-0.1l0-1.1l0.2,0.4l-0.5-0.2l-0.3-0.1l-0.1-0.1l-0.1,0l0,0c-0.1,0-0.2,0-0.3,0c0,0-0.1,0-0.1,0.1c0,0,0,0,0,0
		c0,0,0,0,0,0l0,0c0,0,0,0,0,0l0,0l0,0l-1.2,2l0.1-0.2c-0.1,2.9-0.3,5.9-0.5,8.8c-0.2,2.9-0.4,5.9-0.7,8.8l-0.4,4.4
		c0,0.4-0.1,0.7-0.1,1.1c0,0.4-0.1,0.8-0.2,1.2c-0.2,0.8-0.5,1.5-0.8,2.2c-0.7,1.4-1.6,2.6-2.6,3.8c-1,1.1-2.1,2.2-3.2,3.1
		c-2.3,1.9-4.8,3.6-7.4,5c-1.3,0.7-2.6,1.4-4,2c-1.4,0.6-2.7,1.1-4.1,1.6c-2.8,1-5.7,1.7-8.6,2.3c-1.5,0.3-2.9,0.4-4.4,0.5
		s-2.9,0.1-4.4,0.1C35.3,119.4,35.3,119.4,35.4,119.3C35.3,119.3,35.3,119.3,35.4,119.3"/>
	<path class="st1" d="M76.3,83.4C77,77.2,89,76.7,89,76.7s-6.6-0.2-12.2,1.8l-1,0.2l-0.5,4.7H76.3z"/>
	<path class="st1" d="M87.5,94.8l0-7.1c1-1.9,2.1-1.3,2.6-0.4c0.6,0.9,0.7,5,0.7,5v-4.2c0-1.3-1-3-3.2-4c-2,1.1-2.6,3.8-2.6,3.8v7.6
		h5.8L87.5,94.8z"/>
	<path class="st2" d="M107.5,158.5h-2.4c-0.9,0-1.4,0.3-2.1,0.9c0-2.3,0-1.3,0-2.6c0-2.5-1.7-4.7-4.3-5c1,1,1.2,2.3,1.2,3.7v9.4
		c0,1.6,1.3,3,3.1,3.2v-6.9c0-0.9,0.8-1.8,1.8-1.8h1.3c1,0,1.9,0.7,1.9,1.6v10.1c0,1.6,1.1,3,2.9,3.3v-12.6
		C110.9,160.1,109.4,158.5,107.5,158.5"/>
	<path class="st2" d="M181.9,158.5h-2.4c-0.9,0-1.4,0.3-2.1,0.9c0-2.3,0-4.1,0-5.4c0-2.5-1.7-4.7-4.3-5c1,1,1.2,2.3,1.2,3.7v12.2
		c0,1.6,1.3,3,3.1,3.2v-6.9c0-0.9,0.8-1.8,1.8-1.8h1.3c1,0,1.9,0.7,1.9,1.6v10.1c0,1.6,1.1,3,2.9,3.3v-12.6
		C185.4,160.1,183.8,158.5,181.9,158.5"/>
	<path class="st2" d="M16.9,168.6c0,1-1.1,1.9-2.2,1.9h-0.6c-1.1,0-2-0.8-2-1.9v-7.3c0-1,0.9-1.9,2-1.9h0.6c1.1,0,2.2,0.8,2.2,1.9
		V168.6z M37.1,159.1c-0.8-0.3-1.5-0.6-2.4-0.6c-5,0.2-5.4,3.4-6.5,5.7c-1.2,2.7-2,6.2-5.8,6.2h-0.3c-1.1,0-2.1-1-2.1-2v-7.2v-2.7
		c0-1.6-1.5-2.9-3.2-3.1v4.1c-0.6-0.5-1.1-0.9-1.9-0.9h-2.5c-2,0-3.5,1.5-3.5,3.2v6.3c0,2.5,1.6,3.2,3.5,3.2h3.1
		c0.9,0,1.9-0.4,2.7-1c0.6,0.6,1.6,1,2.6,1h4.3c4.4,0,5.3-4.8,5.9-6.5c1.2-3.1,2.5-5.2,5.8-5.2L37.1,159.1z"/>
	<path class="st2" d="M66.3,149c1,1,1.2,2.3,1.2,3.7c0,2.7,0,14.1,0,15.9c0,0.7-0.9,1.8-1.7,1.8h-4.6v-14c0-2.3-1.5-4.4-3.7-5
		c-0.5-0.2-0.9-0.3-1.5-0.2c-4.8,0-5.7,3.7-6.5,5.6c-1.7,4.3-2.7,7.6-4,10.9c-1.1,2.5-2.2,5.8-5.7,5.8c-0.1,0-0.2,0-0.2,0l-0.2,0.5
		c0.5,0.2,1.4,0.5,2.4,0.5c4.6,0,5.8-3.8,6.5-5.7c1.3-3.3,2.4-6.4,4.2-11.4c1.4-3.8,2.3-5.1,5.2-5.2c0.3,0.5,0.5,1.3,0.5,2.9v13
		c0,1.6,1.5,3.2,3.1,3.2h6c1.9,0,3.5-1.5,3.5-3.2V154C70.6,151.5,69,149.4,66.3,149"/>
	<path class="st2" d="M153.8,171.3c1.8-0.3,3.1-1.7,3.1-3.3v-5.1c0-2.5-1.6-5-5.2-5c-1.6,0-2.7,0.7-3.6,1.3c0.3-0.1,0.7-0.1,1-0.1
		c2.3,0,4.6,1.6,4.6,4.2L153.8,171.3z"/>
	<path class="st2" d="M146.7,171.3c1.8-0.3,3.1-1.7,3.1-3.3v-5.1c0-2.5-1.6-5-5.2-5c-1.6,0-2.7,0.7-3.6,1.3c0.3-0.1,0.7-0.1,1-0.1
		c2.3,0,4.6,1.6,4.6,4.2L146.7,171.3z"/>
	<path class="st2" d="M139.6,163.2l0,8.1c1.8-0.3,3.1-1.7,3.1-3.3v-5.1c0-2.5-1.6-5-5.2-5C137.5,157.8,139.6,158.9,139.6,163.2"/>
	<path class="st2" d="M-9.8,171.3c1.8-0.3,3.2-1.7,3.2-3.3v-5.6c2.4,0.7,3.9,2.8,5,4.8c1.1,2,2.8,7.1,7.8,7.3c1,0,1.9-0.2,2.7-0.5
		l-0.2-0.5c-3.3,0-5.1-2.3-6.7-5.9c-0.9-2.1-1.8-4.1-5.2-5.8h5.6c1.9,0,3.4-1.1,3.4-2.9v-4.5c0-1.7-1.5-3-3.3-3.1h-4.4
		c-0.7,0.1-1.4,0.2-1.6,0.8l4.3,0c1,0,1.8,0.7,1.9,1.6v5.4c0,1-0.8,1.7-1.9,1.8h-6.4l-1,0v-0.7V154c0-2.5-1.7-4.6-4.3-5
		c1,1,1.1,2.3,1.1,3.7V171.3z"/>
	<path class="st2" d="M122,168.6c0,1-1.1,1.9-2.2,1.9h-0.6c-1.1,0-2-0.8-2-1.9v-7.3c0-1,0.9-1.9,2-1.9h0.6c1.1,0,2.2,0.8,2.2,1.9
		V168.6z M132.3,158.5v9.9c0,1.2-1,2-2.3,2l-2.7,0c-1.1,0-2.1-1-2.1-2v-9.9c0-1.6-1.5-2.9-3.2-3.1v4.1c-0.6-0.5-1.1-0.9-1.9-0.9
		h-2.5c-2,0-3.5,1.5-3.5,3.2v6.3c0,2.5,1.6,3.2,3.5,3.2h3.1c0.9,0,1.9-0.4,2.7-1c0.6,0.6,1.6,1,2.6,1h4.7c2.7,0,4.7-2.4,4.7-5v-4.4
		C135.4,160.2,134.1,158.8,132.3,158.5"/>
	<path class="st2" d="M168,168.6c0,1-1.1,1.9-2.2,1.9h-0.6c-1.1,0-2-0.8-2-1.9v-7.3c0-1,0.9-1.9,2-1.9h0.6c1.1,0,2.2,0.8,2.2,1.9
		V168.6z M173.3,170.9l0-0.4c-0.7,0-2.1-0.3-2.1-2l0-0.2v-9.9c0-1.6-1.5-2.9-3.2-3.1v4.1c-0.6-0.5-1.1-0.9-1.9-0.9h-2.5
		c-2,0-3.5,1.5-3.5,3.2v6.3c0,2.5,1.6,3.2,3.5,3.2h3.1c0.8,0,1.8-0.4,2.6-0.9c0,0,0.9,0.9,2.4,0.9
		C172.5,171.3,172.8,171.1,173.3,170.9"/>
	<path class="st2" d="M135.3,154c0-0.8-0.6-1.4-1.4-1.4c-0.8,0-1.4,0.6-1.4,1.4c0,0.8,0.6,1.4,1.4,1.4
		C134.6,155.3,135.3,154.7,135.3,154"/>
	<path class="st2" d="M56.1,159.9c0-0.8-0.6-1.4-1.4-1.4c-0.8,0-1.4,0.6-1.4,1.4c0,0.8,0.6,1.4,1.4,1.4
		C55.5,161.3,56.1,160.7,56.1,159.9"/>
	<path class="st2" d="M91.1,169.4c0,2.5,1.7,4.6,4.3,5c-1-1-1.2-2.3-1.2-3.8v-6.3c0-1.5-1.3-3.4-3.6-3.4h-4.2
		c2.6-0.8,3.4-2.6,4.2-4.3c0.8-1.7,1.6-5.1,5.7-5.1c0.1,0,0.2-0.7,0.2-0.7c-0.8-0.3-1.4-0.5-2.4-0.5c-4.7,0-5.7,3.8-6.5,5.6
		c-0.8,1.9-1.6,3.9-3.6,4.5c0-3.3,0-6.5,0-6.6c0-2.5-1.7-4.6-4.3-5c1,1,1.2,2.3,1.2,3.8v18.6c1.8-0.3,3.1-1.8,3.1-3.4c0,0,0-3,0-6.2
		c1.5,0,5,0,5.2,0c1,0,1.8,0.4,1.8,1.6V169.4z"/>
	<path class="st2" d="M67.3,127.3c0-0.8-0.6-1.4-1.4-1.4c-0.8,0-1.4,0.6-1.4,1.4c0,0.8,0.6,1.4,1.4,1.4
		C66.7,128.7,67.3,128.1,67.3,127.3"/>
	<path class="st2" d="M29.1,141.8c0,1.1-1.1,2-2.4,2h-0.2c-1.2,0-2.2-0.9-2.2-2v-7c0-1.1,1-2,2.2-2h0.2c1.2,0,2.4,0.9,2.4,2V141.8z
		 M-2.1,141.8c0,1.1-1.1,2-2.4,2h-0.2c-1.2,0-2.2-0.9-2.2-2v-7c0-1.1,1-2,2.2-2h0.2c1.2,0,2.4,0.9,2.4,2V141.8z M82.6,127.4
		c0-2.5-1.7-4.6-4.3-5c1,1,1.2,2.3,1.2,3.7l0,15.4c0,0.7-0.6,2.4-2.5,2.4h-2.6c-1.1-0.1-2.1-1.3-2.1-2.3v-6.3c0-1.7-1.2-3.1-3-3.3
		h-6.4c-1.7,0-3.1,0.9-3.1,2.8l0,3.7c1.5,0,3.1-1.1,3.1-3.3c0-1.1,1.4-2,2.7-2h1.4c1.2,0,2.2,0.9,2.2,2v5.7c0,1.1,1.3,2.8,2.7,3
		l-29.9,0c-1.9,0-2-2.1-2-2.1V137c0-1.8-1.2-3.3-3.1-3.6v8.3c0,1.2-0.4,2-1.8,2h-0.8c-0.8,0-1.9-0.4-1.9-2.1v-9.8
		c0-1.8-1.3-2.9-3.2-3.1c0,0,0,2.8,0,4.3c-0.4-0.6-2-1.1-3-1.1h-3.9c-6.4,0-7,3.1-8.1,5.6c-1.8,4-3.5,6.4-7.5,6.4
		c-0.1,0-3.3,0-3.3,0c-1.2,0-2.2-0.9-2.2-2v-9.8c0-1.7-1.4-3.1-3.2-3.3v4.1c-0.6-0.6-1.5-0.9-2.4-0.9h-1.5c-2.1,0-3.8,1.6-3.8,3.5
		v5.7c0,1.9,1.7,3.6,3.8,3.6h2.4c1,0,2-0.4,2.9-1.1c0.7,0.7,1.7,1.1,2.8,1.1h6.8c4.7,0,7.6-4.2,8.4-6.6c1.1-3.2,2.3-5.3,5.7-5.3
		c-1.4,0-1.7,1.6-1.7,2.4v6.2c0,1.9,1.5,3.3,3.6,3.3h2.9c1,0,1.9-0.2,2.6-0.8c0.7,0.6,1.5,0.8,2.5,0.8H33h0h0c0,0,3.4,0,4-0.1
		c0.1,0,1.7-0.1,2.2-0.9c0,0,0,0,0,0c0.5,0.5,1,1,2,1c0,0,36.5,0.1,37.1,0.1c2.1,0,4.3-1.7,4.3-3.5V127.4z"/>
	<path class="st2" d="M185.4,141.5v-5.7c0-1.5,0.5-2.9,1.5-4c-2.9,0.4-4.7,2.7-4.7,5.4v4.6c0,1-1.2,2.1-2.3,2.1h-14.5
		c-0.8,0.1-1.2,0.2-1.5,0.8h17.5C183.7,144.6,185.4,143,185.4,141.5"/>
	<path class="st2" d="M161.1,120.6c0.7,0,1.3-0.5,1.4-1.1h-2.1c-0.4,0-0.8-0.3-0.8-0.6v-0.2c0-0.4,0.3-0.7,0.7-0.7h0.7
		c0.7,0,1.3-0.4,1.4-1h-1.8c-0.7,0-1.4,0.6-1.4,1.2v0.5c0,0.3,0.1,0.5,0.4,0.7h-0.1h-0.1c-1.1,0-2,0.6-2.1,1.5
		c0.4-0.3,1-0.4,1.6-0.4H161.1z"/>
	<path class="st2" d="M161.7,137c0,2.3,0,1.3,0,2.6c0,2.5-1.7,4.6-4.3,5c1-1,1.2-2.3,1.2-3.7v-15.4c0-1.6,1.3-3,3.1-3.2v6.9V137z"/>
	<path class="st2" d="M40.2,152.8c0-0.8-0.6-1.4-1.4-1.4c-0.8,0-1.4,0.6-1.4,1.4c0,0.8,0.6,1.4,1.4,1.4
		C39.6,154.2,40.2,153.6,40.2,152.8"/>
	<path class="st2" d="M40.2,149.2c0-0.8-0.6-1.4-1.4-1.4c-0.8,0-1.4,0.6-1.4,1.4c0,0.8,0.6,1.4,1.4,1.4
		C39.6,150.6,40.2,150,40.2,149.2"/>
	<path class="st2" d="M151.6,139.3c0,2.6-2.3,4.2-4.6,4.2c-0.3,0-0.7,0-1-0.1c0.8,0.6,2,1.3,3.6,1.3c3.6,0,5.2-2.6,5.2-5v-5.1
		c0-1.6-1.3-3.1-3.1-3.3L151.6,139.3z"/>
	<path class="st2" d="M144.5,139.3c0,2.6-2.3,4.2-4.6,4.2c-0.3,0-0.7,0-1-0.1c0.8,0.6,2,1.3,3.6,1.3c3.6,0,5.2-2.6,5.2-5v-5.1
		c0-1.6-1.3-3.1-3.1-3.3L144.5,139.3z"/>
	<path class="st2" d="M134.4,143.8c-0.6,0-35,0-35,0c-0.8,0.1-1.2,0.2-1.5,0.8l36.4,0l1.1,0c3.6,0,5.2-2.6,5.2-5v-5.1
		c0-1.6-1.3-3.1-3.1-3.3l0,8.1C137.4,141.5,136.8,143.8,134.4,143.8"/>
	<path class="st2" d="M89.4,137c0,2.3,0,1.3,0,2.6c0,2.5-1.7,4.6-4.3,5c1-1,1.2-2.3,1.2-3.7v-15.4c0-1.6,1.3-3,3.1-3.2v6.9V137z"/>
	<path class="st2" d="M-4.9,125.4c-0.8,0-1.4,0.6-1.4,1.4c0,0.8,0.6,1.4,1.4,1.4c0.8,0,1.4-0.6,1.4-1.4
		C-3.5,126-4.1,125.4-4.9,125.4"/>
	<path class="st2" d="M-8.5,125.4c-0.8,0-1.4,0.6-1.4,1.4c0,0.8,0.6,1.4,1.4,1.4c0.8,0,1.4-0.6,1.4-1.4
		C-7.1,126-7.8,125.4-8.5,125.4"/>
	<path class="st2" d="M130.6,106.2c0,0-1.1-0.3-3.1-0.7c-2-0.4-4.9-1-8.3-1.4c-3.5-0.4-7.5-0.7-11.9-0.7c-2.2,0-4.4,0.1-6.7,0.3
		c-2.3,0.2-4.5,0.6-6.8,1c-2.3,0.5-4.5,1.1-6.6,1.8c-1.1,0.4-2.1,0.8-3.1,1.2c-0.5,0.2-1,0.4-1.5,0.7c-0.5,0.2-1,0.5-1.5,0.7
		c-2,1-3.8,1.9-5.6,2.8c-1.8,0.9-3.5,1.7-5.1,2.4c-1.6,0.7-3.1,1.3-4.5,1.8c-1.3,0.5-2.5,0.8-3.5,1.1c-1,0.3-1.8,0.5-2.3,0.6
		c-0.5,0.1-0.8,0.2-0.8,0.2s0.3-0.1,0.8-0.3c0.3-0.1,0.6-0.2,0.9-0.4c0.4-0.2,0.8-0.3,1.3-0.5c0.9-0.4,2.1-0.9,3.3-1.5
		c1.3-0.6,2.7-1.3,4.3-2.1c1.6-0.8,3.2-1.7,5-2.6c1.8-0.9,3.7-1.9,5.7-2.8c0.5-0.2,1-0.5,1.5-0.7c0.5-0.2,1-0.5,1.6-0.7
		c1-0.5,2.1-0.9,3.2-1.2c2.2-0.7,4.5-1.3,6.8-1.8c2.3-0.4,4.7-0.7,7-0.9c2.3-0.2,4.6-0.2,6.8-0.2c4.4,0.1,8.5,0.5,11.9,1.1
		c1.7,0.3,3.3,0.6,4.7,0.9c1.4,0.3,2.6,0.6,3.6,0.9C129.5,105.8,130.6,106.2,130.6,106.2"/>
	<polygon class="st2" points="-6.8,204.5 -8,204.5 -8,197.1 -10.5,197.1 -10.5,196.3 -4.3,196.3 -4.3,197.1 -6.8,197.1 	"/>
	<path class="st2" d="M0.3,199c-1.3,0-1.7,1.3-1.7,2.5c0,0.8,0.1,1.3,0.2,1.5c0.3,0.8,0.9,1.1,1.5,1.1c0.9,0,1.7-0.7,1.7-2.6
		C2,200.2,1.5,199,0.3,199 M2.5,203.7c-0.3,0.4-1,1-2.3,1c-0.5,0-1.2-0.1-1.9-0.6c-0.9-0.8-1-1.9-1-2.5c0-2.3,1.3-3.3,2.9-3.3
		c1.7,0,2.8,1.3,2.8,3.1C3.1,202.5,2.9,203.2,2.5,203.7"/>
	<path class="st2" d="M10.5,198.6v5.9H9.5v-0.7c-0.2,0.3-0.7,1-1.8,1c-0.7,0-1.3-0.3-1.6-0.7c-0.3-0.4-0.4-0.9-0.4-1.6v-3.9h1.1v3.4
		c0,0.6,0,1,0.2,1.3c0.2,0.3,0.5,0.6,1.1,0.6c0.1,0,0.9,0,1.5-0.8v-4.6H10.5z"/>
	<path class="st2" d="M14.3,204.5h-1.1v-5.9h1.1v0.8c0.2-0.3,0.7-1,1.5-1c0.3,0,0.5,0.1,0.6,0.1v0.9c-0.2-0.1-0.5-0.2-0.9-0.2
		c-0.7,0-1.1,0.5-1.2,0.7V204.5z"/>
	<path class="st2" d="M19.6,204.5h-1.1v-5.9h1.1V204.5z M19.1,196.3c0.4,0,0.6,0.3,0.6,0.6c0,0.5-0.4,0.6-0.6,0.6
		c-0.3,0-0.6-0.2-0.6-0.6C18.5,196.5,18.7,196.3,19.1,196.3"/>
	<path class="st2" d="M26.1,200.1c-0.2-0.3-0.6-1-1.7-1c-0.8,0-1.3,0.4-1.3,0.9c0,0.5,0.4,0.7,1,0.9c0,0,0.5,0.2,0.6,0.2
		c0.6,0.2,1.8,0.5,1.8,1.8c0,0.6-0.2,1-0.6,1.3c-0.5,0.4-1.1,0.5-1.7,0.5c-0.6,0-1.2-0.1-1.6-0.5c-0.6-0.5-0.7-1.1-0.8-1.3
		c0.1,0,0.2-0.1,0.3-0.1c0.1,0.2,0.2,0.4,0.5,0.6c0.4,0.3,0.9,0.5,1.5,0.5c0.8,0,1.3-0.4,1.3-1c0-0.6-0.4-0.8-0.6-0.9
		c-0.2-0.1-0.5-0.2-1.2-0.4c-0.6-0.2-1.6-0.5-1.6-1.6c0-1,0.8-1.7,2.1-1.7c0.5,0,1,0.1,1.5,0.4c0.6,0.4,0.7,1,0.7,1.2
		C26.3,200,26.2,200.1,26.1,200.1"/>
	<path class="st2" d="M37.1,204.5h-1v-3.7c0-0.4,0-0.6,0-0.8c0-0.2-0.1-0.9-1-0.9c-0.8,0-1.3,0.7-1.5,0.9v4.5h-1v-3.6
		c0-0.3,0-0.6,0-0.8c-0.1-0.9-0.9-0.9-1.1-0.9c-0.6,0-1.1,0.4-1.5,0.9v4.5h-1v-5.9h1v0.8c0.2-0.3,0.8-1.1,1.9-1.1
		c0.3,0,0.7,0.1,1,0.2c0.5,0.3,0.6,0.7,0.7,0.9c0.1-0.2,0.3-0.4,0.6-0.7c0.5-0.4,1.1-0.5,1.4-0.5c0.8,0,1.2,0.3,1.4,0.7
		c0.2,0.4,0.3,1,0.3,1.7V204.5z"/>
	<path class="st2" d="M45.6,203.8h1.1c1.1,0,1.7-0.1,2.3-0.5c0.5-0.3,1.3-1.2,1.3-2.8c0-1.1-0.3-1.9-0.8-2.4c-0.8-1-2-1-2.9-1h-1.1
		V203.8z M44.5,204.5v-8.2h2.7c1.2,0,2.2,0.2,3,0.9c0.8,0.6,1.3,1.8,1.3,3.1c0,1.3-0.5,2.4-1.2,3c-0.8,0.8-1.9,1.1-3.3,1.1H44.5z"/>
	<path class="st2" d="M58.3,200.9c-0.1-1.5-1.1-1.8-1.7-1.8c-0.7,0-1.6,0.5-1.8,1.8H58.3z M54.8,201.6c0,0.3,0.1,1,0.5,1.6
		c0.6,0.8,1.4,0.8,1.6,0.8c1.3,0,1.8-0.9,2-1.2c0.1,0,0.2,0.1,0.3,0.1c-0.1,0.4-0.6,1.9-2.6,1.9c-1.6,0-3-1.1-3-3.2
		c0-2,1.4-3.2,2.9-3.2c0.8,0,1.4,0.3,1.8,0.7c0.9,0.8,0.9,2.1,0.9,2.5H54.8z"/>
	<path class="st2" d="M66.4,198.6l-2.6,6h-0.4l-2.6-6H62l1.6,3.9c0,0,0.1,0.2,0.1,0.4c0-0.1,0-0.2,0.1-0.4l1.7-3.9H66.4z"/>
	<path class="st2" d="M72.7,200.9c-0.1-1.5-1.1-1.8-1.7-1.8c-0.7,0-1.6,0.5-1.8,1.8H72.7z M69.2,201.6c0,0.3,0.1,1,0.5,1.6
		c0.6,0.8,1.4,0.8,1.6,0.8c1.3,0,1.8-0.9,2-1.2c0.1,0,0.2,0.1,0.3,0.1c-0.1,0.4-0.6,1.9-2.6,1.9c-1.6,0-3-1.1-3-3.2
		c0-2,1.4-3.2,2.9-3.2c0.8,0,1.4,0.3,1.8,0.7c0.9,0.8,0.9,2.1,0.9,2.5H69.2z"/>
	<rect x="76" y="196.3" class="st2" width="1.1" height="8.2"/>
	<path class="st2" d="M82.4,199c-1.3,0-1.7,1.3-1.7,2.5c0,0.8,0.1,1.3,0.2,1.5c0.3,0.8,0.9,1.1,1.5,1.1c0.9,0,1.7-0.7,1.7-2.6
		C84.1,200.2,83.6,199,82.4,199 M84.6,203.7c-0.3,0.4-1,1-2.3,1c-0.5,0-1.2-0.1-1.9-0.6c-0.9-0.8-1-1.9-1-2.5c0-2.3,1.3-3.3,2.9-3.3
		c1.7,0,2.8,1.3,2.8,3.1C85.3,202.5,85,203.2,84.6,203.7"/>
	<path class="st2" d="M88.8,203.5c0.6,0.6,1.3,0.6,1.4,0.6c0.5,0,1.9-0.3,1.9-2.5c0-1.2-0.5-2.4-1.7-2.4c-0.6,0-1.1,0.3-1.6,0.8
		V203.5z M88.8,198.6v0.7c0.3-0.3,0.9-0.9,2-0.9c1.5,0,2.5,1.3,2.5,3.1c0,1.9-1,3.3-2.7,3.3c-1,0-1.5-0.5-1.8-0.8v2.8h-1v-8.2H88.8z
		"/>
	<path class="st2" d="M104,204.5h-1v-3.7c0-0.4,0-0.6,0-0.8c0-0.2-0.1-0.9-1-0.9c-0.8,0-1.3,0.7-1.5,0.9v4.5h-1v-3.6
		c0-0.3,0-0.6,0-0.8c-0.1-0.9-0.9-0.9-1.1-0.9c-0.6,0-1.1,0.4-1.5,0.9v4.5h-1v-5.9h1v0.8c0.2-0.3,0.8-1.1,1.9-1.1
		c0.3,0,0.7,0.1,1,0.2c0.5,0.3,0.6,0.7,0.7,0.9c0.1-0.2,0.3-0.4,0.6-0.7c0.5-0.4,1.1-0.5,1.4-0.5c0.8,0,1.2,0.3,1.4,0.7
		c0.2,0.4,0.3,1,0.3,1.7V204.5z"/>
	<path class="st2" d="M111.1,200.9c-0.1-1.5-1.1-1.8-1.7-1.8c-0.7,0-1.6,0.5-1.8,1.8H111.1z M107.5,201.6c0,0.3,0.1,1,0.5,1.6
		c0.6,0.8,1.4,0.8,1.6,0.8c1.3,0,1.8-0.9,2-1.2c0.1,0,0.2,0.1,0.3,0.1c-0.1,0.4-0.6,1.9-2.6,1.9c-1.6,0-3-1.1-3-3.2
		c0-2,1.4-3.2,2.9-3.2c0.8,0,1.4,0.3,1.8,0.7c0.9,0.8,0.9,2.1,0.9,2.5H107.5z"/>
	<path class="st2" d="M119.3,204.5h-1v-3.3c0-0.6,0-0.9-0.1-1.3c-0.2-0.6-0.8-0.8-1.2-0.8c-0.6,0-1.2,0.3-1.6,1v4.4h-1v-5.9h1v0.8
		c0.2-0.3,0.8-1.1,2-1.1c0.9,0,1.2,0.3,1.4,0.4c0.5,0.5,0.5,1,0.5,1.6V204.5z"/>
	<path class="st2" d="M123.2,202.7c0,0.8,0,1.5,0.8,1.5c0.3,0,0.5-0.1,0.7-0.2c0,0.1,0.1,0.2,0.2,0.3c-0.2,0.2-0.6,0.5-1.3,0.5
		c-0.5,0-0.8-0.2-1-0.3c-0.5-0.3-0.5-0.8-0.5-1.5v-3.7h-0.8v-0.7h0.8v-1.6h1.1v1.6h1.2v0.7h-1.2V202.7z"/>
	<path class="st2" d="M135.7,201.5l-1.2-2.7c-0.2-0.3-0.2-0.6-0.2-0.7c-0.1,0.3-0.1,0.3-0.2,0.7l-1.3,2.8H135.7z M138.3,204.5h-1.2
		l-1.1-2.3h-3.7l-1.1,2.3h-1l3.8-8.2h0.3L138.3,204.5z"/>
	<path class="st2" d="M145.1,198.6v5.9h-1.1v-0.7c-0.2,0.3-0.7,1-1.8,1c-0.7,0-1.3-0.3-1.6-0.7c-0.3-0.4-0.4-0.9-0.4-1.6v-3.9h1.1
		v3.4c0,0.6,0,1,0.2,1.3c0.2,0.3,0.5,0.6,1.1,0.6c0.1,0,0.9,0,1.5-0.8v-4.6H145.1z"/>
	<path class="st2" d="M149,202.7c0,0.8,0,1.5,0.8,1.5c0.3,0,0.5-0.1,0.7-0.2c0,0.1,0.1,0.2,0.2,0.3c-0.2,0.2-0.6,0.5-1.3,0.5
		c-0.5,0-0.8-0.2-1-0.3c-0.5-0.3-0.5-0.8-0.5-1.5v-3.7h-0.8v-0.7h0.8v-1.6h1.1v1.6h1.2v0.7H149V202.7z"/>
	<path class="st2" d="M157.4,204.5h-1.1v-3.8c0-0.6,0-1.6-1.2-1.6c-0.5,0-0.8,0.2-1,0.3c-0.3,0.2-0.7,0.7-0.7,0.7v4.3h-1.1v-8.2h1.1
		v3.2c0.3-0.4,0.9-1.1,2.1-1.1c0.5,0,0.9,0.1,1.3,0.5c0.5,0.5,0.5,1,0.5,1.5V204.5z"/>
	<path class="st2" d="M162.7,199c-1.3,0-1.7,1.3-1.7,2.5c0,0.8,0.1,1.3,0.2,1.5c0.3,0.8,0.9,1.1,1.5,1.1c0.9,0,1.7-0.7,1.7-2.6
		C164.4,200.2,163.9,199,162.7,199 M164.9,203.7c-0.3,0.4-1,1-2.3,1c-0.5,0-1.2-0.1-1.9-0.6c-0.9-0.8-0.9-1.9-0.9-2.5
		c0-2.3,1.3-3.3,2.9-3.3c1.7,0,2.8,1.3,2.8,3.1C165.5,202.5,165.3,203.2,164.9,203.7"/>
	<path class="st2" d="M169.1,204.5H168v-5.9h1.1v0.8c0.2-0.3,0.7-1,1.5-1c0.3,0,0.5,0.1,0.6,0.1v0.9c-0.2-0.1-0.5-0.2-0.9-0.2
		c-0.7,0-1.1,0.5-1.2,0.7V204.5z"/>
	<path class="st2" d="M174.3,204.5h-1.1v-5.9h1.1V204.5z M173.8,196.3c0.4,0,0.6,0.3,0.6,0.6c0,0.5-0.4,0.6-0.6,0.6
		c-0.3,0-0.6-0.2-0.6-0.6C173.2,196.5,173.4,196.3,173.8,196.3"/>
	<path class="st2" d="M178.2,202.7c0,0.8,0,1.5,0.8,1.5c0.3,0,0.5-0.1,0.7-0.2c0,0.1,0.1,0.2,0.2,0.3c-0.2,0.2-0.6,0.5-1.3,0.5
		c-0.5,0-0.8-0.2-1-0.3c-0.5-0.3-0.5-0.8-0.5-1.5v-3.7h-0.8v-0.7h0.8v-1.6h1.1v1.6h1.2v0.7h-1.2V202.7z"/>
	<path class="st2" d="M186.4,198.6l-2.6,5.8c-0.7,1.6-1.5,2.5-3,2.4v-0.3c1-0.3,1.5-0.9,2.3-2.6l-2.3-5.3h1.2l1.7,4.1l1.8-4.1H186.4
		z"/>
	<path class="st2" d="M-5.2,182.3c0,0.4-0.2,0.6-0.6,0.6c-0.4,0-0.7-0.2-0.7-0.6c0-0.4,0.2-0.6,0.7-0.6
		C-5.5,181.7-5.2,181.9-5.2,182.3 M-7.1,182.3c0,0.4-0.2,0.6-0.7,0.6c-0.4,0-0.7-0.2-0.7-0.6c0-0.4,0.2-0.6,0.7-0.6
		C-7.4,181.7-7.1,181.9-7.1,182.3 M-6,189.7l-0.1-4.2c-0.4,0-0.7,0-1,0c-0.6,0-1.1,0.2-1.5,0.6c-0.4,0.4-0.6,1-0.6,1.6
		c0,1.5,0.6,2.2,1.7,2.2C-7,190-6.5,189.9-6,189.7 M-3,191h-1c-0.5,0-0.9-0.1-1.2-0.3c-0.3-0.2-0.5-0.3-0.6-0.5
		c-0.5,0.3-1.2,0.5-2,0.5c-1.4,0-2.3-1-2.3-2.7c0-0.9,0.3-1.6,0.9-2.1c0.6-0.5,1.4-0.8,2.3-0.8h0.8l-0.1-0.8
		c0.5-0.1,0.9-0.2,1.2-0.3v4.8c0,1,0.5,1.5,1.4,1.5H-3V191z"/>
	<rect x="-3.4" y="190.3" class="st2" width="2" height="0.7"/>
	<rect x="-1.9" y="190.3" class="st2" width="2" height="0.7"/>
	<rect x="-0.3" y="190.3" class="st2" width="2" height="0.7"/>
	<rect x="1.2" y="190.3" class="st2" width="2" height="0.7"/>
	<rect x="2.8" y="190.3" class="st2" width="2" height="0.7"/>
	<rect x="4.3" y="190.3" class="st2" width="2" height="0.7"/>
	<rect x="5.8" y="190.3" class="st2" width="2" height="0.7"/>
	<rect x="7.4" y="190.3" class="st2" width="2" height="0.7"/>
	<path class="st2" d="M16.8,191H8.9v-0.7l6.6,0c-0.3-0.9-0.8-1.9-1.6-3c-0.9-1.3-1.8-2-2.6-2c-0.5,0-1,0.4-1,1.1
		c0,0.2,0.1,0.5,0.2,0.8l-0.8,0.1c0.1-1.6,1-2.6,2.2-2.6c1,0,2.1,0.8,3.2,2.4C16.2,188.7,16.7,190,16.8,191"/>
	<path class="st2" d="M22,191h-1.3c-1.3,0-1.9-0.6-1.9-1.9V184l-0.2-1.6l1.1-0.2v6.8c0,1,0.5,1.5,1.4,1.5H22V191z"/>
	<rect x="21.6" y="190.3" class="st2" width="2" height="0.7"/>
	<rect x="23.2" y="190.3" class="st2" width="2" height="0.7"/>
	<rect x="24.7" y="190.3" class="st2" width="2" height="0.7"/>
	<path class="st2" d="M29.7,193.5c0,0.4-0.2,0.6-0.7,0.6c-0.4,0-0.7-0.2-0.7-0.6c0-0.4,0.2-0.6,0.7-0.6
		C29.4,192.8,29.7,193.1,29.7,193.5 M27.7,193.5c0,0.4-0.2,0.6-0.7,0.6c-0.4,0-0.7-0.2-0.7-0.6c0-0.4,0.2-0.6,0.7-0.6
		C27.4,192.8,27.7,193.1,27.7,193.5 M31.6,191h-0.9c-0.6,0-1.1-0.2-1.5-0.6c-0.3,0.4-0.8,0.6-1.4,0.6h-1.6v-0.7h1.2
		c0.9,0,1.4-0.5,1.4-1.5v-1.7l-0.2-1.7l1.1-0.3v3.7c0,1,0.4,1.5,1.4,1.5h0.6V191z"/>
	<rect x="31.2" y="190.3" class="st2" width="2" height="0.7"/>
	<rect x="32.8" y="190.3" class="st2" width="2" height="0.7"/>
	<rect x="34.3" y="190.3" class="st2" width="2" height="0.7"/>
	<path class="st2" d="M49,191H48c-0.7,0-1.1-0.2-1.5-0.6c-0.3,0.4-0.8,0.6-1.4,0.6c-0.8,0-1.5-0.4-2.1-1.1c-0.3,0.8-0.9,1.1-1.8,1.1
		c-0.8,0-1.4-0.3-2-1c-0.1,0.2-0.2,0.4-0.4,0.5c-0.3,0.3-0.8,0.5-1.4,0.5h-1.7v-0.7h1.4c0.9,0,1.4-0.5,1.4-1.5l0-2.9l0.9-0.2v3.5
		c0,0.1,0,0.2,0,0.3c0.5,0.5,1,0.7,1.5,0.7c0.9,0,1.4-0.5,1.4-1.5v-2.9l0.9-0.2v3.7c0.5,0.6,1.1,0.8,1.6,0.8c0.9,0,1.3-0.5,1.3-1.5
		v-1.7l-0.3-1.7l1.1-0.3v3.8c0,1,0.5,1.5,1.4,1.5H49V191z"/>
	<rect x="48.6" y="190.3" class="st2" width="2" height="0.7"/>
	<rect x="50.2" y="190.3" class="st2" width="2" height="0.7"/>
	<rect x="51.7" y="190.3" class="st2" width="2" height="0.7"/>
	<rect x="53.3" y="190.3" class="st2" width="2" height="0.7"/>
	<rect x="54.8" y="190.3" class="st2" width="2" height="0.7"/>
	<rect x="56.4" y="190.3" class="st2" width="2" height="0.7"/>
	<rect x="57.9" y="190.3" class="st2" width="2" height="0.7"/>
	<rect x="59.4" y="190.3" class="st2" width="2" height="0.7"/>
	<rect x="61" y="190.3" class="st2" width="2" height="0.7"/>
	<path class="st2" d="M66.9,189.1c0,1.2-0.7,1.9-1.9,1.9h-2.5v-0.7h2.1c0.9,0,1.4-0.5,1.4-1.5V184l-0.2-1.7l1.1-0.3V189.1z"/>
	<polygon class="st2" points="69.9,182.1 69.7,183.7 69.7,191 68.8,191 68.8,183.7 68.6,182.2 	"/>
	<path class="st2" d="M83.6,182.3c0,0.4-0.2,0.6-0.6,0.6c-0.4,0-0.7-0.2-0.7-0.6c0-0.4,0.2-0.6,0.7-0.6
		C83.3,181.7,83.6,181.9,83.6,182.3 M81.7,182.3c0,0.4-0.2,0.6-0.7,0.6c-0.4,0-0.7-0.2-0.7-0.6c0-0.4,0.2-0.6,0.7-0.6
		C81.4,181.7,81.7,181.9,81.7,182.3 M82.8,189.7l-0.1-4.2c-0.4,0-0.7,0-1,0c-0.6,0-1.1,0.2-1.5,0.6c-0.4,0.4-0.6,1-0.6,1.6
		c0,1.5,0.6,2.2,1.7,2.2C81.8,190,82.3,189.9,82.8,189.7 M85.8,191h-1c-0.5,0-0.9-0.1-1.2-0.3c-0.3-0.2-0.5-0.3-0.6-0.5
		c-0.5,0.3-1.2,0.5-2,0.5c-1.4,0-2.3-1-2.3-2.7c0-0.9,0.3-1.6,0.9-2.1c0.6-0.5,1.4-0.8,2.3-0.8h0.8l-0.1-0.8
		c0.5-0.1,0.9-0.2,1.2-0.3v4.8c0,1,0.5,1.5,1.4,1.5h0.6V191z"/>
	<rect x="85.4" y="190.3" class="st2" width="2" height="0.7"/>
	<rect x="86.9" y="190.3" class="st2" width="2" height="0.7"/>
	<rect x="88.5" y="190.3" class="st2" width="2" height="0.7"/>
	<path class="st2" d="M93.4,193.5c0,0.4-0.2,0.6-0.7,0.6c-0.4,0-0.7-0.2-0.7-0.6c0-0.4,0.2-0.6,0.7-0.6
		C93.1,192.8,93.4,193.1,93.4,193.5 M91.5,193.5c0,0.4-0.2,0.6-0.7,0.6c-0.4,0-0.7-0.2-0.7-0.6c0-0.4,0.2-0.6,0.7-0.6
		C91.2,192.8,91.5,193.1,91.5,193.5 M95.4,191h-0.9c-0.6,0-1.1-0.2-1.5-0.6c-0.3,0.4-0.8,0.6-1.4,0.6h-1.6v-0.7h1.2
		c0.9,0,1.4-0.5,1.4-1.5v-1.7l-0.2-1.7l1.1-0.3v3.7c0,1,0.4,1.5,1.4,1.5h0.6V191z"/>
	<rect x="95" y="190.3" class="st2" width="2" height="0.7"/>
	<rect x="96.5" y="190.3" class="st2" width="2" height="0.7"/>
	<rect x="98.1" y="190.3" class="st2" width="2" height="0.7"/>
	<rect x="99.6" y="190.3" class="st2" width="2" height="0.7"/>
	<rect x="101.2" y="190.3" class="st2" width="2" height="0.7"/>
	<path class="st2" d="M109.1,190.3v-2.9l-0.1-1.1c-0.4-0.1-0.7-0.2-1-0.2c-0.7,0-1.3,0.3-1.7,0.8c-0.3,0.5-0.5,1.1-0.5,1.8
		c0,1.4,0.6,2.3,1.6,2.3C108.1,191.2,108.6,190.9,109.1,190.3 M112.3,191h-1.2c-0.6,0-1-0.2-1.5-0.6c-0.6,0.9-1.6,1.5-2.5,1.5
		c-0.8,0-1.5-0.4-1.9-1.3c-0.3,0.3-0.7,0.4-1.2,0.4h-1.2v-0.7h0.8c0.9,0,1.3-0.4,1.3-1.2c0.1-2.1,1.4-3.4,3.4-3.4
		c0.7,0,1.3,0.1,1.8,0.3l-0.1,1.3v1.5c0,1,0.4,1.5,1.4,1.5h0.9V191z"/>
	<rect x="111.9" y="190.3" class="st2" width="2" height="0.7"/>
	<rect x="113.5" y="190.3" class="st2" width="2" height="0.7"/>
	<rect x="115" y="190.3" class="st2" width="2" height="0.7"/>
	<path class="st2" d="M120.1,182.7c0,0.4-0.2,0.6-0.7,0.6c-0.4,0-0.7-0.2-0.7-0.6s0.2-0.6,0.7-0.6
		C119.8,182.1,120.1,182.3,120.1,182.7 M121.9,191h-0.9c-0.6,0-1.1-0.2-1.5-0.6c-0.3,0.4-0.8,0.6-1.4,0.6h-1.6v-0.7h1.2
		c0.9,0,1.4-0.5,1.4-1.5v-1.7l-0.2-1.7l1.1-0.3v3.7c0,1,0.4,1.5,1.4,1.5h0.6V191z"/>
	<rect x="121.5" y="190.3" class="st2" width="2" height="0.7"/>
	<rect x="123.1" y="190.3" class="st2" width="2" height="0.7"/>
	<rect x="124.6" y="190.3" class="st2" width="2" height="0.7"/>
	<path class="st2" d="M129.9,182.7c0,0.4-0.2,0.6-0.7,0.6c-0.4,0-0.6-0.2-0.6-0.6s0.2-0.6,0.6-0.6
		C129.6,182.1,129.9,182.3,129.9,182.7 M127.9,182.7c0,0.4-0.2,0.6-0.7,0.6c-0.4,0-0.7-0.2-0.7-0.6s0.2-0.6,0.7-0.6
		C127.6,182.1,127.9,182.3,127.9,182.7 M130,189.1c0,1.2-0.7,1.9-1.9,1.9h-2v-0.7h1.6c0.9,0,1.4-0.5,1.4-1.5v-1.7l-0.2-1.7l1.1-0.3
		V189.1z"/>
	<path class="st2" d="M143.7,182.3c0,0.4-0.2,0.6-0.6,0.6c-0.4,0-0.7-0.2-0.7-0.6c0-0.4,0.2-0.6,0.7-0.6
		C143.4,181.7,143.7,181.9,143.7,182.3 M141.8,182.3c0,0.4-0.2,0.6-0.7,0.6c-0.4,0-0.7-0.2-0.7-0.6c0-0.4,0.2-0.6,0.7-0.6
		C141.5,181.7,141.8,181.9,141.8,182.3 M143,189.7l-0.1-4.2c-0.4,0-0.7,0-1,0c-0.6,0-1.1,0.2-1.5,0.6c-0.4,0.4-0.6,1-0.6,1.6
		c0,1.5,0.6,2.2,1.7,2.2C141.9,190,142.4,189.9,143,189.7 M145.9,191h-1c-0.5,0-0.9-0.1-1.2-0.3c-0.3-0.2-0.5-0.3-0.6-0.5
		c-0.5,0.3-1.2,0.5-2,0.5c-1.4,0-2.3-1-2.3-2.7c0-0.9,0.3-1.6,0.9-2.1c0.6-0.5,1.4-0.8,2.3-0.8h0.8l-0.1-0.8
		c0.5-0.1,0.9-0.2,1.2-0.3v4.8c0,1,0.5,1.5,1.4,1.5h0.6V191z"/>
	<rect x="145.5" y="190.3" class="st2" width="2" height="0.7"/>
	<rect x="147" y="190.3" class="st2" width="2" height="0.7"/>
	<rect x="148.6" y="190.3" class="st2" width="2" height="0.7"/>
	<path class="st2" d="M155.1,184.2h-4.2v-0.4h0.8v-0.5c0-1.2,0.5-1.8,1.6-1.8c0.5,0,0.9,0.2,1.3,0.5l0,0l-0.2,0.2h0
		c-0.3-0.2-0.5-0.3-0.8-0.3c-0.9,0-1.3,0.5-1.3,1.5l0,0.4h1.5l0.6-0.1L155.1,184.2z M155.6,191h-0.9c-0.7,0-1.1-0.2-1.5-0.6
		c-0.3,0.4-0.8,0.6-1.4,0.6h-1.6v-0.7h1.2c0.9,0,1.4-0.5,1.4-1.5v-1.7l-0.3-1.7l1.1-0.3v3.7c0,1,0.5,1.5,1.4,1.5h0.6V191z"/>
	<rect x="155.3" y="190.3" class="st2" width="2" height="0.7"/>
	<rect x="156.9" y="190.3" class="st2" width="2" height="0.7"/>
	<rect x="158.4" y="190.3" class="st2" width="2" height="0.7"/>
	<path class="st2" d="M163.4,193.5c0,0.4-0.2,0.6-0.7,0.6c-0.4,0-0.7-0.2-0.7-0.6c0-0.4,0.2-0.6,0.7-0.6
		C163.1,192.8,163.4,193.1,163.4,193.5 M161.4,193.5c0,0.4-0.2,0.6-0.7,0.6c-0.4,0-0.7-0.2-0.7-0.6c0-0.4,0.2-0.6,0.7-0.6
		C161.1,192.8,161.4,193.1,161.4,193.5 M165.3,191h-0.9c-0.6,0-1.1-0.2-1.5-0.6c-0.3,0.4-0.8,0.6-1.4,0.6h-1.6v-0.7h1.2
		c0.9,0,1.4-0.5,1.4-1.5v-1.7l-0.2-1.7l1.1-0.3v3.7c0,1,0.4,1.5,1.4,1.5h0.6V191z"/>
	<rect x="164.9" y="190.3" class="st2" width="2" height="0.7"/>
	<rect x="166.5" y="190.3" class="st2" width="2" height="0.7"/>
	<rect x="168" y="190.3" class="st2" width="2" height="0.7"/>
	<rect x="169.6" y="190.3" class="st2" width="2" height="0.7"/>
	<rect x="171.1" y="190.3" class="st2" width="2" height="0.7"/>
	<rect x="172.6" y="190.3" class="st2" width="2" height="0.7"/>
	<rect x="174.2" y="190.3" class="st2" width="2" height="0.7"/>
	<rect x="175.7" y="190.3" class="st2" width="2" height="0.7"/>
	<rect x="177.3" y="190.3" class="st2" width="2" height="0.7"/>
	<path class="st2" d="M184.3,190.3V188c0-0.7-0.4-1.1-1.1-1.1c-0.5,0-0.8,0.2-1.2,0.5c-0.4,0.4-0.6,0.9-0.6,1.6c0,1,0.3,1.3,1.3,1.3
		H184.3z M187.3,191h-8.5v-0.7h2c-0.1-0.3-0.2-0.7-0.2-1.1c0-0.9,0.3-1.6,0.9-2.1c0.5-0.4,1-0.7,1.7-0.7c0.5,0,0.9,0.1,1.2,0.4
		c0.4,0.3,0.5,0.7,0.5,1.2l0,2.3h1.4v-2.6c0-0.7-0.3-1.2-0.9-1.5c-0.5-0.3-1.2-0.5-2.1-0.5c-0.9,0-1.6,0.1-2.3,0.4l0.1-0.6
		c0.7-0.3,1.6-0.4,2.5-0.4c1,0,1.8,0.2,2.4,0.5c0.8,0.4,1.1,1,1.1,1.8V191z"/>
</g>
<g id="Layer_2" class="st0">
	<path class="st1" d="M87.5,155.6c0.7-6.2,12.8-6.7,12.8-6.7s-6.7-0.2-12.3,1.8l-1,0.2l-0.5,4.8H87.5z"/>
	<path class="st1" d="M46.3,191.8c1.5-0.1,2.9-0.2,4.4-0.4c1.5-0.2,2.9-0.5,4.3-0.8c2.9-0.6,5.7-1.6,8.4-2.6
		c2.7-1.1,5.4-2.4,7.9-3.8c1.3-0.7,2.5-1.5,3.7-2.3c1.2-0.8,2.4-1.7,3.5-2.7c1.1-0.9,2.1-2,3.1-3c0.9-1.1,1.8-2.2,2.4-3.5
		c0.3-0.6,0.6-1.3,0.7-1.9c0.1-0.3,0.2-0.7,0.2-1c0-0.3,0.1-0.7,0.1-1.1l0.5-4.4l1.7-17.7l0,0c0-0.1,0-0.2,0.1-0.2l1.3-1.9l0.1-0.1
		c0,0,0,0,0.1-0.1c0.1-0.1,0.1-0.1,0.2-0.2c0.1-0.1,0.2-0.2,0.4-0.2c0.3-0.1,0.6-0.1,0.9,0l0.1,0l0.1,0l0.1,0.1l0.3,0.1l0.5,0.2l0,0
		c0.2,0.1,0.2,0.2,0.2,0.4l0,1.1c0,0,0,0.1,0,0c0,0,0,0.1,0,0.1c0,0,0,0,0,0c0,0,0,0.1,0.1,0.1c0,0.1,0.1,0.1,0.2,0.1l-0.1,0
		l1.4-0.2l0,0c0,0,0,0,0,0c0.1,0,0.2-0.1,0.3-0.2c0,0,0-0.1,0-0.1c0,0,0,0,0-0.1l0-0.4l0-1.4l0,0c0-0.1,0-0.1,0.1-0.2l1-1.1L95,142
		c0.1-0.1,0.2-0.2,0.3-0.3c0.1-0.1,0.3-0.2,0.4-0.3c0.3-0.1,0.7-0.1,0.9,0.1c0.1,0,0.1,0.1,0.2,0.1l0.1,0.1l0.3,0.2l1.2,1
		c0.1,0,0.1,0.1,0.1,0.2l0,1.9l0,0.1v0c0,0,0,0,0,0c0,0,0,0,0,0c0,0,0,0.1,0,0.1c0,0.1,0.1,0.2,0.2,0.2c0,0,0.1,0,0.2,0l0.2,0l0.5,0
		l0.5,0l0.2,0c0.1,0,0.1,0,0.1,0c0.1,0,0.2-0.1,0.2-0.2c0-0.1,0-0.2,0-0.3l0-1.9c0-0.1,0-0.2,0.1-0.2l0,0l1.1-1l0.3-0.2l0.1-0.1
		l0.1-0.1c0.1-0.1,0.2-0.1,0.2-0.1c0.3-0.1,0.6-0.2,0.9-0.1c0.2,0,0.3,0.1,0.4,0.2c0.1,0.1,0.1,0.1,0.2,0.2l0.1,0.1l0.5,0.5l1,1.1
		c0.1,0.1,0.1,0.2,0.1,0.2l0,0l0,1.4l0,0.4v0c0,0,0,0,0,0l0,0c0,0,0,0,0,0c0,0,0,0,0,0.1c0,0.1,0.1,0.1,0.2,0.1c0,0,0,0,0,0l0,0
		l1.4,0.2l-0.1,0c0,0,0.1,0,0.1-0.1c0,0,0,0,0-0.1c0,0,0,0,0,0l0-0.1l0-1.1c0-0.2,0.1-0.4,0.3-0.5l0,0l0.5-0.2l0.3-0.1l0.1-0.1
		l0.1,0l0.1,0c0.2-0.1,0.3-0.1,0.5-0.1c0.2,0,0.3,0,0.5,0.1c0.2,0.1,0.3,0.1,0.4,0.2c0.1,0.1,0.1,0.1,0.2,0.2
		c0.1,0.1,0.1,0.1,0.1,0.2c0.4,0.6,0.9,1.3,1.3,1.9c0.2,0.3,0.1,0.7-0.2,0.9c-0.1,0.1-0.2,0.1-0.3,0.1h0h0l0.6-0.7l0.7,9.3l0.4,4.7
		c0.1,1.6,0.2,3.1,0.4,4.7l0.2,2.3c0.1,0.8,0.1,1.6,0.2,2.3l0.1,0.6l0.1,0.5c0,0.2,0.1,0.4,0.1,0.5c0.1,0.2,0.1,0.4,0.2,0.5
		c0.2,0.7,0.6,1.4,0.9,2.1c0.4,0.7,0.8,1.3,1.3,1.9c0.5,0.6,1,1.2,1.5,1.7c0.5,0.6,1.1,1.1,1.7,1.6c0.6,0.5,1.2,1,1.8,1.5
		c0,0,0,0.1,0,0.1c0,0-0.1,0-0.1,0c-0.6-0.5-1.3-0.9-1.9-1.4c-0.6-0.5-1.2-1-1.8-1.5c-0.6-0.5-1.2-1.1-1.7-1.7
		c-0.5-0.6-1-1.2-1.5-1.9c-0.4-0.7-0.8-1.4-1.1-2.2c-0.1-0.2-0.1-0.4-0.2-0.6c-0.1-0.2-0.1-0.4-0.2-0.6l-0.1-0.6l-0.1-0.6
		c-0.1-0.8-0.2-1.6-0.3-2.3c-0.1-0.8-0.2-1.6-0.3-2.3c-0.2-1.6-0.3-3.1-0.5-4.7l-0.4-4.7c-0.1-1.6-0.2-3.1-0.3-4.7
		c-0.1-1.6-0.2-3.1-0.3-4.7l0,0c0-0.3,0.3-0.6,0.6-0.7c0,0,0,0,0,0h0l-0.5,1c-0.4-0.7-0.8-1.3-1.2-2l0-0.1c0,0,0,0,0,0
		c0,0,0,0-0.1,0c0,0-0.1,0-0.1,0c0,0-0.1,0-0.1,0l0,0l0,0l0,0l0,0h0c0,0,0,0,0,0l0,0l-0.1,0l-0.1,0.1l-0.3,0.1l-0.5,0.2l0.3-0.5
		l0,1.1c0,0,0,0.1,0,0.2c0,0.1,0,0.2-0.1,0.2c-0.1,0.2-0.1,0.3-0.3,0.4c-0.2,0.2-0.5,0.4-0.9,0.4l0,0c0,0,0,0-0.1,0l-1.4-0.3l0.1,0
		c-0.4,0-0.8-0.2-1-0.6c0-0.1-0.1-0.2-0.1-0.3c0,0,0-0.1,0-0.2l0,0v-0.1l0-0.4l0-1.4l0.1,0.3l-1-1.1l-0.5-0.6l-0.1-0.1
		c0,0-0.1-0.1-0.1-0.1c-0.1-0.1-0.1-0.1-0.2-0.1c-0.2-0.1-0.4-0.1-0.5,0c0,0-0.1,0-0.1,0.1l-0.1,0.1l-0.1,0l-0.3,0.2l-1.2,0.9
		l0.1-0.2l0,1.9c0,0.1,0,0.4-0.1,0.6c-0.1,0.2-0.3,0.3-0.5,0.4c-0.1,0-0.2,0.1-0.3,0.1l-0.2,0l-0.5,0l-0.5,0l-0.2,0
		c-0.1,0-0.2,0-0.3-0.1c-0.2-0.1-0.4-0.2-0.5-0.4c-0.1-0.1-0.1-0.2-0.1-0.3c0,0,0,0,0-0.1l0-0.1l0-0.1l0-1.9l0.1,0.2l-1.2-1
		l-0.3-0.2l-0.1-0.1c0,0-0.1-0.1-0.1-0.1c-0.2-0.1-0.4-0.1-0.5,0c-0.1,0-0.2,0.1-0.2,0.1c-0.1,0.1-0.2,0.2-0.2,0.3l-0.5,0.6l-1,1.1
		l0.1-0.2l0,1.4l0,0.4c0,0.1,0,0.2,0,0.2c0,0.1,0,0.2-0.1,0.2c-0.2,0.3-0.5,0.5-0.9,0.5l0.1,0l-1.4,0.3c0,0,0,0,0,0l0,0
		c-0.3,0-0.6-0.1-0.8-0.3c-0.1-0.1-0.2-0.2-0.2-0.4c0-0.1,0-0.1-0.1-0.2c0-0.1,0-0.1,0-0.1l0-0.1l0-1.1l0.3,0.4l-0.5-0.2l-0.3-0.1
		l-0.1-0.1l-0.1,0l0,0c-0.1,0-0.2,0-0.3,0c0,0-0.1,0-0.1,0.1c0,0,0,0,0,0c0,0,0,0,0,0l0,0c0,0,0,0,0,0l0,0l0,0l-1.2,2l0.1-0.2
		c-0.1,3-0.4,5.9-0.5,8.9c-0.2,3-0.4,5.9-0.7,8.9l-0.4,4.4c0,0.4-0.1,0.7-0.1,1.1c0,0.4-0.1,0.8-0.2,1.2c-0.2,0.8-0.5,1.5-0.8,2.2
		c-0.7,1.4-1.6,2.7-2.6,3.8c-1,1.2-2.1,2.2-3.3,3.2c-2.3,1.9-4.8,3.6-7.5,5c-1.3,0.7-2.7,1.4-4,2c-1.4,0.6-2.8,1.2-4.2,1.7
		c-2.8,1-5.7,1.8-8.6,2.3c-1.5,0.3-2.9,0.4-4.4,0.6c-1.5,0.1-3,0.1-4.5,0.1C46.2,191.9,46.2,191.9,46.3,191.8
		C46.2,191.8,46.2,191.8,46.3,191.8"/>
	<path class="st1" d="M98.7,167.1l0-7.2c1.1-2,2.1-1.3,2.7-0.4c0.6,0.9,0.8,5,0.8,5v-4.2c0-1.3-1-3.1-3.2-4c-2,1.1-2.7,3.9-2.7,3.9
		v7.7h5.9L98.7,167.1z"/>
	<path class="st2" d="M142.3,178.6c0,0-1.1-0.3-3.1-0.7c-2-0.4-4.9-1-8.4-1.4c-3.5-0.4-7.6-0.8-12-0.7c-2.2,0-4.5,0.1-6.7,0.3
		c-2.3,0.2-4.6,0.6-6.9,1c-2.3,0.5-4.5,1.1-6.7,1.8c-1.1,0.4-2.1,0.8-3.2,1.2c-0.5,0.2-1,0.4-1.5,0.7c-0.5,0.2-1,0.5-1.5,0.7
		c-2,1-3.9,1.9-5.7,2.8c-1.8,0.9-3.5,1.7-5.2,2.4c-1.6,0.7-3.1,1.3-4.5,1.8c-1.4,0.5-2.6,0.9-3.6,1.1c-1,0.3-1.8,0.5-2.3,0.6
		c-0.5,0.1-0.8,0.2-0.8,0.2s0.3-0.1,0.8-0.3c0.3-0.1,0.6-0.2,0.9-0.4c0.4-0.2,0.8-0.3,1.3-0.5c0.9-0.4,2.1-0.9,3.4-1.5
		c1.3-0.6,2.7-1.3,4.3-2.1c1.6-0.8,3.3-1.7,5-2.6c1.8-0.9,3.7-1.9,5.7-2.9c0.5-0.2,1-0.5,1.5-0.7c0.5-0.2,1-0.5,1.6-0.7
		c1.1-0.5,2.2-0.9,3.3-1.2c2.2-0.8,4.5-1.3,6.9-1.8c2.3-0.5,4.7-0.8,7-0.9c2.3-0.2,4.6-0.2,6.8-0.2c4.4,0.1,8.6,0.6,12,1.1
		c1.7,0.3,3.3,0.6,4.7,0.9c1.4,0.3,2.6,0.6,3.6,0.9C141.2,178.2,142.3,178.6,142.3,178.6"/>
	<path class="st2" d="M119,204.5h-2.4c-0.9,0-1.5,0.3-2.1,0.9c0-2.3,0-1.3,0-2.6c0-2.6-1.7-4.7-4.4-5.1c1,1,1.2,2.3,1.2,3.7v9.4
		c0,1.7,1.3,3,3.2,3.3v-7c0-0.9,0.8-1.8,1.8-1.8h1.3c1,0,1.9,0.7,1.9,1.7v10.2c0,1.7,1.1,3,2.9,3.3v-12.7
		C122.5,206.1,120.9,204.5,119,204.5"/>
	<path class="st2" d="M194.1,204.5h-2.4c-0.9,0-1.5,0.3-2.1,0.9c0-2.3,0-4.2,0-5.5c0-2.6-1.7-4.7-4.4-5.1c1,1,1.2,2.3,1.2,3.7v12.3
		c0,1.7,1.3,3,3.2,3.3v-7c0-0.9,0.8-1.8,1.8-1.8h1.3c1,0,1.9,0.7,1.9,1.7v10.2c0,1.7,1.1,3,2.9,3.3v-12.7
		C197.6,206.1,196,204.5,194.1,204.5"/>
	<path class="st2" d="M48,205.1c-0.8-0.4-1.5-0.7-2.5-0.6c-5.1,0.2-5.5,3.4-6.6,5.7c-1.3,2.7-2,6.3-5.8,6.2h-0.3
		c-1.1,0-2.1-1-2.1-2.1v-7.2v-2.7c0-1.6-1.5-2.9-3.2-3.1v4.1c-0.6-0.5-1.1-0.9-2-0.9h-2.5c-2,0-3.6,1.5-3.6,3.3v6.3
		c0,2.5,1.6,3.3,3.6,3.3h3.2c0.9,0,1.9-0.4,2.7-1c0.7,0.6,1.6,1,2.6,1H36c4.4,0,5.3-4.8,6-6.6c1.2-3.1,2.5-5.3,5.8-5.3L48,205.1z
		 M27.6,214.7c0,1-1.1,1.9-2.2,1.9h-0.6c-1.1,0-2.1-0.8-2.1-1.9v-7.4c0-1,0.9-1.9,2.1-1.9h0.6c1.1,0,2.2,0.8,2.2,1.9V214.7z"/>
	<path class="st2" d="M77.5,194.9c1,1,1.2,2.3,1.2,3.7c0,2.7,0,14.2,0,16.1c0,0.7-0.9,1.8-1.7,1.8h-4.7v-14.1c0-2.3-1.5-4.5-3.8-5.1
		c-0.5-0.2-0.9-0.3-1.5-0.2c-4.9,0-5.8,3.7-6.5,5.7c-1.7,4.4-2.7,7.6-4.1,11c-1.1,2.5-2.2,5.9-5.8,5.9c-0.1,0-0.2,0-0.2,0l-0.2,0.5
		c0.5,0.2,1.4,0.5,2.4,0.5c4.6,0,5.8-3.8,6.6-5.7c1.3-3.4,2.4-6.5,4.2-11.5c1.4-3.9,2.4-5.1,5.2-5.2c0.4,0.5,0.5,1.3,0.5,3v13.2
		c0,1.7,1.6,3.2,3.1,3.2h6c1.9,0,3.5-1.5,3.5-3.2v-14.2C81.8,197.4,80.1,195.3,77.5,194.9"/>
	<path class="st2" d="M165.7,217.4c1.8-0.3,3.2-1.7,3.2-3.4v-5.1c0-2.5-1.6-5.1-5.3-5.1c-1.6,0-2.8,0.7-3.6,1.3
		c0.3-0.1,0.7-0.1,1-0.1c2.4,0,4.7,1.6,4.7,4.2L165.7,217.4z"/>
	<path class="st2" d="M158.5,217.4c1.8-0.3,3.2-1.7,3.2-3.4v-5.1c0-2.5-1.6-5.1-5.3-5.1c-1.6,0-2.8,0.7-3.6,1.3
		c0.3-0.1,0.7-0.1,1-0.1c2.4,0,4.7,1.6,4.7,4.2L158.5,217.4z"/>
	<path class="st2" d="M151.4,209.2l0,8.2c1.8-0.3,3.2-1.7,3.2-3.4v-5.1c0-2.5-1.6-5.1-5.3-5.1C149.3,203.8,151.4,204.9,151.4,209.2"
		/>
	<path class="st2" d="M0.6,217.4c1.8-0.3,3.2-1.7,3.2-3.4v-5.7c2.5,0.7,3.9,2.8,5.1,4.8c1.1,2,2.8,7.2,7.9,7.4c1,0,1.9-0.2,2.8-0.5
		l-0.2-0.5c-3.3,0-5.2-2.3-6.8-5.9c-0.9-2.1-1.8-4.2-5.3-5.8h5.6c1.9,0,3.5-1.1,3.5-2.9v-4.5c0-1.7-1.5-3-3.3-3.1H8.6
		c-0.8,0.1-1.4,0.2-1.7,0.8h4.3c1,0,1.9,0.7,1.9,1.6v5.4c0,1-0.8,1.7-1.9,1.8H4.9l-1.1,0v-0.7v-6.3c0-2.6-1.7-4.7-4.3-5.1
		c1,1,1.1,2.3,1.1,3.7V217.4z"/>
	<path class="st2" d="M144,204.5v9.9c0,1.2-1,2-2.3,2l-2.8,0c-1.1,0-2.1-1-2.1-2.1v-10c0-1.6-1.5-2.9-3.2-3.1v4.1
		c-0.6-0.5-1.1-0.9-2-0.9h-2.5c-2,0-3.6,1.5-3.6,3.3v6.3c0,2.5,1.6,3.3,3.6,3.3h3.2c0.9,0,1.9-0.4,2.7-1c0.7,0.6,1.6,1,2.6,1h4.8
		c2.7,0,4.7-2.5,4.7-5v-4.5C147.2,206.2,145.9,204.8,144,204.5 M133.7,214.7c0,1-1.1,1.9-2.2,1.9h-0.6c-1.1,0-2.1-0.8-2.1-1.9v-7.4
		c0-1,0.9-1.9,2.1-1.9h0.6c1.1,0,2.2,0.8,2.2,1.9V214.7z"/>
	<path class="st2" d="M185.4,217l0-0.4c-0.7,0-2.2-0.3-2.2-2l0-0.2v-10c0-1.6-1.5-2.9-3.2-3.1v4.1c-0.6-0.5-1.1-0.9-2-0.9h-2.5
		c-2,0-3.6,1.5-3.6,3.3v6.3c0,2.5,1.6,3.3,3.6,3.3h3.2c0.8,0,1.8-0.4,2.6-0.9c0,0,0.9,0.9,2.5,0.9
		C184.6,217.4,184.9,217.2,185.4,217 M180.1,214.7c0,1-1.1,1.9-2.2,1.9h-0.6c-1.1,0-2.1-0.8-2.1-1.9v-7.4c0-1,0.9-1.9,2.1-1.9h0.6
		c1.1,0,2.2,0.8,2.2,1.9V214.7z"/>
	<path class="st2" d="M147,199.9c0-0.8-0.6-1.4-1.4-1.4c-0.8,0-1.4,0.6-1.4,1.4c0,0.8,0.6,1.4,1.4,1.4
		C146.4,201.3,147,200.7,147,199.9"/>
	<path class="st2" d="M67.2,205.9c0-0.8-0.6-1.4-1.4-1.4s-1.4,0.6-1.4,1.4c0,0.8,0.6,1.4,1.4,1.4S67.2,206.7,67.2,205.9"/>
	<path class="st2" d="M102.5,215.5c0,2.6,1.7,4.7,4.4,5.1c-1-1-1.2-2.3-1.2-3.8v-6.4c0-1.5-1.4-3.4-3.6-3.4h-4.2
		c2.6-0.8,3.5-2.7,4.2-4.4c0.8-1.7,1.7-5.1,5.7-5.1c0.1,0,0.2-0.7,0.2-0.7c-0.8-0.4-1.4-0.5-2.4-0.5c-4.7,0-5.8,3.9-6.6,5.7
		c-0.8,1.9-1.6,4-3.6,4.6c0-3.3,0-6.5,0-6.7c0-2.6-1.7-4.7-4.4-5.1c1,1,1.2,2.3,1.2,3.8v18.8c1.8-0.4,3.1-1.8,3.2-3.5c0,0,0-3,0-6.2
		c1.5,0,5,0,5.3,0c1,0,1.8,0.4,1.8,1.6V215.5z"/>
	<polygon class="st2" points="4.3,239.2 3.2,239.2 3.2,231.8 0.6,231.8 0.6,231.1 6.9,231.1 6.9,231.8 4.3,231.8 	"/>
	<path class="st2" d="M11.4,233.8c-1.3,0-1.7,1.3-1.7,2.5c0,0.8,0.1,1.3,0.2,1.5c0.3,0.8,0.9,1.1,1.5,1.1c0.9,0,1.7-0.7,1.7-2.6
		C13.2,234.9,12.6,233.8,11.4,233.8 M13.6,238.5c-0.3,0.4-1,1-2.3,1c-0.5,0-1.2-0.1-1.9-0.6c-0.9-0.8-1-1.9-1-2.5
		c0-2.3,1.3-3.3,2.9-3.3c1.7,0,2.8,1.3,2.8,3.1C14.3,237.2,14,238,13.6,238.5"/>
	<path class="st2" d="M21.7,233.3v5.9h-1.1v-0.7c-0.2,0.3-0.7,1-1.8,1c-0.7,0-1.3-0.3-1.6-0.7c-0.3-0.4-0.4-0.9-0.4-1.6v-3.9h1.1
		v3.4c0,0.6,0,1,0.2,1.3c0.2,0.3,0.5,0.6,1.1,0.6c0.1,0,0.9,0,1.5-0.8v-4.6H21.7z"/>
	<path class="st2" d="M25.5,239.2h-1.1v-5.9h1.1v0.8c0.2-0.3,0.7-1,1.5-1c0.3,0,0.5,0.1,0.6,0.1v0.9c-0.2-0.1-0.5-0.2-0.9-0.2
		c-0.7,0-1.1,0.5-1.2,0.7V239.2z"/>
	<path class="st2" d="M30.7,239.2h-1.1v-5.9h1.1V239.2z M30.2,231c0.4,0,0.6,0.3,0.6,0.6c0,0.5-0.4,0.6-0.6,0.6
		c-0.3,0-0.6-0.2-0.6-0.6C29.6,231.3,29.9,231,30.2,231"/>
	<path class="st2" d="M37.2,234.8c-0.2-0.3-0.6-1-1.7-1c-0.8,0-1.3,0.4-1.3,0.9c0,0.5,0.4,0.7,1,0.9c0,0,0.5,0.2,0.6,0.2
		c0.6,0.2,1.8,0.5,1.8,1.8c0,0.6-0.2,1-0.6,1.3c-0.5,0.4-1.1,0.5-1.7,0.5c-0.6,0-1.2-0.1-1.6-0.5c-0.6-0.5-0.7-1.1-0.8-1.3
		c0.1,0,0.2-0.1,0.3-0.1c0.1,0.2,0.2,0.4,0.5,0.6c0.4,0.3,0.9,0.5,1.5,0.5c0.8,0,1.3-0.4,1.3-1c0-0.6-0.4-0.8-0.6-0.9
		c-0.2-0.1-0.5-0.2-1.2-0.4c-0.6-0.2-1.6-0.5-1.6-1.6c0-1,0.8-1.7,2.1-1.7c0.5,0,1,0.1,1.5,0.4c0.6,0.4,0.7,1,0.7,1.2
		C37.4,234.8,37.3,234.8,37.2,234.8"/>
	<path class="st2" d="M48.3,239.2h-1v-3.7c0-0.4,0-0.6,0-0.8c0-0.2-0.1-0.9-1-0.9c-0.8,0-1.3,0.7-1.5,0.9v4.5h-1v-3.6
		c0-0.3,0-0.6,0-0.8c-0.1-0.9-0.9-0.9-1.1-0.9c-0.6,0-1.1,0.4-1.5,0.9v4.5h-1v-5.9h1v0.8c0.2-0.3,0.8-1.1,1.9-1.1
		c0.3,0,0.7,0.1,1,0.2c0.5,0.3,0.6,0.7,0.7,0.9c0.1-0.2,0.3-0.4,0.6-0.7c0.5-0.4,1.1-0.5,1.4-0.5c0.8,0,1.2,0.3,1.4,0.7
		c0.2,0.4,0.3,1,0.3,1.7V239.2z"/>
	<path class="st2" d="M56.8,238.5h1.1c1.1,0,1.7-0.1,2.3-0.5c0.5-0.3,1.3-1.2,1.3-2.8c0-1.1-0.3-1.9-0.8-2.4c-0.8-1-2-1-2.9-1h-1.1
		V238.5z M55.6,239.2v-8.2h2.7c1.2,0,2.2,0.2,3,0.9c0.8,0.6,1.3,1.8,1.3,3.1c0,1.3-0.5,2.4-1.2,3c-0.8,0.8-1.9,1.1-3.3,1.1H55.6z"/>
	<path class="st2" d="M69.5,235.7c-0.1-1.5-1.1-1.8-1.7-1.8c-0.7,0-1.6,0.5-1.8,1.8H69.5z M66,236.3c0,0.3,0.1,1,0.5,1.6
		c0.6,0.8,1.4,0.8,1.6,0.8c1.3,0,1.8-0.9,2-1.2c0.1,0,0.2,0.1,0.3,0.1c-0.1,0.4-0.6,1.9-2.6,1.9c-1.6,0-3-1.1-3-3.2
		c0-2,1.4-3.2,2.9-3.2c0.8,0,1.4,0.3,1.8,0.7c0.9,0.8,0.9,2.1,0.9,2.5H66z"/>
	<path class="st2" d="M77.5,233.3l-2.6,6h-0.4l-2.6-6h1.1l1.6,3.9c0,0,0.1,0.2,0.1,0.4c0-0.1,0-0.2,0.1-0.4l1.7-3.9H77.5z"/>
	<path class="st2" d="M83.9,235.7c-0.1-1.5-1.1-1.8-1.7-1.8c-0.7,0-1.6,0.5-1.8,1.8H83.9z M80.3,236.3c0,0.3,0.1,1,0.5,1.6
		c0.6,0.8,1.4,0.8,1.6,0.8c1.3,0,1.8-0.9,2-1.2c0.1,0,0.2,0.1,0.3,0.1c-0.1,0.4-0.6,1.9-2.6,1.9c-1.6,0-3-1.1-3-3.2
		c0-2,1.4-3.2,2.9-3.2c0.8,0,1.4,0.3,1.8,0.7c0.9,0.8,0.9,2.1,0.9,2.5H80.3z"/>
	<rect x="87.2" y="231.1" class="st2" width="1.1" height="8.2"/>
	<path class="st2" d="M93.6,233.8c-1.3,0-1.7,1.3-1.7,2.5c0,0.8,0.1,1.3,0.2,1.5c0.3,0.8,0.9,1.1,1.5,1.1c0.9,0,1.7-0.7,1.7-2.6
		C95.3,234.9,94.8,233.8,93.6,233.8 M95.8,238.5c-0.3,0.4-1,1-2.3,1c-0.5,0-1.2-0.1-1.9-0.6c-0.9-0.8-1-1.9-1-2.5
		c0-2.3,1.3-3.3,2.9-3.3c1.7,0,2.8,1.3,2.8,3.1C96.4,237.2,96.2,238,95.8,238.5"/>
	<path class="st2" d="M99.9,238.2c0.6,0.6,1.3,0.6,1.4,0.6c0.5,0,1.9-0.3,1.9-2.5c0-1.2-0.5-2.4-1.7-2.4c-0.6,0-1.1,0.3-1.6,0.8
		V238.2z M99.9,233.3v0.7c0.3-0.3,0.9-0.9,2-0.9c1.5,0,2.5,1.3,2.5,3.1c0,1.9-1,3.3-2.7,3.3c-1,0-1.5-0.5-1.8-0.8v2.8h-1v-8.2H99.9z
		"/>
	<path class="st2" d="M115.1,239.2h-1v-3.7c0-0.4,0-0.6,0-0.8c0-0.2-0.1-0.9-1-0.9c-0.8,0-1.3,0.7-1.5,0.9v4.5h-1v-3.6
		c0-0.3,0-0.6,0-0.8c-0.1-0.9-0.9-0.9-1.1-0.9c-0.6,0-1.1,0.4-1.5,0.9v4.5h-1v-5.9h1v0.8c0.2-0.3,0.8-1.1,1.9-1.1
		c0.3,0,0.7,0.1,1,0.2c0.5,0.3,0.6,0.7,0.7,0.9c0.1-0.2,0.3-0.4,0.6-0.7c0.5-0.4,1.1-0.5,1.4-0.5c0.8,0,1.2,0.3,1.4,0.7
		c0.2,0.4,0.3,1,0.3,1.7V239.2z"/>
	<path class="st2" d="M122.2,235.7c-0.1-1.5-1.1-1.8-1.7-1.8c-0.7,0-1.6,0.5-1.8,1.8H122.2z M118.7,236.3c0,0.3,0.1,1,0.5,1.6
		c0.6,0.8,1.4,0.8,1.6,0.8c1.3,0,1.8-0.9,2-1.2c0.1,0,0.2,0.1,0.3,0.1c-0.1,0.4-0.6,1.9-2.6,1.9c-1.6,0-3-1.1-3-3.2
		c0-2,1.4-3.2,2.9-3.2c0.8,0,1.4,0.3,1.8,0.7c0.9,0.8,0.9,2.1,0.9,2.5H118.7z"/>
	<path class="st2" d="M130.4,239.2h-1v-3.3c0-0.6,0-0.9-0.1-1.3c-0.2-0.6-0.8-0.8-1.2-0.8c-0.6,0-1.2,0.3-1.6,1v4.4h-1v-5.9h1v0.8
		c0.2-0.3,0.8-1.1,2-1.1c0.9,0,1.2,0.3,1.4,0.4c0.5,0.5,0.5,1,0.5,1.6V239.2z"/>
	<path class="st2" d="M134.3,237.4c0,0.8,0,1.5,0.8,1.5c0.3,0,0.5-0.1,0.7-0.2c0,0.1,0.1,0.2,0.2,0.3c-0.2,0.2-0.6,0.5-1.3,0.5
		c-0.5,0-0.8-0.2-1-0.3c-0.5-0.3-0.5-0.8-0.5-1.5V234h-0.8v-0.7h0.8v-1.6h1.1v1.6h1.2v0.7h-1.2V237.4z"/>
	<path class="st2" d="M146.8,236.2l-1.2-2.7c-0.2-0.3-0.2-0.6-0.2-0.7c-0.1,0.3-0.1,0.3-0.2,0.7l-1.3,2.8H146.8z M149.4,239.2h-1.2
		l-1.1-2.3h-3.7l-1.1,2.3h-1l3.8-8.2h0.3L149.4,239.2z"/>
	<path class="st2" d="M156.3,233.3v5.9h-1.1v-0.7c-0.2,0.3-0.7,1-1.8,1c-0.7,0-1.3-0.3-1.6-0.7c-0.3-0.4-0.4-0.9-0.4-1.6v-3.9h1.1
		v3.4c0,0.6,0,1,0.2,1.3c0.2,0.3,0.5,0.6,1.1,0.6c0.1,0,0.9,0,1.5-0.8v-4.6H156.3z"/>
	<path class="st2" d="M160.2,237.4c0,0.8,0,1.5,0.8,1.5c0.3,0,0.5-0.1,0.7-0.2c0,0.1,0.1,0.2,0.2,0.3c-0.2,0.2-0.6,0.5-1.3,0.5
		c-0.5,0-0.8-0.2-1-0.3c-0.5-0.3-0.5-0.8-0.5-1.5V234h-0.8v-0.7h0.8v-1.6h1.1v1.6h1.2v0.7h-1.2V237.4z"/>
	<path class="st2" d="M168.5,239.2h-1.1v-3.8c0-0.6,0-1.6-1.2-1.6c-0.5,0-0.8,0.2-0.9,0.3c-0.3,0.2-0.7,0.7-0.7,0.7v4.3h-1.1v-8.2
		h1.1v3.2c0.3-0.4,0.9-1.1,2.1-1.1c0.5,0,1,0.1,1.3,0.5c0.5,0.5,0.5,1,0.5,1.5V239.2z"/>
	<path class="st2" d="M173.8,233.8c-1.3,0-1.7,1.3-1.7,2.5c0,0.8,0.1,1.3,0.2,1.5c0.3,0.8,0.9,1.1,1.5,1.1c0.9,0,1.7-0.7,1.7-2.6
		C175.6,234.9,175,233.8,173.8,233.8 M176,238.5c-0.3,0.4-1,1-2.3,1c-0.5,0-1.2-0.1-1.9-0.6c-0.9-0.8-1-1.9-1-2.5
		c0-2.3,1.3-3.3,2.9-3.3c1.7,0,2.8,1.3,2.8,3.1C176.7,237.2,176.4,238,176,238.5"/>
	<path class="st2" d="M180.2,239.2h-1.1v-5.9h1.1v0.8c0.2-0.3,0.7-1,1.5-1c0.3,0,0.5,0.1,0.6,0.1v0.9c-0.2-0.1-0.5-0.2-0.9-0.2
		c-0.7,0-1.1,0.5-1.2,0.7V239.2z"/>
	<path class="st2" d="M185.5,239.2h-1.1v-5.9h1.1V239.2z M185,231c0.4,0,0.6,0.3,0.6,0.6c0,0.5-0.4,0.6-0.6,0.6
		c-0.3,0-0.6-0.2-0.6-0.6C184.3,231.3,184.6,231,185,231"/>
	<path class="st2" d="M189.3,237.4c0,0.8,0,1.5,0.8,1.5c0.3,0,0.5-0.1,0.7-0.2c0,0.1,0.1,0.2,0.2,0.3c-0.2,0.2-0.6,0.5-1.3,0.5
		c-0.5,0-0.8-0.2-1-0.3c-0.5-0.3-0.5-0.8-0.5-1.5V234h-0.8v-0.7h0.8v-1.6h1.1v1.6h1.2v0.7h-1.2V237.4z"/>
	<path class="st2" d="M197.5,233.3l-2.6,5.8c-0.7,1.6-1.5,2.5-3,2.4v-0.3c1-0.3,1.5-0.9,2.3-2.6l-2.3-5.3h1.2l1.7,4.1l1.8-4.1H197.5
		z"/>
</g>
<g id="Layer_3">
	<path class="st3" d="M172.6,51.7c0.7,0,1.3-0.5,1.4-1.1h-2.1c-0.4,0-0.8-0.3-0.8-0.7v-0.2c0-0.4,0.3-0.7,0.7-0.7h0.8
		c0.7,0,1.3-0.4,1.4-1h-1.8c-0.8,0-1.4,0.6-1.4,1.2v0.5c0,0.3,0.1,0.5,0.4,0.7H171h-0.1c-1.1,0-2,0.6-2.2,1.6c0.4-0.3,1-0.4,1.6-0.4
		H172.6z"/>
	<path class="st4" d="M45.7,50.4c1.5-0.1,2.9-0.2,4.4-0.4c1.5-0.2,2.9-0.5,4.3-0.8c2.9-0.6,5.7-1.6,8.4-2.6c2.7-1.1,5.4-2.4,7.9-3.8
		c1.3-0.7,2.5-1.5,3.7-2.3c1.2-0.8,2.4-1.7,3.5-2.7c1.1-0.9,2.1-2,3.1-3c0.9-1.1,1.8-2.2,2.4-3.5c0.3-0.6,0.6-1.3,0.7-1.9
		c0.1-0.3,0.2-0.7,0.2-1c0-0.3,0.1-0.7,0.1-1.1l0.5-4.4l1.7-17.7l0,0c0-0.1,0-0.2,0.1-0.2L87.9,3L87.9,3c0,0,0,0,0.1-0.1
		c0.1-0.1,0.1-0.1,0.2-0.2c0.1-0.1,0.2-0.2,0.4-0.2c0.3-0.1,0.6-0.1,0.9,0l0.1,0l0.1,0l0.1,0.1l0.3,0.1L90.5,3l0,0
		c0.2,0.1,0.2,0.2,0.2,0.4l0,1.1c0,0,0,0.1,0,0c0,0,0,0.1,0,0.1c0,0,0,0,0,0c0,0,0,0.1,0.1,0.1c0.1,0.1,0.1,0.1,0.2,0.1l-0.1,0
		l1.4-0.2l0,0c0,0,0,0,0,0c0.1,0,0.2-0.1,0.3-0.2c0,0,0-0.1,0-0.1c0,0,0,0,0-0.1l0-0.4l0-1.4v0c0-0.1,0-0.1,0.1-0.2l1-1.1l0.5-0.6
		c0.1-0.1,0.2-0.2,0.3-0.3c0.1-0.1,0.3-0.2,0.4-0.3C95.4,0,95.7,0,96,0.2c0.1,0,0.1,0.1,0.2,0.1l0.1,0.1l0.3,0.2l1.2,1
		c0.1,0,0.1,0.1,0.1,0.2l0,1.9l0,0.1v0c0,0,0,0,0,0c0,0,0,0,0,0c0,0,0,0.1,0,0.1c0,0.1,0.1,0.2,0.2,0.2c0,0,0.1,0,0.2,0h0.2l0.5,0
		l0.5,0l0.2,0c0.1,0,0.1,0,0.1,0c0.1,0,0.2-0.1,0.2-0.2c0.1-0.1,0.1-0.2,0-0.3l0-1.9c0-0.1,0-0.2,0.1-0.2l0,0l1.1-1l0.3-0.2l0.1-0.1
		l0.1-0.1c0.1-0.1,0.2-0.1,0.2-0.1c0.3-0.1,0.6-0.2,0.9-0.1c0.2,0,0.3,0.1,0.4,0.2c0.1,0.1,0.1,0.1,0.2,0.2l0.1,0.1l0.5,0.5l1,1.1
		c0.1,0.1,0.1,0.2,0.1,0.2l0,0l0,1.4l0,0.4l0,0c0,0,0,0,0,0l0,0c0,0,0,0,0,0c0,0,0,0,0,0.1c0,0.1,0.1,0.1,0.2,0.1c0,0,0,0,0,0l0,0
		l1.4,0.2l-0.1,0c0,0,0.1,0,0.1-0.1c0,0,0,0,0-0.1c0,0,0,0,0,0l0-0.1l0-1.1c0-0.2,0.1-0.4,0.3-0.5l0,0l0.5-0.2l0.3-0.1l0.1-0.1
		l0.1,0l0.1,0c0.2-0.1,0.3-0.1,0.5-0.1c0.2,0,0.3,0,0.5,0.1c0.2,0.1,0.3,0.1,0.4,0.2c0.1,0.1,0.1,0.1,0.2,0.2
		c0.1,0.1,0.1,0.1,0.1,0.2c0.4,0.6,0.9,1.3,1.3,1.9c0.2,0.3,0.1,0.7-0.2,0.9c-0.1,0.1-0.2,0.1-0.3,0.1h0h0l0.6-0.7l0.7,9.3l0.4,4.7
		c0.1,1.6,0.2,3.1,0.4,4.7l0.2,2.3c0.1,0.8,0.1,1.6,0.2,2.3l0.1,0.6l0.1,0.5c0,0.2,0.1,0.4,0.1,0.5c0.1,0.2,0.1,0.4,0.2,0.5
		c0.2,0.7,0.6,1.4,0.9,2.1c0.4,0.7,0.8,1.3,1.3,1.9c0.5,0.6,1,1.2,1.5,1.7c0.5,0.6,1.1,1.1,1.7,1.6c0.6,0.5,1.2,1,1.8,1.5
		c0,0,0,0.1,0,0.1c0,0-0.1,0-0.1,0c-0.6-0.5-1.3-0.9-1.9-1.4c-0.6-0.5-1.2-1-1.8-1.5c-0.6-0.5-1.2-1.1-1.7-1.7
		c-0.5-0.6-1-1.2-1.5-1.9c-0.4-0.7-0.8-1.4-1.1-2.2c-0.1-0.2-0.1-0.4-0.2-0.6c-0.1-0.2-0.1-0.4-0.2-0.6l-0.1-0.6l-0.1-0.6
		c-0.1-0.8-0.2-1.6-0.3-2.3c-0.1-0.8-0.2-1.6-0.3-2.3c-0.2-1.6-0.3-3.1-0.5-4.7l-0.4-4.7c-0.1-1.6-0.2-3.1-0.3-4.7
		c-0.1-1.6-0.2-3.1-0.3-4.7v0c0-0.3,0.3-0.6,0.6-0.7c0,0,0,0,0,0h0l-0.5,1c-0.4-0.7-0.8-1.3-1.2-2l0-0.1c0,0,0,0,0,0c0,0,0,0-0.1,0
		c0,0-0.1,0-0.1,0c0,0-0.1,0-0.1,0l0,0l0,0l0,0l0,0h0c0,0,0,0,0,0l0,0l-0.1,0l-0.1,0.1l-0.3,0.1l-0.5,0.2l0.3-0.5l0,1.1
		c0,0,0,0.1,0,0.2c0,0.1,0,0.2-0.1,0.2c-0.1,0.2-0.1,0.3-0.3,0.4c-0.2,0.2-0.5,0.4-0.9,0.4h0c0,0,0,0-0.1,0l-1.4-0.3l0.1,0
		c-0.4,0-0.8-0.2-1-0.6c0-0.1-0.1-0.2-0.1-0.3c0,0,0-0.1,0-0.2l0,0V4.2l0-0.4l0-1.4l0.1,0.3l-1-1.1L103.2,1l-0.1-0.1
		c0,0-0.1-0.1-0.1-0.1c-0.1-0.1-0.1-0.1-0.2-0.1c-0.2-0.1-0.4-0.1-0.5,0c0,0-0.1,0-0.1,0.1l-0.1,0.1l-0.1,0l-0.3,0.2L100.6,2
		l0.1-0.2l0,1.9c0,0.1,0,0.4-0.1,0.6c-0.1,0.2-0.3,0.3-0.5,0.4c-0.1,0-0.2,0.1-0.3,0.1l-0.2,0l-0.5,0l-0.5,0l-0.2,0
		c-0.1,0-0.2,0-0.3-0.1c-0.2-0.1-0.4-0.2-0.5-0.4c-0.1-0.1-0.1-0.2-0.1-0.3c0,0,0,0,0-0.1l0-0.1l0-0.1l0-1.9L97.5,2l-1.2-1L96,0.8
		l-0.1-0.1c0,0-0.1-0.1-0.1-0.1c-0.2-0.1-0.4-0.1-0.5,0c-0.1,0-0.2,0.1-0.2,0.1c-0.1,0.1-0.2,0.2-0.2,0.3l-0.5,0.6l-1,1.1l0.1-0.2
		l0,1.4l0,0.4c0,0.1,0,0.2,0,0.2c0,0.1-0.1,0.2-0.1,0.2c-0.2,0.3-0.5,0.5-0.9,0.5l0.1,0L91,5.5c0,0,0,0,0,0l0,0
		c-0.3,0-0.6-0.1-0.8-0.3C90.1,5.1,90,5,90,4.8c0-0.1,0-0.1-0.1-0.2c0-0.1,0-0.1,0-0.1l0-0.1l0-1.1l0.3,0.4l-0.5-0.2l-0.3-0.1
		l-0.1-0.1l-0.1,0l0,0c-0.1,0-0.2,0-0.3,0c0,0-0.1,0-0.1,0.1c0,0,0,0,0,0c0,0,0,0,0,0l0,0c0,0,0,0,0,0l0,0l0,0l-1.2,2l0.1-0.2
		c-0.1,3-0.3,5.9-0.5,8.9c-0.2,3-0.4,5.9-0.7,8.9l-0.4,4.4c0,0.4-0.1,0.7-0.1,1.1c0,0.4-0.1,0.8-0.2,1.2c-0.2,0.8-0.5,1.5-0.8,2.2
		c-0.7,1.4-1.6,2.7-2.6,3.8C81.1,37,80,38,78.9,39c-2.3,1.9-4.8,3.6-7.5,5c-1.3,0.7-2.7,1.4-4,2c-1.4,0.6-2.8,1.2-4.2,1.7
		c-2.8,1-5.7,1.8-8.7,2.3c-1.5,0.3-2.9,0.4-4.4,0.6c-1.5,0.1-3,0.1-4.5,0.1C45.6,50.5,45.6,50.5,45.7,50.4
		C45.6,50.4,45.6,50.4,45.7,50.4"/>
	<path class="st4" d="M87,14.2C87.7,8,99.8,7.5,99.8,7.5s-6.7-0.2-12.3,1.8l-1,0.2l-0.5,4.8H87z"/>
	<path class="st4" d="M98.3,25.7l0-7.2c1.1-2,2.1-1.3,2.7-0.4c0.6,0.9,0.8,5,0.8,5v-4.2c0-1.3-1-3.1-3.2-4c-2,1.1-2.7,3.9-2.7,3.9
		v7.7h5.9L98.3,25.7z"/>
	<path class="st3" d="M77.9,58.5c0-0.8-0.6-1.4-1.4-1.4c-0.8,0-1.4,0.6-1.4,1.4c0,0.8,0.6,1.4,1.4,1.4
		C77.3,59.9,77.9,59.3,77.9,58.5"/>
	<path class="st3" d="M93.3,58.6c0-2.6-1.7-4.7-4.4-5.1c1,1,1.2,2.3,1.2,3.7l0,15.5c0,0.7-0.6,2.4-2.5,2.4H85
		c-1.1-0.1-2.2-1.3-2.2-2.3v-6.3c0-1.7-1.2-3.1-3-3.3h-6.4c-1.8,0-3.1,0.9-3.1,2.8l0,3.7c1.5,0,3.1-1.1,3.1-3.3c0-1.1,1.5-2,2.7-2
		h1.4c1.2,0,2.2,0.9,2.2,2v5.7c0,1.2,1.3,2.8,2.7,3.1l-30.1,0c-1.9,0-2-2.1-2-2.1v-4.7c0-1.8-1.2-3.3-3.1-3.6v8.4c0,1.2-0.4,2-1.8,2
		h-0.8c-0.8,0-2-0.4-2-2.1v-9.9c0-1.8-1.3-2.9-3.3-3.2c0,0,0,2.9,0,4.3c-0.4-0.6-2-1.2-3-1.2h-4c-6.4,0-7,3.1-8.1,5.6
		c-1.8,4.1-3.5,6.5-7.6,6.5c-0.1,0-3.4,0-3.4,0c-1.2,0-2.2-0.9-2.2-2v-9.8c0-1.7-1.4-3.1-3.2-3.4v4.2c-0.6-0.6-1.5-0.9-2.4-0.9H3.8
		c-2.1,0-3.8,1.6-3.8,3.5v5.7C0,74.3,1.7,76,3.8,76h2.4c1,0,2-0.4,2.9-1.1C9.9,75.6,10.9,76,12,76h6.9c4.8,0,7.7-4.2,8.5-6.6
		c1.1-3.3,2.4-5.3,5.8-5.3c-1.4,0-1.7,1.6-1.7,2.4v6.3c0,1.9,1.5,3.3,3.6,3.3h3c1,0,1.9-0.2,2.6-0.9c0.7,0.6,1.6,0.8,2.5,0.9h0.1h0
		h0c0,0,3.4,0,4-0.1c0.1,0,1.7-0.1,2.2-0.9c0,0,0,0,0,0c0.5,0.5,1,1,2,1c0,0,36.8,0.1,37.4,0.1c2.1,0,4.3-1.7,4.3-3.6V58.6z
		 M7.9,73.1c0,1.1-1.2,2-2.4,2H5.4c-1.2,0-2.2-0.9-2.2-2V66c0-1.1,1-2,2.2-2h0.2c1.2,0,2.4,0.9,2.4,2V73.1z M39.3,73.1
		c0,1.1-1.2,2-2.4,2h-0.2c-1.2,0-2.2-0.9-2.2-2V66c0-1.1,1-2,2.2-2h0.2c1.2,0,2.4,0.9,2.4,2V73.1z"/>
	<path class="st3" d="M197,72.8v-5.8c0-1.5,0.5-2.9,1.6-4c-2.9,0.4-4.7,2.7-4.7,5.4v4.6c0,1-1.2,2.1-2.3,2.1c-0.3,0-14.7,0-14.7,0
		c-0.8,0.1-1.2,0.2-1.5,0.8c0.6,0,17.6,0,17.6,0C195.3,76,197,74.4,197,72.8"/>
	<path class="st3" d="M173.1,68.3c0,2.3,0,1.3,0,2.6c0,2.6-1.7,4.7-4.4,5.1c1-1,1.2-2.3,1.2-3.7V56.8c0-1.7,1.3-3,3.2-3.3v7V68.3z"
		/>
	<path class="st3" d="M50.6,84.3c0-0.8-0.6-1.4-1.4-1.4s-1.4,0.6-1.4,1.4c0,0.8,0.6,1.4,1.4,1.4S50.6,85,50.6,84.3"/>
	<path class="st3" d="M50.6,80.6c0-0.8-0.6-1.4-1.4-1.4s-1.4,0.6-1.4,1.4c0,0.8,0.6,1.4,1.4,1.4S50.6,81.4,50.6,80.6"/>
	<path class="st3" d="M162.9,70.6c0,2.6-2.3,4.2-4.7,4.2c-0.3,0-0.7,0-1-0.1c0.8,0.6,2,1.3,3.6,1.3c3.6,0,5.3-2.6,5.3-5.1v-5.1
		c0-1.7-1.3-3.1-3.2-3.4L162.9,70.6z"/>
	<path class="st3" d="M155.8,70.6c0,2.6-2.3,4.2-4.7,4.2c-0.3,0-0.7,0-1-0.1c0.8,0.6,2,1.3,3.6,1.3c3.6,0,5.3-2.6,5.3-5.1v-5.1
		c0-1.7-1.3-3.1-3.2-3.4L155.8,70.6z"/>
	<path class="st3" d="M145.6,75.2c-0.6,0-35.3,0-35.3,0c-0.8,0.1-1.2,0.2-1.5,0.8l36.7,0l1.1,0c3.6,0,5.3-2.6,5.3-5.1v-5.1
		c0-1.7-1.3-3.1-3.2-3.4l0,8.2C148.6,72.8,148,75.2,145.6,75.2"/>
	<path class="st3" d="M100.2,68.3c0,2.3,0,1.3,0,2.6c0,2.6-1.7,4.7-4.4,5.1c1-1,1.2-2.3,1.2-3.7V56.8c0-1.7,1.3-3,3.2-3.3v7V68.3z"
		/>
	<path class="st3" d="M5.1,56.5c-0.8,0-1.4,0.6-1.4,1.4c0,0.8,0.6,1.4,1.4,1.4c0.8,0,1.4-0.6,1.4-1.4C6.5,57.2,5.8,56.5,5.1,56.5"/>
	<path class="st3" d="M1.4,56.5c-0.8,0-1.4,0.6-1.4,1.4c0,0.8,0.6,1.4,1.4,1.4c0.8,0,1.4-0.6,1.4-1.4C2.8,57.2,2.2,56.5,1.4,56.5"/>
	<path class="st3" d="M141.7,37.2c0,0-1.1-0.3-3.1-0.7c-2-0.4-4.9-1-8.4-1.4c-3.5-0.4-7.6-0.8-12-0.7c-2.2,0-4.5,0.1-6.7,0.3
		c-2.3,0.2-4.6,0.6-6.9,1c-2.3,0.5-4.5,1.1-6.7,1.8c-1.1,0.4-2.1,0.8-3.2,1.2c-0.5,0.2-1,0.4-1.5,0.7c-0.5,0.2-1,0.5-1.5,0.7
		c-2,1-3.9,1.9-5.7,2.8c-1.8,0.9-3.5,1.7-5.2,2.4c-1.6,0.7-3.1,1.3-4.5,1.8c-1.4,0.5-2.6,0.9-3.6,1.1c-1,0.3-1.8,0.5-2.3,0.6
		c-0.5,0.1-0.8,0.2-0.8,0.2s0.3-0.1,0.8-0.3c0.3-0.1,0.6-0.2,0.9-0.4c0.4-0.2,0.8-0.3,1.3-0.5c0.9-0.4,2.1-0.9,3.4-1.5
		c1.3-0.6,2.7-1.3,4.3-2.1c1.6-0.8,3.3-1.7,5-2.6c1.8-0.9,3.7-1.9,5.7-2.9c0.5-0.2,1-0.5,1.5-0.7c0.5-0.2,1-0.5,1.6-0.7
		c1.1-0.5,2.2-0.9,3.3-1.2c2.2-0.8,4.5-1.3,6.9-1.8c2.3-0.5,4.7-0.8,7-0.9c2.3-0.2,4.6-0.2,6.8-0.2c4.4,0.1,8.6,0.6,12.1,1.1
		c1.7,0.3,3.3,0.6,4.7,0.9c1.4,0.3,2.6,0.6,3.6,0.9C140.6,36.8,141.7,37.2,141.7,37.2"/>
	<path class="st3" d="M5.5,89.8c0,0.4-0.2,0.6-0.6,0.6s-0.7-0.2-0.7-0.6c0-0.4,0.2-0.6,0.7-0.6C5.2,89.2,5.5,89.4,5.5,89.8
		 M3.5,89.8c0,0.4-0.2,0.6-0.7,0.6c-0.4,0-0.7-0.2-0.7-0.6c0-0.4,0.2-0.6,0.7-0.6C3.2,89.2,3.5,89.4,3.5,89.8 M4.7,97.2L4.6,93
		c-0.4,0-0.7,0-1,0c-0.6,0-1.1,0.2-1.5,0.6s-0.6,1-0.6,1.6c0,1.5,0.6,2.2,1.7,2.2C3.6,97.5,4.2,97.4,4.7,97.2 M7.7,98.5h-1
		c-0.5,0-0.9-0.1-1.2-0.3c-0.3-0.2-0.5-0.3-0.6-0.5c-0.5,0.3-1.2,0.5-2,0.5c-1.4,0-2.3-1-2.3-2.7c0-0.9,0.3-1.6,0.9-2.1
		c0.6-0.5,1.4-0.8,2.3-0.8h0.8l-0.1-0.8c0.5-0.1,0.9-0.2,1.2-0.3v4.8c0,1,0.5,1.5,1.4,1.5h0.6V98.5z"/>
	<rect x="7.3" y="97.8" class="st3" width="2" height="0.7"/>
	<rect x="8.8" y="97.8" class="st3" width="2" height="0.7"/>
	<rect x="10.3" y="97.8" class="st3" width="2" height="0.7"/>
	<rect x="11.9" y="97.8" class="st3" width="2" height="0.7"/>
	<rect x="13.4" y="97.8" class="st3" width="2" height="0.7"/>
	<rect x="15" y="97.8" class="st3" width="2" height="0.7"/>
	<rect x="16.5" y="97.8" class="st3" width="2" height="0.7"/>
	<rect x="18.1" y="97.8" class="st3" width="2" height="0.7"/>
	<path class="st3" d="M27.5,98.5h-7.9v-0.7l6.6,0c-0.3-0.9-0.8-1.9-1.6-3c-0.9-1.3-1.8-2-2.6-2c-0.6,0-1,0.4-1,1.1
		c0,0.2,0.1,0.5,0.2,0.8l-0.8,0.1c0.1-1.6,1-2.6,2.2-2.6c1,0,2.1,0.8,3.2,2.4C26.9,96.2,27.4,97.5,27.5,98.5"/>
	<path class="st3" d="M32.7,98.5h-1.3c-1.3,0-1.9-0.6-1.9-1.9v-5.1l-0.2-1.6l1.1-0.2v6.8c0,1,0.5,1.5,1.4,1.5h0.9V98.5z"/>
	<rect x="32.3" y="97.8" class="st3" width="2" height="0.7"/>
	<rect x="33.8" y="97.8" class="st3" width="2" height="0.7"/>
	<rect x="35.4" y="97.8" class="st3" width="2" height="0.7"/>
	<path class="st3" d="M40.4,101c0,0.4-0.2,0.6-0.7,0.6c-0.4,0-0.7-0.2-0.7-0.6c0-0.4,0.2-0.6,0.7-0.6
		C40.1,100.4,40.4,100.6,40.4,101 M38.4,101c0,0.4-0.2,0.6-0.7,0.6c-0.4,0-0.7-0.2-0.7-0.6c0-0.4,0.2-0.6,0.7-0.6
		C38.1,100.4,38.4,100.6,38.4,101 M42.3,98.5h-0.9c-0.6,0-1.1-0.2-1.5-0.6c-0.3,0.4-0.8,0.6-1.4,0.6h-1.6v-0.7H38
		c0.9,0,1.4-0.5,1.4-1.5v-1.7l-0.2-1.7l1.1-0.3v3.7c0,1,0.4,1.5,1.4,1.5h0.6V98.5z"/>
	<rect x="41.9" y="97.8" class="st3" width="2" height="0.7"/>
	<rect x="43.4" y="97.8" class="st3" width="2" height="0.7"/>
	<rect x="45" y="97.8" class="st3" width="2" height="0.7"/>
	<path class="st3" d="M59.7,98.5h-0.9c-0.7,0-1.1-0.2-1.5-0.6c-0.3,0.4-0.8,0.6-1.4,0.6c-0.8,0-1.5-0.4-2.1-1.1
		c-0.3,0.8-0.9,1.1-1.8,1.1c-0.8,0-1.4-0.3-2-1c-0.1,0.2-0.2,0.4-0.4,0.5c-0.3,0.3-0.8,0.5-1.4,0.5h-1.7v-0.7h1.4
		c0.9,0,1.4-0.5,1.4-1.5l0-2.9l0.9-0.2v3.5c0,0.1,0,0.2,0,0.3c0.5,0.5,1,0.7,1.5,0.7c0.9,0,1.4-0.5,1.4-1.5v-2.9l0.9-0.2V97
		c0.5,0.6,1.1,0.8,1.6,0.8c0.9,0,1.3-0.5,1.3-1.5v-1.7l-0.3-1.7l1.1-0.3v3.8c0,1,0.5,1.5,1.4,1.5h0.6V98.5z"/>
	<rect x="59.3" y="97.8" class="st3" width="2" height="0.7"/>
	<rect x="60.9" y="97.8" class="st3" width="2" height="0.7"/>
	<rect x="62.4" y="97.8" class="st3" width="2" height="0.7"/>
	<rect x="63.9" y="97.8" class="st3" width="2" height="0.7"/>
	<rect x="65.5" y="97.8" class="st3" width="2" height="0.7"/>
	<rect x="67" y="97.8" class="st3" width="2" height="0.7"/>
	<rect x="68.6" y="97.8" class="st3" width="2" height="0.7"/>
	<rect x="70.1" y="97.8" class="st3" width="2" height="0.7"/>
	<rect x="71.7" y="97.8" class="st3" width="2" height="0.7"/>
	<path class="st3" d="M77.6,96.6c0,1.2-0.7,1.9-1.9,1.9h-2.5v-0.7h2.1c0.9,0,1.4-0.5,1.4-1.5v-4.8l-0.2-1.7l1.1-0.3V96.6z"/>
	<polygon class="st3" points="80.6,89.6 80.4,91.2 80.4,98.5 79.5,98.5 79.5,91.2 79.3,89.7 	"/>
	<path class="st3" d="M94.3,89.8c0,0.4-0.2,0.6-0.6,0.6S93,90.2,93,89.8c0-0.4,0.2-0.6,0.7-0.6C94,89.2,94.3,89.4,94.3,89.8
		 M92.3,89.8c0,0.4-0.2,0.6-0.7,0.6c-0.4,0-0.7-0.2-0.7-0.6c0-0.4,0.2-0.6,0.7-0.6C92.1,89.2,92.3,89.4,92.3,89.8 M93.5,97.2
		L93.4,93c-0.4,0-0.7,0-1,0c-0.6,0-1.1,0.2-1.5,0.6s-0.6,1-0.6,1.6c0,1.5,0.6,2.2,1.7,2.2C92.4,97.5,93,97.4,93.5,97.2 M96.5,98.5
		h-1c-0.5,0-0.9-0.1-1.2-0.3c-0.3-0.2-0.5-0.3-0.6-0.5c-0.5,0.3-1.2,0.5-2,0.5c-1.4,0-2.3-1-2.3-2.7c0-0.9,0.3-1.6,0.9-2.1
		c0.6-0.5,1.4-0.8,2.3-0.8h0.8l-0.1-0.8c0.5-0.1,0.9-0.2,1.2-0.3v4.8c0,1,0.5,1.5,1.4,1.5h0.6V98.5z"/>
	<rect x="96.1" y="97.8" class="st3" width="2" height="0.7"/>
	<rect x="97.6" y="97.8" class="st3" width="2" height="0.7"/>
	<rect x="99.2" y="97.8" class="st3" width="2" height="0.7"/>
	<path class="st3" d="M104.1,101c0,0.4-0.2,0.6-0.7,0.6c-0.4,0-0.7-0.2-0.7-0.6c0-0.4,0.2-0.6,0.7-0.6
		C103.8,100.4,104.1,100.6,104.1,101 M102.2,101c0,0.4-0.2,0.6-0.7,0.6c-0.4,0-0.7-0.2-0.7-0.6c0-0.4,0.2-0.6,0.7-0.6
		C101.8,100.4,102.2,100.6,102.2,101 M106,98.5h-0.9c-0.6,0-1.1-0.2-1.5-0.6c-0.3,0.4-0.8,0.6-1.4,0.6h-1.6v-0.7h1.2
		c0.9,0,1.4-0.5,1.4-1.5v-1.7l-0.2-1.7l1.1-0.3v3.7c0,1,0.4,1.5,1.4,1.5h0.6V98.5z"/>
	<rect x="105.7" y="97.8" class="st3" width="2" height="0.7"/>
	<rect x="107.2" y="97.8" class="st3" width="2" height="0.7"/>
	<rect x="108.7" y="97.8" class="st3" width="2" height="0.7"/>
	<rect x="110.3" y="97.8" class="st3" width="2" height="0.7"/>
	<rect x="111.8" y="97.8" class="st3" width="2" height="0.7"/>
	<path class="st3" d="M119.8,97.8v-2.9l-0.1-1.1c-0.4-0.1-0.7-0.2-1-0.2c-0.7,0-1.3,0.3-1.7,0.8c-0.3,0.5-0.5,1.1-0.5,1.8
		c0,1.4,0.6,2.3,1.6,2.3C118.7,98.7,119.3,98.4,119.8,97.8 M123,98.5h-1.2c-0.6,0-1-0.2-1.5-0.6c-0.6,0.9-1.6,1.5-2.5,1.5
		c-0.8,0-1.5-0.4-1.9-1.3c-0.3,0.3-0.7,0.4-1.2,0.4h-1.2v-0.7h0.8c0.9,0,1.3-0.4,1.3-1.2c0.1-2.1,1.4-3.4,3.4-3.4
		c0.7,0,1.3,0.1,1.8,0.3l-0.1,1.3v1.5c0,1,0.4,1.5,1.4,1.5h0.9V98.5z"/>
	<rect x="122.6" y="97.8" class="st3" width="2" height="0.7"/>
	<rect x="124.1" y="97.8" class="st3" width="2" height="0.7"/>
	<rect x="125.7" y="97.8" class="st3" width="2" height="0.7"/>
	<path class="st3" d="M130.7,90.2c0,0.4-0.2,0.6-0.7,0.6c-0.4,0-0.7-0.2-0.7-0.6s0.2-0.6,0.7-0.6C130.4,89.6,130.7,89.8,130.7,90.2
		 M132.6,98.5h-0.9c-0.6,0-1.1-0.2-1.5-0.6c-0.3,0.4-0.8,0.6-1.4,0.6h-1.6v-0.7h1.2c0.9,0,1.4-0.5,1.4-1.5v-1.7l-0.2-1.7l1.1-0.3
		v3.7c0,1,0.4,1.5,1.4,1.5h0.6V98.5z"/>
	<rect x="132.2" y="97.8" class="st3" width="2" height="0.7"/>
	<rect x="133.7" y="97.8" class="st3" width="2" height="0.7"/>
	<rect x="135.3" y="97.8" class="st3" width="2" height="0.7"/>
	<path class="st3" d="M140.6,90.2c0,0.4-0.2,0.6-0.7,0.6c-0.4,0-0.6-0.2-0.6-0.6s0.2-0.6,0.6-0.6C140.3,89.6,140.6,89.8,140.6,90.2
		 M138.6,90.2c0,0.4-0.2,0.6-0.7,0.6c-0.4,0-0.7-0.2-0.7-0.6s0.2-0.6,0.7-0.6C138.3,89.6,138.6,89.8,138.6,90.2 M140.7,96.6
		c0,1.2-0.7,1.9-1.9,1.9h-2v-0.7h1.6c0.9,0,1.4-0.5,1.4-1.5v-1.7l-0.2-1.7l1.1-0.3V96.6z"/>
	<path class="st3" d="M154.4,89.8c0,0.4-0.2,0.6-0.6,0.6c-0.4,0-0.7-0.2-0.7-0.6c0-0.4,0.2-0.6,0.7-0.6
		C154.1,89.2,154.4,89.4,154.4,89.8 M152.5,89.8c0,0.4-0.2,0.6-0.7,0.6c-0.4,0-0.7-0.2-0.7-0.6c0-0.4,0.2-0.6,0.7-0.6
		C152.2,89.2,152.5,89.4,152.5,89.8 M153.6,97.2l-0.1-4.2c-0.4,0-0.7,0-1,0c-0.6,0-1.1,0.2-1.5,0.6c-0.4,0.4-0.6,1-0.6,1.6
		c0,1.5,0.6,2.2,1.7,2.2C152.6,97.5,153.1,97.4,153.6,97.2 M156.6,98.5h-1c-0.5,0-0.9-0.1-1.2-0.3c-0.3-0.2-0.5-0.3-0.6-0.5
		c-0.5,0.3-1.2,0.5-2,0.5c-1.4,0-2.3-1-2.3-2.7c0-0.9,0.3-1.6,0.9-2.1c0.6-0.5,1.4-0.8,2.3-0.8h0.8l-0.1-0.8
		c0.5-0.1,0.9-0.2,1.2-0.3v4.8c0,1,0.5,1.5,1.4,1.5h0.6V98.5z"/>
	<rect x="156.2" y="97.8" class="st3" width="2" height="0.7"/>
	<rect x="157.7" y="97.8" class="st3" width="2" height="0.7"/>
	<rect x="159.3" y="97.8" class="st3" width="2" height="0.7"/>
	<path class="st3" d="M165.8,91.7h-4.2v-0.4h0.8v-0.5c0-1.2,0.5-1.8,1.6-1.8c0.5,0,0.9,0.2,1.3,0.5l0,0l-0.2,0.2h0
		c-0.3-0.2-0.5-0.3-0.8-0.3c-0.9,0-1.3,0.5-1.3,1.5l0,0.4h1.5l0.6-0.1L165.8,91.7z M166.3,98.5h-0.9c-0.7,0-1.1-0.2-1.5-0.6
		c-0.3,0.4-0.8,0.6-1.4,0.6h-1.6v-0.7h1.2c0.9,0,1.4-0.5,1.4-1.5v-1.7l-0.3-1.7l1.1-0.3v3.7c0,1,0.5,1.5,1.4,1.5h0.6V98.5z"/>
	<rect x="166" y="97.8" class="st3" width="2" height="0.7"/>
	<rect x="167.5" y="97.8" class="st3" width="2" height="0.7"/>
	<rect x="169.1" y="97.8" class="st3" width="2" height="0.7"/>
	<path class="st3" d="M174.1,101c0,0.4-0.2,0.6-0.7,0.6c-0.4,0-0.7-0.2-0.7-0.6c0-0.4,0.2-0.6,0.7-0.6
		C173.8,100.4,174.1,100.6,174.1,101 M172.1,101c0,0.4-0.2,0.6-0.7,0.6c-0.4,0-0.7-0.2-0.7-0.6c0-0.4,0.2-0.6,0.7-0.6
		C171.8,100.4,172.1,100.6,172.1,101 M176,98.5H175c-0.6,0-1.1-0.2-1.5-0.6c-0.3,0.4-0.8,0.6-1.4,0.6h-1.6v-0.7h1.2
		c0.9,0,1.4-0.5,1.4-1.5v-1.7l-0.2-1.7l1.1-0.3v3.7c0,1,0.4,1.5,1.4,1.5h0.6V98.5z"/>
	<rect x="175.6" y="97.8" class="st3" width="2" height="0.7"/>
	<rect x="177.1" y="97.8" class="st3" width="2" height="0.7"/>
	<rect x="178.7" y="97.8" class="st3" width="2" height="0.7"/>
	<rect x="180.2" y="97.8" class="st3" width="2" height="0.7"/>
	<rect x="181.8" y="97.8" class="st3" width="2" height="0.7"/>
	<rect x="183.3" y="97.8" class="st3" width="2" height="0.7"/>
	<rect x="184.9" y="97.8" class="st3" width="2" height="0.7"/>
	<rect x="186.4" y="97.8" class="st3" width="2" height="0.7"/>
	<rect x="188" y="97.8" class="st3" width="2" height="0.7"/>
	<path class="st3" d="M194.9,97.8v-2.4c0-0.7-0.4-1.1-1.1-1.1c-0.5,0-0.8,0.2-1.2,0.5c-0.4,0.4-0.6,0.9-0.6,1.6c0,1,0.3,1.3,1.3,1.3
		H194.9z M198,98.5h-8.5v-0.7h2c-0.1-0.3-0.2-0.7-0.2-1.1c0-0.9,0.3-1.6,0.9-2.1c0.5-0.4,1-0.7,1.7-0.7c0.5,0,0.9,0.1,1.2,0.4
		c0.4,0.3,0.5,0.7,0.5,1.2l0,2.3h1.4v-2.6c0-0.7-0.3-1.2-0.9-1.5c-0.5-0.3-1.2-0.5-2.1-0.5c-0.9,0-1.6,0.1-2.3,0.4l0.1-0.6
		c0.7-0.3,1.6-0.4,2.5-0.4c1,0,1.8,0.2,2.4,0.5c0.8,0.4,1.1,1,1.1,1.8V98.5z"/>
</g>
</svg>
