<svg width="125" height="125" viewBox="0 0 125 125" fill="none" xmlns="http://www.w3.org/2000/svg">
<path d="M62.5001 76.0869C52.3697 76.0869 42.7202 80.3777 36.0192 87.8614C35.0192 88.9809 35.1143 90.6956 36.2311 91.6983C36.7474 92.163 37.3969 92.3913 38.0436 92.3913C38.7882 92.3913 39.5327 92.0869 40.0681 91.4864C45.7393 85.1521 53.9159 81.5217 62.5001 81.5217C71.0871 81.5217 79.2637 85.1521 84.9322 91.4864C85.9322 92.6059 87.6523 92.6983 88.7691 91.6983C89.886 90.6983 89.9811 88.9809 88.9811 87.8614C82.2827 80.3804 72.6333 76.0869 62.5001 76.0869Z" fill="#979797"/>
<path d="M62.5 0C28.0353 0 0 28.038 0 62.5C0 96.962 28.0353 125 62.5 125C96.9647 125 125 96.962 125 62.5C125 28.038 96.9647 0 62.5 0ZM62.5 119.565C31.0353 119.565 5.43478 93.9674 5.43478 62.5C5.43478 31.0326 31.0353 5.43478 62.5 5.43478C93.9647 5.43478 119.565 31.0326 119.565 62.5C119.565 93.9674 93.9647 119.565 62.5 119.565Z" fill="#979797"/>
<path d="M95.1089 43.478C93.6061 43.478 92.3915 44.6954 92.3915 46.1954C92.3915 50.69 88.7339 54.3476 84.2393 54.3476C79.7447 54.3476 76.0871 50.69 76.0871 46.1954C76.0871 44.6954 74.8725 43.478 73.3697 43.478C71.867 43.478 70.6523 44.6954 70.6523 46.1954C70.6523 53.6873 76.7475 59.7824 84.2393 59.7824C91.7311 59.7824 97.8263 53.6873 97.8263 46.1954C97.8263 44.6954 96.6116 43.478 95.1089 43.478Z" fill="#979797"/>
<path d="M54.3477 46.1954C54.3477 44.6954 53.1331 43.478 51.6304 43.478C50.1276 43.478 48.913 44.6954 48.913 46.1954C48.913 50.69 45.2554 54.3476 40.7608 54.3476C36.2662 54.3476 32.6086 50.69 32.6086 46.1954C32.6086 44.6954 31.3939 43.478 29.8912 43.478C28.3885 43.478 27.1738 44.6954 27.1738 46.1954C27.1738 53.6873 33.2689 59.7824 40.7608 59.7824C48.2526 59.7824 54.3477 53.6873 54.3477 46.1954Z" fill="#979797"/>
</svg>
